<?xml version="1.0" encoding="utf-8"?>
<!-- Generator: Adobe Illustrator 27.0.0, SVG Export Plug-In . SVG Version: 6.00 Build 0)  -->
<svg version="1.1" id="Layer_1" xmlns="http://www.w3.org/2000/svg" xmlns:xlink="http://www.w3.org/1999/xlink" x="0px" y="0px"
	 viewBox="0 0 150 69" style="enable-background:new 0 0 150 69;" xml:space="preserve">
<style type="text/css">
	.st0{display:none;}
	.st1{display:inline;}
	.st2{display:inline;clip-path:url(#SVGID_00000034799953011161101390000009855003564156923273_);}
	.st3{fill:#B6B7BE;}
	.st4{fill:#C0C0C0;}
</style>
<g class="st0">
	<defs>
		<rect id="SVGID_1_" width="150" height="68.8"/>
	</defs>
	<clipPath id="SVGID_00000039835559981412446090000014711775828713772221_" class="st1">
		<use xlink:href="#SVGID_1_"  style="overflow:visible;"/>
	</clipPath>
	<g style="display:inline;clip-path:url(#SVGID_00000039835559981412446090000014711775828713772221_);">
		<path class="st3" d="M26.9,17.6c0.3,0.6-1.2,1.6-1.8,5.3c-0.6,3.6-1.5,4-2.5,3.9c-0.9,0-3-0.8-2.8-2.4c0.1-1.6,1.4-2.4,1.7-2.7
			c0.3-0.3,1.2-2-0.2-2.1c-1.4-0.1-11.4,3.1-9,14.3c2.3,10.4,20.4,11.9,28.2-5.4c0,0,0.6,11.8-13,16.2c0,0,5.1,2,12.4-7
			c0,0-0.9,14.6-14.2,17.6c-9,2-20.9-2.8-24.4-12.7C-1.6,34.2,0,22.5,9.4,16.7C17.9,11.3,26,15.6,26.9,17.6z"/>
		<path class="st3" d="M27.7,18.2c0,0,3.8,0.6,4.9,3.1c0,0-4.3-1.5-5.5-0.5C27.1,20.8,26.8,19.8,27.7,18.2z"/>
		<path class="st3" d="M48.6,54.9c0,1-0.4,1.6-1.2,1.9L49,59h-1.7l-1.4-2h-1v2h-1.4v-6.2H46c1,0,1.6,0.2,2.1,0.5
			C48.4,53.7,48.6,54.2,48.6,54.9z M47,55.6c0.2-0.2,0.3-0.4,0.3-0.7s-0.1-0.6-0.3-0.7C46.8,54.1,46.5,54,46,54h-1v1.8h1
			C46.5,55.9,46.8,55.8,47,55.6z"/>
		<path class="st3" d="M58,52.8v1.2H55v1.3h2.8v1.2H55v1.3h3.2V59h-4.6v-6.2H58z"/>
		<path class="st3" d="M64.4,54.1c-0.1,0.1-0.2,0.3-0.2,0.4c0,0.2,0.1,0.3,0.2,0.4c0.2,0.1,0.5,0.2,1.1,0.4c0.6,0.1,1,0.4,1.4,0.7
			c0.3,0.3,0.5,0.7,0.5,1.3c0,0.6-0.2,1-0.6,1.4c-0.4,0.3-1,0.5-1.6,0.5c-1,0-1.9-0.4-2.6-1.1l0.8-1c0.7,0.6,1.3,0.9,1.9,0.9
			c0.3,0,0.5-0.1,0.6-0.2c0.1-0.1,0.2-0.3,0.2-0.4c0-0.2-0.1-0.3-0.2-0.4c-0.2-0.1-0.5-0.2-0.9-0.3c-0.7-0.2-1.3-0.4-1.6-0.7
			c-0.3-0.3-0.5-0.7-0.5-1.3c0-0.6,0.2-1,0.6-1.4c0.4-0.3,0.9-0.5,1.6-0.5c0.4,0,0.8,0.1,1.2,0.2c0.4,0.1,0.8,0.3,1.1,0.6l-0.7,1
			c-0.5-0.4-1.1-0.6-1.7-0.6C64.7,53.9,64.5,54,64.4,54.1z"/>
		<path class="st3" d="M74.7,54v5h-1.4v-5h-1.8v-1.2h4.9V54H74.7z"/>
		<path class="st3" d="M85,59l-0.6-1.3h-2.6L81.2,59h-1.5l2.7-6.2h1.3l2.7,6.2H85z M83.1,54.7l-0.8,1.8h1.5L83.1,54.7z"/>
		<path class="st3" d="M92.2,57.4c0.2,0.3,0.5,0.4,0.9,0.4s0.7-0.1,0.9-0.4c0.2-0.3,0.3-0.7,0.3-1.2v-3.4h1.4v3.5
			c0,0.9-0.2,1.6-0.7,2.1c-0.5,0.5-1.1,0.7-1.9,0.7c-0.8,0-1.4-0.2-1.9-0.7c-0.5-0.5-0.8-1.2-0.8-2.1v-3.5h1.4v3.4
			C91.8,56.8,91.9,57.1,92.2,57.4z"/>
		<path class="st3" d="M105.7,54.9c0,1-0.4,1.6-1.2,1.9l1.6,2.2h-1.7l-1.4-2h-1v2h-1.4v-6.2h2.4c1,0,1.6,0.2,2.1,0.5
			C105.5,53.7,105.7,54.2,105.7,54.9z M104.1,55.6c0.2-0.2,0.3-0.4,0.3-0.7s-0.1-0.6-0.3-0.7c-0.2-0.1-0.5-0.2-0.9-0.2h-1v1.8h1
			C103.6,55.9,103.9,55.8,104.1,55.6z"/>
		<path class="st3" d="M115.1,59l-0.6-1.3h-2.6l-0.6,1.3h-1.5l2.7-6.2h1.3l2.7,6.2H115.1z M113.2,54.7l-0.8,1.8h1.5L113.2,54.7z"/>
		<path class="st3" d="M125.2,52.8h1.4V59h-1.4l-2.9-3.9V59h-1.4v-6.2h1.3l3,4V52.8z"/>
		<path class="st3" d="M134.3,54v5h-1.4v-5h-1.8v-1.2h4.9V54H134.3z"/>
		<path class="st3" d="M44.1,17.6c0.5-0.5,1.4-0.7,2.6-0.7c1.1,0,2.1,0.2,3,0.6c0.9,0.4,1.4,0.9,1.4,1.5c0,0.6-0.3,2.1-0.9,4.5
			c-0.3,1.4-0.5,2.2-0.5,2.4c0.7-0.7,1.6-1.3,2.5-1.8c0.9-0.4,1.8-0.6,2.6-0.6c1.6,0,2.8,0.7,3.6,2.2c0.8,1.4,1.2,3.2,1.2,5.4
			c0,1.1-0.1,2.7-0.3,4.8c-0.1,1.5-0.2,2.7-0.2,3.5c0,1.7,0.4,2.5,1.3,2.5c0.6,0,1.1-0.4,1.5-1.3c0.4-0.8,0.6-1.8,0.6-2.8
			c1-0.1,2,0.1,2.8,0.7c0.8,0.5,1.3,1.5,1.3,2.8c0,1.3-0.3,2.6-1,3.7S64,47,62.8,47.7c-1.2,0.7-2.4,1-3.7,1c-2.3,0-4-0.8-5.1-2.4
			c-1.1-1.6-1.7-3.8-1.7-6.5c0-1.2,0.1-2.7,0.3-4.5c0.1-1.4,0.2-2.4,0.2-2.9c0-1.5-0.3-2.2-1-2.2c-0.7,0-1.3,0.5-1.7,1.5
			c-0.4,1-0.6,2.6-0.7,4.9c0,2.8,0.2,6.4,0.7,10.7c-0.2,0.4-0.7,0.7-1.5,0.9c-0.7,0.3-1.5,0.4-2.4,0.4c-1,0-1.9-0.2-2.6-0.6
			c-0.7-0.4-1.1-1.1-1.2-2c-0.3-3.1-0.4-6.2-0.4-9.4C41.9,30.3,42.7,24,44.1,17.6z"/>
		<path class="st3" d="M63.5,25.9c0.1-0.5,0.5-0.9,1-1.1c0.6-0.3,1.2-0.4,2-0.4c1,0,2,0.2,3,0.6c0.9,0.4,1.5,0.8,1.6,1.3
			c-0.4,1.4-0.8,3.1-1,5c-0.2,1.9-0.4,3.7-0.4,5.3c0,1.9,0.1,3.3,0.4,4.2c0.2,0.9,0.6,1.3,1,1.3c0.4,0,0.8-0.4,1.1-1.2
			c0.4-0.8,0.6-1.8,0.8-3.1c1.4,0.1,2.4,0.3,3.1,0.8c0.7,0.4,1,1.3,1,2.5c0,1.4-0.3,2.7-0.9,3.9c-0.6,1.2-1.5,2.1-2.6,2.8
			c-1.1,0.7-2.3,1-3.7,1c-2.9,0-4.8-1.2-5.9-3.5c-1.1-2.4-1.6-5.5-1.6-9.3C62.3,32.5,62.7,29.1,63.5,25.9z M65.8,22.4
			c0.7,0.7,1.5,1.1,2.5,1.1c1,0,1.8-0.4,2.5-1.1c0.7-0.7,1-1.6,1-2.6c0-1-0.3-1.9-1-2.6c-0.7-0.7-1.5-1.1-2.5-1.1
			c-1,0-1.8,0.4-2.5,1.1c-0.7,0.7-1,1.6-1,2.6S65.1,21.7,65.8,22.4z"/>
		<path class="st3" d="M73.8,30.7c0.7-2.1,1.8-3.8,3.2-5.1c1.4-1.3,3-1.9,4.9-1.9c1.1,0,2.2,0.2,3.2,0.7c1,0.5,1.8,1.2,2.5,2.1
			c0.6,0.9,0.9,1.9,0.9,3.1c0,1.1-0.3,2-0.9,2.6c-0.6,0.6-1.5,0.9-2.6,0.9c-0.4,0-0.8-0.1-1.1-0.2c-0.3-0.1-0.5-0.3-0.5-0.4
			c0-0.8-0.1-1.4-0.3-1.9c-0.2-0.4-0.6-0.7-1-0.7c-0.8,0-1.5,0.7-1.9,2c-0.4,1.3-0.7,2.7-0.7,4.2c0,1.9,0.4,3.4,1.2,4.5
			c0.8,1.1,1.9,1.6,3.4,1.6c1.4,0,2.5-0.4,3.3-1.3c0.8-0.9,1.4-2.2,1.8-3.9c1,0,1.9,0.2,2.7,0.7c0.8,0.5,1.1,1.3,1.1,2.4
			c0,1.6-0.4,3.1-1.3,4.5c-0.9,1.4-2,2.5-3.6,3.3c-1.5,0.8-3.2,1.3-5.1,1.3c-2.1,0-3.9-0.5-5.5-1.5c-1.6-1-2.8-2.4-3.6-4.2
			c-0.8-1.8-1.3-3.9-1.3-6.2C72.7,35,73.1,32.8,73.8,30.7z"/>
		<path class="st3" d="M89.8,26.9c0.4-3.1,0.9-6.2,1.7-9.2c0.7-0.4,1.7-0.6,2.9-0.6c1.1,0,2.1,0.2,3,0.7c0.8,0.5,1.3,1.1,1.3,2
			c0,0.1,0,0.4-0.1,0.7c-0.6,2.3-1,4.3-1.2,5.9c-0.2,1.6-0.4,3.4-0.5,5.4c1-2,2.2-3.7,3.5-5.3c1.3-1.6,2.5-2.4,3.6-2.4
			c0.6,0,1.3,0.2,1.9,0.7c0.6,0.5,1.1,1.1,1.5,1.8c0.4,0.7,0.6,1.4,0.7,2c-1.2,0.5-2.2,1.2-3.1,2c-0.9,0.8-1.8,1.8-2.7,3
			c0.3,2.2,0.8,4,1.5,5.6c0.7,1.6,1.5,2.4,2.5,2.4c0.8,0,1.4-0.2,1.8-0.7c0.4-0.5,0.7-1,0.9-1.5c0.2-0.5,0.2-0.9,0.2-1.1
			c0.4-0.1,0.7-0.2,1-0.2c0.6,0,1.2,0.2,1.6,0.7c0.4,0.4,0.6,1.1,0.6,2c0,1.1-0.3,2.3-0.8,3.5c-0.5,1.2-1.3,2.2-2.3,3
			c-1,0.8-2.2,1.2-3.6,1.2c-2.2,0-4.1-0.9-5.6-2.8c-1.5-1.9-2.6-4.3-3.1-7.4l-0.1,0c0.1,2.6,0.4,5.6,0.9,8.9
			c-0.2,0.4-0.7,0.7-1.5,0.9c-0.7,0.3-1.5,0.4-2.4,0.4c-1,0-1.8-0.2-2.5-0.6c-0.7-0.4-1.2-1.1-1.4-2c-0.1-0.7-0.3-2.2-0.4-4.5
			c-0.1-2.3-0.2-4.4-0.2-6.1C89.2,32.9,89.4,30.1,89.8,26.9z"/>
		<path class="st3" d="M109.9,30.7c0.7-2.2,1.8-3.9,3.2-5.3c1.4-1.3,3.1-2,5-2c1.8,0,3.3,0.8,4.5,2.3c1.1,1.5,1.7,3.4,1.7,5.6
			c0,2.5-0.6,4.6-1.6,6.4c-1.1,1.8-2.6,2.6-4.5,2.6c-0.9,0-1.7-0.3-2.3-0.8c0.2,1.1,0.7,1.9,1.5,2.4c0.8,0.5,1.8,0.8,3,0.8
			s2.3-0.4,3.3-1.1c1-0.7,1.7-1.9,2.1-3.6c0.9,0.1,1.7,0.4,2.5,0.9c0.8,0.5,1.2,1.4,1.2,2.5c0,1.4-0.4,2.7-1.1,3.9
			c-0.8,1.2-1.8,2.1-3.2,2.8c-1.4,0.7-2.9,1-4.7,1c-2.2,0-4.2-0.5-6-1.4c-1.7-1-3.1-2.3-4.1-4.1c-1-1.8-1.5-3.8-1.5-6.1
			C108.8,35.1,109.1,32.8,109.9,30.7z M118.9,31.7c0-0.5-0.1-0.9-0.2-1.2c-0.1-0.3-0.3-0.4-0.6-0.4c-0.6,0-1.1,0.6-1.5,1.7
			c-0.4,1.1-0.7,2.4-0.9,3.9C117.8,35.3,118.9,34,118.9,31.7z"/>
		<path class="st3" d="M127.4,24.9c0.9-0.5,1.9-0.8,3.2-0.8c0.9,0,1.6,0.1,2.1,0.4c0.9-1.4,2.3-2.2,4.2-2.2c2,0,3.6,0.9,4.8,2.6
			c1.1,1.8,1.7,4.2,1.7,7.3c0,0.9-0.1,2.2-0.2,3.7c0,0.4-0.1,0.8-0.1,1.3c0,0.5,0,1,0,1.6c0,0.9,0.1,1.6,0.3,2.1
			c0.2,0.5,0.5,0.7,0.9,0.7c0.4,0,0.8-0.4,1.1-1.1c0.3-0.7,0.5-1.6,0.5-2.8c1.2-0.1,2.2,0.1,3,0.6c0.8,0.5,1.2,1.4,1.2,2.7
			c0,1.3-0.3,2.6-0.9,3.8c-0.6,1.2-1.4,2.1-2.5,2.8c-1.1,0.7-2.2,1.1-3.6,1.1c-2.2,0-4-0.8-5.2-2.5c-1.2-1.6-1.9-3.8-1.9-6.4
			c0-0.9,0.1-1.9,0.2-2.9c0.1-1,0.2-1.7,0.2-2c0.2-1.6,0.3-2.5,0.3-2.9c0-1.1-0.3-1.7-0.9-1.7c-0.9,0-1.6,0.9-2,2.7
			c-0.4,1.8-0.6,4.1-0.6,6.7c0,1.6,0.1,3.2,0.2,4.6c0.1,1.5,0.3,2.4,0.5,3c-0.3,0.3-0.8,0.6-1.6,0.8c-0.8,0.2-1.6,0.3-2.5,0.3
			c-1.2,0-2.1-0.3-2.7-0.8c-0.6-0.5-0.9-1.2-1.1-2.1c-0.2-0.9-0.2-2.2-0.2-3.9v-1.9C125.6,36.5,126.2,31.5,127.4,24.9z"/>
		<path class="st3" d="M27.7,16.1c0,0-3.1-4.4-11-3.4l0.9-3.5c0,0-2.9-1.8-2.1-5.7c0.8-3.9,6.4-2.4,6.4-2.4S24-0.7,27,0.3
			c3,1,2.9,3.9,2.9,3.9s5,1,3.8,5.8c-0.3,1.4-1.9,3.4-5.3,3.1L27.7,16.1z"/>
		<path class="st3" d="M63.7,67.7H6.4c-0.2,0-0.4-0.2-0.4-0.4v-0.8c0-0.2,0.2-0.4,0.4-0.4h57.3c0.2,0,0.4,0.2,0.4,0.4v0.8
			C64.2,67.5,64,67.7,63.7,67.7z"/>
		<path class="st3" d="M146.7,67.7H89.4c-0.2,0-0.4-0.2-0.4-0.4v-0.8c0-0.2,0.2-0.4,0.4-0.4h57.3c0.2,0,0.4,0.2,0.4,0.4v0.8
			C147.2,67.5,147,67.7,146.7,67.7z"/>
		<path class="st3" d="M72.3,68.8c1.2,0,2.1-0.9,2.1-2.1s-0.9-2.1-2.1-2.1c-1.2,0-2.1,0.9-2.1,2.1S71.1,68.8,72.3,68.8z"/>
		<path class="st3" d="M81.3,68.8c1.2,0,2.1-0.9,2.1-2.1s-0.9-2.1-2.1-2.1s-2.1,0.9-2.1,2.1S80.1,68.8,81.3,68.8z"/>
	</g>
</g>
<g>
	<path class="st4" d="M75,69c-10,0-17.3-0.8-22.5-2.5c-5.2-1.7-8.2-4.4-9.1-8.1c-0.3-1.2,0-2.4,0.7-3.3c0.8-1,2-1.6,3.3-1.6h55.2
		c1.3,0,2.5,0.6,3.3,1.6c0.7,0.9,1,2.2,0.7,3.3c-0.9,3.6-4,6.4-9.1,8.1C92.3,68.2,85,69,75,69z M49.2,58.6c0.9,1.1,2.6,2.1,5,2.9
		c4.5,1.5,11.6,2.3,20.9,2.3c9.3,0,16.3-0.8,20.9-2.3c2.4-0.8,4-1.8,5-2.9H49.2z M102.6,22.4H47.4c-1.3,0-2.4-0.5-3.2-1.5
		c-0.8-0.9-1.1-2.1-0.9-3.2c0.8-5,4.7-9.6,10.8-12.9C59.8,1.7,67.3,0,75,0c7.7,0,15.2,1.7,21,4.8c6.1,3.3,9.9,7.8,10.8,12.9
		c0.2,1.2-0.1,2.3-0.9,3.2C105,21.9,103.9,22.4,102.6,22.4z M48.7,17.3h52.6c-1-2.9-3.7-5.7-7.8-7.9c-5-2.7-11.6-4.2-18.5-4.2
		S61.5,6.7,56.5,9.4C52.4,11.5,49.7,14.3,48.7,17.3z"/>
	<path class="st4" d="M101.7,50c-0.5,0-0.9-0.1-1.4-0.4l-15.1-9.4l-3.4,1.8v5.4c0,1.4-1.2,2.6-2.6,2.6c-1.4,0-2.6-1.2-2.6-2.6v-6.8
		c0,0,0-0.1,0-0.1v-12c0-1.4,1.2-2.6,2.6-2.6c1.4,0,2.6,1.2,2.6,2.6v7.7l2.2-1.2c0,0,0.1,0,0.1,0l16.3-8.8c1.3-0.7,2.8-0.2,3.5,1.1
		s0.2,2.8-1.1,3.5l-12.4,6.7l12.6,7.8c1.2,0.8,1.6,2.3,0.8,3.6C103.4,49.6,102.6,50,101.7,50z"/>
	<path class="st4" d="M65.9,50H48.3c-1.4,0-2.6-1.2-2.6-2.6v-19c0-1.4,1.2-2.6,2.6-2.6h15.1c4,0,7.3,3.3,7.3,7.3
		c0,1.2-0.3,2.3-0.8,3.3c2,1.3,3.4,3.6,3.4,6.2C73.3,46.7,70,50,65.9,50z M50.8,44.9h15.1c1.2,0,2.2-1,2.2-2.2c0-1.2-1-2.2-2.2-2.2
		H50.8V44.9z M50.8,35.4h12.5c1.2,0,2.2-1,2.2-2.2c0-1.2-1-2.2-2.2-2.2H50.8V35.4z"/>
</g>
</svg>
