<?xml version="1.0" encoding="utf-8"?>
<!-- Generator: Adobe Illustrator 27.0.0, SVG Export Plug-In . SVG Version: 6.00 Build 0)  -->
<svg version="1.1" id="Layer_1" xmlns="http://www.w3.org/2000/svg" xmlns:xlink="http://www.w3.org/1999/xlink" x="0px" y="0px"
	 viewBox="0 0 125 71" style="enable-background:new 0 0 125 71;" xml:space="preserve">
<style type="text/css">
	.st0{display:none;}
	.st1{display:inline;}
	.st2{display:inline;clip-path:url(#SVGID_00000127733442593515440720000008615306038152336059_);}
	.st3{fill:#B6B7BE;}
	.st4{fill:#F5F1E9;}
	.st5{fill:#C0C0C0;}
</style>
<g class="st0">
	<defs>
		<rect id="SVGID_1_" width="125" height="70"/>
	</defs>
	<clipPath id="SVGID_00000180328049081802364120000009334558263873038980_" class="st1">
		<use xlink:href="#SVGID_1_"  style="overflow:visible;"/>
	</clipPath>
	<g style="display:inline;clip-path:url(#SVGID_00000180328049081802364120000009334558263873038980_);">
		<path class="st3" d="M124,26.2c-1.7,0-3.1-1.4-3.1-3.1v-1H86c-0.6,0.8-1.2,1.4-1.7,2.1h34.6c0.4,1.9,1.9,3.6,4,4v20
			c-1.9,0.4-3.6,1.9-4,4H6c-0.4-1.9-1.9-3.6-4-4v-20c1.9-0.4,3.6-1.9,4-4h31.7c-0.1-0.4-0.3-0.8-0.3-1.3c0-0.3,0-0.5,0.1-0.8H4.2v1
			c0,1.7-1.4,3.1-3.1,3.1H0v23.9h1c1.7,0,3.1,1.4,3.1,3.1v1h115.8h0.9v-1c0-1.7,1.4-3.1,3.1-3.1h1V26.2H124z"/>
		<path class="st3" d="M51.8,13.9c0.8,0,1.2-0.5,1.2-0.9c0-0.5-0.5-0.9-1-0.9c-0.6,0-1.3,0.4-1.3,0.4c-0.6-0.1-1.7-0.3-2.3-0.3
			c-3.1,0-5.5,2.1-5.5,4c0,1,0.5,2.1,1.9,2.1c1.3,0,1.7-1.3,1.7-1.9c0-0.3,0-0.4-0.1-0.4c-0.1,0-0.3,0.4-0.8,0.4
			c-0.5,0-0.8-0.4-0.8-0.9c0-1.2,1.4-2.5,3.4-2.5c0.5,0,0.9,0,1.3,0.1c-0.9,0.6-1.9,2.2-2.7,5.1c-1.3,5.2-2.1,5.8-3.5,5.8
			c-0.6,0-1-0.4-1-0.4s0.8-0.3,0.8-1.2c0-0.8-0.5-1.3-1.3-1.3c-0.9,0-1.4,0.8-1.4,1.6c0,1,1,2.1,3,2.1c1.9,0,4.4-0.3,5.7-6.6
			c0.6-2.7,1.3-4,1.7-4.7C51.2,13.8,51.5,13.9,51.8,13.9z"/>
		<path class="st3" d="M68.2,16.4c0.8-0.1,1.4-0.6,1.4-1.3c0-0.5-0.4-0.9-0.9-0.9c-0.8,0-1.4,0.6-1.4,1.3
			C67.3,16,67.7,16.4,68.2,16.4z"/>
		<path class="st3" d="M84.5,19.1c-0.1,0-0.3,0-0.3,0.1c-1.7,2.5-2.7,3.5-3.2,3.5c-0.1,0-0.3-0.1-0.3-0.5c0-0.1,0-0.4,0.1-0.6
			c0.3-0.8,1-1.9,1-3.2c0-0.5-0.3-0.9-0.8-0.9c-1,0-2.2,1.4-3,2.6c0.3-0.8,0.4-1.4,0.4-1.8c0-0.5-0.1-0.8-0.6-0.8
			c-0.6,0-1.3,0.4-1.4,1.4c-0.1,0.8-0.3,1.3-0.4,1.7c-0.6,0.9-1.4,1.8-1.8,1.8c-0.3,0-0.4-0.3-0.4-0.8c0,0,1.4-2.1,1.4-3.4
			c0-0.5-0.5-0.8-1.2-0.8c-0.3,0-0.4,0.3-0.6,0.5c-0.3-0.3-0.6-0.5-1-0.5c-1.7,0-3,2.2-3.2,3.6c-0.6,0.8-1.2,1.4-1.6,1.4
			c-0.3,0-0.4-0.3-0.4-0.8c0-0.3,0.1-0.9,0.1-1.3c0,0,0.9-1,0.9-2.2c0-0.5-0.3-0.9-0.8-0.9c-0.9,0-1.7,1.8-1.9,3.5
			c-1.2,1.4-1.6,1.6-1.8,1.6c-0.4,0-0.5-0.4-0.5-0.9c0-0.6,0.3-1.7,0.3-1.7c0.8-1,3.5-4.3,3.5-6.6c0-0.8-0.3-1.2-1-1.2
			c-1.9,0-4.2,6-4.5,8.8c-0.6,0.8-1.2,1.6-1.6,1.6c-0.3,0-0.4-0.3-0.4-0.8c0,0,1.4-2.1,1.4-3.4c0-0.5-0.5-0.8-1.2-0.8
			c-0.3,0-0.4,0.3-0.6,0.5c-0.3-0.3-0.6-0.5-1-0.5c-1.7,0-2.9,1.9-3.2,3.5c-1.2,1.4-1.6,1.6-1.8,1.6c-0.4,0-0.5-0.4-0.5-0.9
			c0-0.6,0.3-1.7,0.3-1.7c0.4-0.6,1.6-1.9,2.5-3.5c2.2-0.3,4.2-0.8,4.2-1.8c0-0.6-0.6-0.9-1.2-0.9c-0.4,0-0.8,0.1-0.8,0.3
			c0,0.1,0.1,0.1,0.1,0.4c0,0.4-0.6,1-2.1,1.4c0.4-0.8,0.6-1.6,0.6-2.3s-0.3-1.2-1-1.2c-1,0-2.2,1.7-3,3.6h-0.1
			c-0.8,0-1.2,0.3-1.2,0.4c0,0,0,0.1,0.1,0.1c0.3,0.1,0.8,0.1,0.8,0.1c-0.8,2.1-1.4,4.4-1.4,5.5c0,1.3,0.8,1.9,1.6,1.9
			s1.3-0.3,2.6-1.8c0.1,1.2,0.6,1.8,1.7,1.8c0.8,0,1.3-0.4,1.8-0.9c0.1,0.5,0.4,0.9,1,0.9c0.8,0,1.4-0.5,2.3-1.7
			c0,1.2,0.6,1.7,1.4,1.7c0.8,0,1.4-0.3,2.6-1.7c0,0.1,0,0.1,0,0.3c0,0.6,0.1,1.4,1.2,1.4c0.8,0,1.6-0.5,2.6-1.7
			c0.1,1,0.6,1.7,1.7,1.7c0.8,0,1.3-0.4,1.8-0.9c0.1,0.5,0.4,0.9,1,0.9c0.8,0,1.3-0.4,2.1-1.4c0,0.1,0,0.3,0,0.4c0,0.8,0.3,1,0.8,1
			c0.9,0,1.3-1.2,1.7-2.1c0.4-0.9,1.4-2.5,1.8-2.5c0.1,0,0.1,0,0.1,0.1c0,0.4-0.9,1.7-0.9,3c0,0.6,0.1,1.4,1.2,1.4
			c1.2,0,1.7-0.5,4.5-4.3c0.1-0.1,0.1-0.1,0.1-0.3C84.7,19.2,84.6,19.1,84.5,19.1z M65.7,14.6c0.1,0,0.1,0,0.1,0.1
			c0,0.5-0.8,1.9-1.8,3.5C63.9,18.2,65.2,14.6,65.7,14.6z M54.8,14.6c0,0,0.1,0,0.1,0.1c0,0.3-0.1,0.6-0.4,1.2h-0.5
			C54.3,15.1,54.7,14.6,54.8,14.6z M53.7,16.5c0.1,0,0.3,0,0.4,0c-0.3,0.5-0.6,1.2-1,1.7C53,18.2,53.4,17.3,53.7,16.5z M57.8,22.1
			c-0.3,0.3-0.5,0.5-0.9,0.5c-0.5,0-0.8-0.4-0.8-0.9c0-0.5,0.1-1.2,0.4-1.6c0.4-0.6,0.8-1.3,1.4-1.3c0.1,0,0.4,0,0.5,0.1
			C58.1,20,57.8,21.6,57.8,22.1z M72.2,22.1c-0.3,0.3-0.5,0.5-0.9,0.5c-0.5,0-0.8-0.4-0.8-0.9c0-0.5,0.1-1.2,0.4-1.6
			c0.4-0.6,0.8-1.3,1.4-1.3c0.1,0,0.4,0,0.5,0.1C72.5,20,72.2,21.6,72.2,22.1z"/>
		<path class="st3" d="M92.8,58.9H32.2L29,53.3l3.2-5.6h60.6l3.2,5.6L92.8,58.9z M32.9,57.8h59.4l2.6-4.4L92.3,49H32.9l-2.6,4.4
			L32.9,57.8z"/>
		<path class="st3" d="M51.8,66.9c-0.6-0.1-1-0.5-1-1.3c0-0.3,0-0.4,0.1-0.5c0.3,0,0.4,0,0.6,0.1c0,0.3,0,0.3-0.1,0.5
			c0,0.4,0.1,0.5,0.4,0.5c0.4,0,0.5-0.1,0.5-0.5c0-0.3,0-0.5-0.3-0.8c-0.3-0.4-0.4-0.5-0.6-0.9c-0.3-0.4-0.4-0.8-0.3-1.3
			c0.1-0.6,0.5-1.2,1.3-1c0.6,0.1,1,0.5,0.9,1.2c0,0.3,0,0.4-0.1,0.5c-0.3,0-0.4,0-0.6-0.1c0-0.3,0-0.3,0.1-0.5
			c0-0.4-0.1-0.5-0.4-0.5c-0.3,0-0.5,0.1-0.5,0.5c0,0.3,0,0.5,0.3,0.8c0.3,0.4,0.4,0.5,0.6,0.9s0.4,0.8,0.4,1.3
			C53,66.5,52.6,67,51.8,66.9z"/>
		<path class="st3" d="M53.5,67c0.3-2.1,0.3-3,0.5-5.1c0.3,0,0.4,0,0.6,0.1c-0.3,2.1-0.3,3-0.5,5.1C54.1,67,53.9,67,53.5,67z"/>
		<path class="st3" d="M56.7,67.3c-0.4-1.6-0.5-2.3-0.8-3.9c0,0,0,0.6,0,1c-0.1,1-0.1,1.7-0.3,2.7c-0.3,0-0.4,0-0.6,0
			c0.1-2.1,0.3-3,0.5-5.1c0.3,0,0.4,0,0.8,0c0.3,1.6,0.4,2.3,0.8,3.9c0,0,0-0.6,0-1c0.1-1,0.1-1.7,0.1-2.7c0.3,0,0.4,0,0.6,0
			c-0.1,2.1-0.1,3-0.3,5.1C57.2,67.3,57,67.3,56.7,67.3z"/>
		<path class="st3" d="M59.4,67.6c-0.8,0-1.2-0.4-1-1.2c0-1.2,0.1-1.8,0.1-3c0-0.6,0.4-1,1.2-1c0.6,0,1,0.4,1,1.2c0,0.3,0,0.4,0,0.5
			c-0.3,0-0.4,0-0.6,0c0-0.3,0-0.3,0-0.5c0-0.4-0.1-0.5-0.4-0.5c-0.3,0-0.4,0.1-0.4,0.5c0,1.2-0.1,1.8-0.1,3c0,0.4,0.1,0.5,0.4,0.5
			c0.3,0,0.4-0.1,0.4-0.5c0-0.3,0-0.3,0-0.5c0.3,0,0.4,0,0.6,0c0,0.3,0,0.4,0,0.5C60.4,67.2,60,67.6,59.4,67.6z"/>
		<path class="st3" d="M61.1,67.6c0-2.1,0-3,0.1-5.1c0.6,0,1,0,1.7,0c0,0.3,0,0.4,0,0.6c-0.4,0-0.6,0-1,0c0,0.6,0,0.9,0,1.6
			c0.4,0,0.5,0,0.9,0c0,0.3,0,0.4,0,0.6c-0.4,0-0.5,0-0.9,0c0,0.6,0,1,0,1.7c0.4,0,0.6,0,1,0c0,0.3,0,0.4,0,0.6
			C62.1,67.6,61.7,67.6,61.1,67.6z"/>
		<path class="st3" d="M65,67.4c0-1.6-0.1-2.3-0.1-4c-0.3,0-0.4,0-0.6,0c0-0.3,0-0.3,0-0.5c0.4,0,0.6-0.1,0.6-0.6c0.3,0,0.4,0,0.5,0
			c0.1,2.1,0.1,3,0.1,5.1C65.4,67.4,65.2,67.4,65,67.4z"/>
		<path class="st3" d="M67.4,67.4c-0.8,0-1.2-0.4-1.2-1c0-0.1,0-0.3,0-0.4c0.3,0,0.4,0,0.6,0c0,0.1,0,0.3,0,0.4
			c0,0.4,0.1,0.5,0.4,0.5c0.3,0,0.4-0.1,0.4-0.5c0-0.5,0-0.8-0.1-1.2c0,0.1-0.3,0.4-0.5,0.4c-0.6,0-1-0.4-1-1c0-0.4,0-0.6,0-1
			c0-0.6,0.4-1.2,1-1.2c0.6,0,1.2,0.4,1.2,1c0.1,1.2,0.1,1.8,0.3,3C68.6,66.9,68.2,67.4,67.4,67.4z M67.7,63.4
			c0-0.4-0.1-0.5-0.4-0.5c-0.3,0-0.4,0.1-0.4,0.5c0,0.4,0,0.5,0,0.9c0,0.4,0.1,0.5,0.4,0.5c0.3,0,0.4-0.3,0.4-0.5
			C67.7,63.9,67.7,63.7,67.7,63.4z"/>
		<path class="st3" d="M70.3,67.2c-0.8,0.1-1.2-0.3-1.3-1c0-0.3,0-0.4,0-0.8s0.4-0.9,0.4-0.9s-0.5-0.4-0.5-0.8c0-0.3,0-0.4,0-0.6
			c0-0.6,0.4-1.2,1-1.2s1.2,0.3,1.2,1c0,0.3,0,0.4,0.1,0.6c0,0.4-0.4,0.8-0.4,0.8s0.5,0.4,0.5,0.8c0,0.3,0,0.4,0.1,0.8
			C71.5,66.7,71.1,67.2,70.3,67.2z M70.7,65.4c0-0.4-0.3-0.5-0.5-0.5c-0.3,0-0.5,0.3-0.4,0.5c0,0.3,0,0.4,0.1,0.8
			c0,0.4,0.3,0.5,0.5,0.5c0.3,0,0.5-0.3,0.4-0.5C70.7,65.7,70.7,65.6,70.7,65.4z M70.4,63.2c0-0.4-0.3-0.5-0.5-0.5s-0.4,0.3-0.4,0.5
			c0,0.3,0,0.4,0,0.6c0,0.4,0.3,0.5,0.5,0.5c0.3,0,0.4-0.3,0.4-0.5C70.4,63.5,70.4,63.4,70.4,63.2z"/>
		<path class="st3" d="M73.2,66.9C72.5,67,72,66.7,71.9,66c0-0.3,0-0.4-0.1-0.5c0.3,0,0.4,0,0.6-0.1c0,0.3,0,0.3,0.1,0.5
			c0,0.4,0.3,0.5,0.5,0.5c0.3,0,0.4-0.3,0.4-0.5c-0.1-0.5-0.1-0.8-0.1-1.3c0-0.3-0.3-0.4-0.4-0.4c-0.3,0-0.4,0.3-0.4,0.5
			c-0.3,0-0.4,0-0.6,0.1c-0.1-1-0.1-1.7-0.3-2.7c0.8-0.1,1.2-0.1,1.9-0.3c0,0.3,0,0.4,0.1,0.6c-0.5,0.1-0.8,0.1-1.3,0.1
			c0,0.5,0,0.8,0.1,1.3c0.1-0.1,0.4-0.3,0.5-0.4c0.6-0.1,0.9,0.4,1,0.9c0.1,0.5,0.1,0.8,0.1,1.3C74.3,66.4,73.9,66.8,73.2,66.9z"/>
		<path class="st3" d="M75.6,67.7c-10.5,1.7-15.9,1.7-26.4,0c-0.1,0.4-0.1,0.6-0.1,1c10.7,1.7,16.1,1.7,26.6,0
			C75.8,68.3,75.8,68.1,75.6,67.7z"/>
		<path class="st4" d="M32.9,57.8h59.3l2.6-4.4l-2.6-4.5H32.9l-2.6,4.5L32.9,57.8z"/>
		<path class="st3" d="M39.2,52.6c0,0.8-0.3,1.2-0.9,1.4l1.2,1.7h-1.3l-1-1.4h-0.6v1.4h-1v-4.5h1.7c0.6,0,1.2,0.1,1.6,0.4
			C39.1,51.7,39.2,52.1,39.2,52.6z M38.1,53.1c0.1-0.1,0.1-0.3,0.1-0.5c0-0.3-0.1-0.4-0.3-0.5c0-0.1-0.3-0.1-0.5-0.1h-0.8v1.3h0.8
			C37.7,53.3,37.9,53.3,38.1,53.1z"/>
		<path class="st3" d="M44.7,51.1V52h-2.2v0.9h2.1v0.9h-2.1v0.9h2.3v0.9h-3.4v-4.5H44.7z"/>
		<path class="st3" d="M47.7,52c-0.1,0.1-0.1,0.1-0.1,0.3c0,0.1,0,0.3,0.1,0.3c0.1,0.1,0.4,0.1,0.8,0.3c0.4,0.1,0.8,0.3,1,0.5
			c0.3,0.3,0.4,0.5,0.4,0.9c0,0.4-0.1,0.8-0.5,1c-0.3,0.3-0.6,0.4-1.2,0.4c-0.8,0-1.4-0.3-1.9-0.8l0.6-0.8c0.5,0.4,0.9,0.6,1.3,0.6
			c0.1,0,0.4,0,0.4-0.1c0.1-0.1,0.1-0.1,0.1-0.4c0-0.1,0-0.3-0.1-0.4c-0.1-0.1-0.4-0.1-0.6-0.3c-0.5-0.1-0.9-0.3-1.2-0.5
			c-0.3-0.3-0.4-0.5-0.4-0.9c0-0.4,0.1-0.8,0.5-1c0.3-0.3,0.6-0.4,1.2-0.4c0.3,0,0.6,0,0.9,0.1c0.3,0.1,0.5,0.3,0.8,0.4l-0.4,1.2
			C49,52.1,48.6,52,48.2,52C47.9,51.8,47.8,52,47.7,52z"/>
		<path class="st3" d="M53.8,52v3.6h-1V52h-1.3v-0.9h3.6V52H53.8z"/>
		<path class="st3" d="M59.8,55.6l-0.4-1h-1.9l-0.4,1h-1.2l1.9-4.5h1l1.9,4.5H59.8z M58.3,52.5l-0.5,1.3H59L58.3,52.5z"/>
		<path class="st3" d="M63.4,54.4c0.1,0.3,0.4,0.3,0.6,0.3c0.3,0,0.5-0.1,0.6-0.3c0.1-0.3,0.3-0.5,0.3-0.9v-2.5h1v2.6
			c0,0.6-0.1,1.2-0.5,1.6c-0.4,0.4-0.8,0.5-1.4,0.5c-0.5,0-1-0.1-1.4-0.5c-0.4-0.4-0.5-0.9-0.5-1.6v-2.6h1v2.5
			C63.1,53.9,63.3,54.3,63.4,54.4z"/>
		<path class="st3" d="M71.9,52.6c0,0.8-0.3,1.2-0.9,1.4l1.2,1.7h-1.3l-1-1.4h-0.6v1.4h-1v-4.5h1.7c0.6,0,1.2,0.1,1.6,0.4
			C71.7,51.7,71.9,52.1,71.9,52.6z M70.7,53.1c0.1-0.1,0.1-0.3,0.1-0.5c0-0.3-0.1-0.4-0.3-0.5c0-0.1-0.3-0.1-0.6-0.1h-0.8v1.3h0.8
			C70.3,53.3,70.6,53.3,70.7,53.1z"/>
		<path class="st3" d="M77.2,55.6l-0.4-1h-1.9l-0.4,1h-1l1.9-4.5h1l1.9,4.5H77.2z M75.8,52.5l-0.5,1.3h1.2L75.8,52.5z"/>
		<path class="st3" d="M83,51.1h1v4.5h-1l-2.2-2.9v2.9h-1v-4.5h0.9l2.2,3v-3H83z"/>
		<path class="st3" d="M88.1,52v3.6h-1V52h-1.3v-0.9h3.6V52H88.1z"/>
		<path class="st3" d="M17.4,29.8c0-0.3,0.1-0.4,0.4-0.4h5.1c2.7,0,4.8,2.2,4.8,4.8c0,2.7-2.2,4.9-4.8,4.9h-2.7v5.1
			c0,0.3-0.3,0.4-0.4,0.4h-1.9c-0.3,0-0.4-0.3-0.4-0.4V29.8z M22.7,36.4c1.2,0,2.2-1,2.2-2.2s-1-2.1-2.2-2.1h-2.5v4.3H22.7z"/>
		<path class="st3" d="M39,29.8c0-0.3,0.1-0.4,0.4-0.4h2.1c0.3,0,0.4,0.1,0.4,0.4v14.4c0,0.3-0.3,0.4-0.4,0.4h-2.1
			c-0.3,0-0.4-0.3-0.4-0.4V29.8z"/>
		<path class="st3" d="M53,43.8l6.5-11.7V32h-5.5c-0.3,0-0.4-0.3-0.4-0.4v-1.8c0-0.3,0.1-0.4,0.4-0.4h9.1c0.3,0,0.4,0.1,0.4,0.4V30
			l-6.4,12h5.6c0.3,0,0.4,0.1,0.4,0.4v1.8c0,0.3-0.1,0.4-0.4,0.4h-9.2c-0.3,0-0.4-0.3-0.4-0.4v-0.4H53z"/>
		<path class="st3" d="M73.3,43.8l6.5-11.7V32h-5.5c-0.3,0-0.4-0.3-0.4-0.4v-1.8c0-0.3,0.3-0.4,0.4-0.4h9.1c0.3,0,0.4,0.1,0.4,0.4
			V30l-6.4,11.8H83c0.3,0,0.4,0.1,0.4,0.4v1.9c0,0.3-0.1,0.4-0.4,0.4h-9.2c-0.3,0-0.4-0.3-0.4-0.4v-0.4H73.3z"/>
		<path class="st3" d="M93.2,44l6.8-14.6c0-0.1,0.1-0.3,0.4-0.3h0.3c0.3,0,0.3,0.1,0.4,0.3l6.6,14.6c0.1,0.3,0,0.5-0.4,0.5h-1.9
			c-0.4,0-0.5-0.1-0.7-0.4l-1-2.3h-6.5l-1,2.3c-0.1,0.3-0.3,0.4-0.6,0.4h-1.8C93.2,44.6,93,44.3,93.2,44z M102.5,39.4l-2.2-4.8
			l-2.1,4.8H102.5z"/>
		<path class="st3" d="M54.7,1.6c4-2.2,9-2.1,12.9,0.3L67,2.7C63.4,0.5,59,0.4,55.2,2.5L54.7,1.6z"/>
		<path class="st3" d="M55.4,2.6c3.6-1.9,8.1-1.8,11.6,0.3l-6.1,9.9L55.4,2.6z"/>
		<path class="st4" d="M63.8,5.5c0.4-0.4,0.4-1,0-1.3c-0.4-0.4-1-0.4-1.3,0c-0.4,0.4-0.4,1,0,1.3C62.8,5.8,63.4,5.8,63.8,5.5z"/>
		<path class="st4" d="M59.5,5.3c0.4-0.4,0.4-1,0-1.3c-0.4-0.4-1-0.4-1.3,0c-0.4,0.4-0.4,1,0,1.3C58.6,5.7,59.1,5.7,59.5,5.3z"/>
	</g>
</g>
<g>
	<path class="st5" d="M74.2,5.4c0,0,0.1,0,0.1,0l18.3,18.3c0.1,0.1,0.1,0.2,0,0.2L50.9,65.6c-0.1,0.1-0.2,0.1-0.2,0L32.4,47.3
		c-0.1-0.1-0.1-0.2,0-0.2L74.2,5.4C74.1,5.4,74.2,5.4,74.2,5.4 M74.2,0c-1.5,0-2.9,0.6-3.9,1.6L28.6,43.3c-2.1,2.2-2.1,5.6,0,7.8
		l18.3,18.3c2.1,2.1,5.6,2.2,7.8,0c0,0,0,0,0,0l41.7-41.7c2.1-2.2,2.1-5.6,0-7.8L78.1,1.6C77.1,0.6,75.6,0,74.2,0L74.2,0z"/>
	<circle class="st5" cx="74.7" cy="22.8" r="4"/>
	<circle class="st5" cx="57.4" cy="47.2" r="4"/>
	<circle class="st5" cx="43.5" cy="47.2" r="4"/>
	<path class="st5" d="M53.9,21.9l21.4,21.4l-4.9,4.9L49,26.9L53.9,21.9z"/>
</g>
</svg>
