<?xml version="1.0" encoding="utf-8"?>
<!-- Generator: Adobe Illustrator 27.0.0, SVG Export Plug-In . SVG Version: 6.00 Build 0)  -->
<svg version="1.1" id="Layer_1" xmlns="http://www.w3.org/2000/svg" xmlns:xlink="http://www.w3.org/1999/xlink" x="0px" y="0px"
	 viewBox="0 0 114 48.8" style="enable-background:new 0 0 114 48.8;" xml:space="preserve">
<style type="text/css">
	.st0{display:none;}
	.st1{display:inline;}
	.st2{display:inline;clip-path:url(#SVGID_00000049914679614082255190000002211530461909501876_);}
	.st3{fill:#A6A4A1;}
	.st4{fill:#FFFFFF;}
	.st5{fill:#CABFC1;}
	.st6{fill:#E5E5E5;}
	.st7{fill:#C0C0C0;}
</style>
<g class="st0">
	<defs>
		<rect id="SVGID_1_" y="-8.1" width="114" height="64.2"/>
	</defs>
	<clipPath id="SVGID_00000032617059268872992250000006170589823417175966_" class="st1">
		<use xlink:href="#SVGID_1_"  style="overflow:visible;"/>
	</clipPath>
	<g style="display:inline;clip-path:url(#SVGID_00000032617059268872992250000006170589823417175966_);">
		<path class="st3" d="M93.1,56.1H15.7c-0.5,0-0.9-0.4-0.9-0.9V41.5c0-0.5,0.4-0.9,0.9-0.9h77.4c0.5,0,0.9,0.4,0.9,0.9v13.7
			C94,55.7,93.6,56.1,93.1,56.1z"/>
		<path class="st3" d="M88.1,23.6c-0.7-1.8-1.7-3.4-2.9-4.8c-1.2-1.4-2.7-2.6-4.5-3.4C78.9,14.4,77,14,74.9,14c-2.1,0-4,0.4-5.8,1.2
			c-1.8,0.8-3.3,1.9-4.5,3.3c-1.3,1.4-2.3,3-3,4.8c-0.7,1.8-1.1,3.6-1.1,5.6c0,1.9,0.3,3.7,1,5.5c0.7,1.8,1.7,3.4,2.9,4.8
			c1.3,1.4,2.8,2.5,4.5,3.4c1.8,0.8,3.7,1.2,5.9,1.2c2.1,0,4-0.4,5.7-1.2c1.8-0.8,3.3-1.9,4.5-3.3c1.3-1.4,2.3-3,3-4.8
			c0.7-1.8,1.1-3.6,1.1-5.6C89.1,27.1,88.8,25.3,88.1,23.6z M80.9,31.6c-0.3,0.9-0.7,1.7-1.3,2.5c-0.5,0.7-1.2,1.3-2.1,1.8
			c-0.8,0.4-1.8,0.7-2.8,0.7c-1,0-2-0.2-2.8-0.6c-0.8-0.4-1.5-1-2.1-1.7c-0.6-0.7-1-1.5-1.3-2.4c-0.3-0.9-0.4-1.8-0.4-2.8
			c0-0.9,0.1-1.8,0.4-2.7c0.3-0.9,0.7-1.7,1.3-2.4c0.5-0.7,1.2-1.3,2-1.7c0.8-0.4,1.8-0.7,2.8-0.7c1,0,1.9,0.2,2.7,0.6
			c0.8,0.4,1.5,1,2.1,1.7s1,1.5,1.3,2.4c0.3,0.9,0.5,1.8,0.5,2.8C81.3,29.8,81.2,30.7,80.9,31.6z"/>
		<path class="st4" d="M24.1,45.3h-2.8v7.3H20v-7.3h-2.8v-1.2h7V45.3z"/>
		<path class="st4" d="M25.7,44.1l2.6,6.8l2.5-6.8h1.4l-3.3,8.5h-1.3l-3.3-8.5H25.7z"/>
		<path class="st4" d="M35.2,48.3c0-0.5,0.1-1,0.3-1.5c0.2-0.5,0.5-0.9,0.8-1.4c0.4-0.4,0.8-0.7,1.3-1c0.5-0.2,1.1-0.4,1.7-0.4
			c0.8,0,1.4,0.2,2,0.5c0.6,0.3,1,0.8,1.2,1.3l-1.1,0.7c-0.2-0.3-0.3-0.6-0.6-0.8c-0.2-0.2-0.5-0.3-0.8-0.4
			c-0.3-0.1-0.6-0.1-0.8-0.1c-0.4,0-0.8,0.1-1.1,0.3c-0.3,0.2-0.6,0.4-0.8,0.7c-0.2,0.3-0.4,0.6-0.5,1c-0.1,0.4-0.2,0.7-0.2,1.1
			c0,0.4,0.1,0.8,0.2,1.2c0.1,0.4,0.3,0.7,0.6,1c0.2,0.3,0.5,0.5,0.9,0.7c0.3,0.2,0.7,0.2,1.1,0.2c0.3,0,0.6,0,0.9-0.1
			c0.3-0.1,0.6-0.2,0.8-0.5c0.2-0.2,0.5-0.5,0.6-0.8l1.1,0.6c-0.2,0.4-0.4,0.8-0.8,1.1c-0.4,0.3-0.8,0.5-1.2,0.7
			c-0.5,0.2-0.9,0.2-1.4,0.2c-0.6,0-1.1-0.1-1.6-0.4c-0.5-0.2-0.9-0.6-1.3-1c-0.4-0.4-0.6-0.9-0.8-1.4
			C35.3,49.3,35.2,48.8,35.2,48.3z"/>
		<path class="st4" d="M50.7,44.1v8.5h-1.3v-3.7h-4.3v3.7h-1.4v-8.5h1.4v3.5h4.3v-3.5H50.7z"/>
		<path class="st4" d="M55,44.1h1.3l3.3,8.5h-1.4l-0.8-2.3h-3.4l-0.8,2.3h-1.4L55,44.1z M57,49.3l-1.3-3.7l-1.3,3.7H57z"/>
		<path class="st4" d="M61.9,46.6v6h-1.4v-8.5h1.1l4.8,6.1v-6.1h1.3v8.4h-1.1L61.9,46.6z"/>
		<path class="st4" d="M71,46.6v6h-1.4v-8.5h1.1l4.8,6.1v-6.1h1.3v8.4h-1.1L71,46.6z"/>
		<path class="st4" d="M84.5,51.4v1.2h-5.8v-8.5h5.7v1.2H80v2.4h3.8v1.1H80v2.6L84.5,51.4L84.5,51.4z"/>
		<path class="st4" d="M85.8,52.6v-8.5h1.4v7.3h4.5v1.2L85.8,52.6L85.8,52.6z"/>
		<path class="st5" d="M10,24.2c0-1.8,0.3-3.6,1-5.3c0.7-1.7,1.6-3.3,2.8-4.7c1.2-1.4,2.8-2.5,4.5-3.4c1.8-0.8,3.8-1.3,6.1-1.3
			c2.7,0,5,0.6,7,1.8c1.6,0.9,2.8,2.1,3.8,3.6c0.4,0.6,0.2,1.4-0.3,1.8l-2.3,1.6c-0.6,0.4-1.4,0.2-1.8-0.3c-0.4-0.6-0.8-1.1-1.3-1.5
			c-0.8-0.7-1.7-1.1-2.6-1.4c-0.9-0.3-1.8-0.4-2.7-0.4c-1.4,0-2.7,0.3-3.8,0.9c-1.1,0.6-2,1.4-2.7,2.3c-0.7,0.9-1.3,2-1.6,3.2
			c-0.3,1.2-0.5,2.3-0.5,3.5c0,1.3,0.2,2.5,0.6,3.8c0.4,1.2,1,2.3,1.8,3.2s1.7,1.7,2.7,2.2c1.1,0.5,2.2,0.8,3.5,0.8
			c0.9,0,1.8-0.2,2.8-0.5c0.9-0.3,1.8-0.8,2.6-1.4c0.5-0.4,0.9-0.9,1.3-1.5c0.4-0.6,1.1-0.8,1.7-0.4l2.5,1.4
			c0.6,0.4,0.8,1.1,0.5,1.8c-0.6,1-1.3,1.8-2.3,2.6c-1.3,1-2.8,1.8-4.4,2.3c-1.6,0.5-3.2,0.8-4.8,0.8c-2.1,0-4-0.4-5.8-1.3
			c-1.7-0.9-3.2-2-4.5-3.5c-1.3-1.4-2.2-3.1-2.9-4.9C10.4,27.8,10,26,10,24.2z"/>
		<path class="st3" d="M62.9,18.4c-0.7-1.8-1.7-3.4-2.9-4.8c-1.2-1.4-2.7-2.6-4.5-3.4c-1.8-0.9-3.7-1.3-5.8-1.3
			c-2.1,0-4,0.4-5.8,1.2c-1.8,0.8-3.3,1.9-4.5,3.3c-1.3,1.4-2.3,3-3,4.8c-0.7,1.8-1.1,3.6-1.1,5.6c0,1.9,0.3,3.7,1,5.5
			c0.7,1.8,1.7,3.4,2.9,4.8c1.3,1.4,2.8,2.5,4.5,3.4c1.8,0.8,3.7,1.2,5.9,1.2c2.1,0,4-0.4,5.7-1.2c1.8-0.8,3.3-1.9,4.5-3.3
			s2.3-3,3-4.8c0.7-1.8,1.1-3.6,1.1-5.6C63.9,22,63.6,20.1,62.9,18.4z M55.7,26.5c-0.3,0.9-0.7,1.7-1.3,2.5
			c-0.5,0.7-1.2,1.3-2.1,1.8c-0.8,0.4-1.8,0.7-2.8,0.7c-1,0-2-0.2-2.8-0.6c-0.8-0.4-1.5-1-2.1-1.7c-0.6-0.7-1-1.5-1.3-2.4
			c-0.3-0.9-0.5-1.8-0.5-2.8c0-0.9,0.1-1.8,0.4-2.7c0.3-0.9,0.7-1.7,1.3-2.4c0.5-0.7,1.2-1.3,2-1.7c0.8-0.4,1.8-0.7,2.8-0.7
			c1,0,1.9,0.2,2.7,0.6c0.8,0.4,1.5,1,2.1,1.7c0.6,0.7,1,1.5,1.3,2.4c0.3,0.9,0.5,1.8,0.5,2.8C56.1,24.7,56,25.6,55.7,26.5z"/>
		<path class="st5" d="M90.1,35.6V8.7c0-0.7,0.6-1.3,1.3-1.3h3.2c0.7,0,1.3,0.6,1.3,1.3v9.4c0,1.2,1.4,1.7,2.2,0.8l9.8-11.1
			c0.2-0.3,0.6-0.4,0.9-0.4h3c1.1,0,1.7,1.3,0.9,2.1l-8.8,10.2c-0.4,0.5-0.4,1.1-0.1,1.6l9.9,13.6c0.6,0.8,0,2-1,2h-3.4
			c-0.4,0-0.8-0.2-1-0.5l-7.9-10.9c-0.4-0.6-1.4-0.7-1.9-0.1l-2.3,2.5c-0.2,0.2-0.3,0.5-0.3,0.9v7c0,0.7-0.6,1.3-1.3,1.3h-3.2
			C90.7,36.9,90.1,36.3,90.1,35.6z"/>
		<path class="st6" d="M27.3,6.2c0.3,0.6,0.5,1.2,0.8,1.8c-6.2,1.7-12,4.3-17.3,7.9l-0.3-0.8c-0.3-0.7-0.6-1.4-0.9-2.1
			c0.5-0.4,1-0.7,1.7-1.1c3.6-2.3,7.4-4.1,11.4-5.4C24,6,25.5,5.6,26.9,5.3C27,5.6,27.2,5.9,27.3,6.2z"/>
		<path class="st6" d="M26.9,6.3c0.2,0.5,0.5,1.1,0.7,1.6c-0.5,0.2-1.1,0.3-1.6,0.5c-0.5-1.3-1.4-3.3-2.1-3.6c-0.6-0.2-1-0.6-1.3-1
			c0.9,0.1,1.8,0,2.7,0c0.2,0,0.5,0,0.5,0.1C26.2,4.8,26.6,5.5,26.9,6.3z"/>
		<path class="st6" d="M21.1-4.9C17.8-5.5,9-6.4,9.2,1.3C8.4,0.8,7.4,0.5,6.5,0.1c0.1-0.3,0.2-0.8,0.4-1.2C9-6.3,15.7-8.4,20.6-5.2
			C20.7-5.1,20.9-5,21.1-4.9z"/>
		<path class="st6" d="M11.7,8.3l2.4,5.3c-1,0.6-2,1.2-3,1.9l-0.3-0.7c-0.9-2-1.8-4-2.7-6C7.9,8.4,7.5,8.2,7.1,8.3
			c-0.4,0.1-0.5,0.6-0.4,1c0.1,0.4,0.3,0.7,0.5,1.1c-0.2,0.1-0.4,0.1-0.5,0.2c-1.9,0.2-3.4-0.4-4.5-1.9C1.2,7.2,1.1,5.4,2.1,3.8
			C3.5,1.5,6.4,1,8.5,2.5C7.2,2.7,3.2,3.4,5.3,5.7C7.8,8.5,9.9,4.3,11.7,8.3z"/>
		<path class="st5" d="M28.8-5.4C27-7.9,23.6-8.6,21-7c-0.2,0.1-0.5,0.1-0.7,0c-4.3-1.7-8.3-1.4-12,1.6C7.8-5.1,7.4-4.6,7-4.2
			C6.9-4,6.7-3.8,6.6-3.6c-0.7,1-1.2,2.2-1.5,3.4C5,0.2,4.9,0.4,4.5,0.5c-1,0.3-1.9,0.8-2.6,1.4C0.4,3.2-0.3,5.3,0.1,7.4
			c0.7,3.1,3.6,5.1,6.7,4.6c0.3,0,0.6-0.1,0.9-0.2c0.7,1.5,2.3,5.1,2.7,5.9c1.2-0.9,1.9-1.4,3.2-2.2c3.2-2,6.6-3.6,10.2-4.9
			c1.8-0.6,3.8-1.1,5.6-1.6c0.2-0.1-0.5-1.6-1.2-3.2c-0.5-1.1-1-2.1-1.3-2.7c0.3-0.2,0.5-0.4,0.8-0.6c0.7-0.6,1.3-1.4,1.6-2.3
			c0.2-0.6,0.4-1.3,0.4-1.9C30-2.9,29.6-4.3,28.8-5.4z M28.4-2.8c0.6,3.3-2.2,6-5.5,5.2c-0.7-0.1-1,0-1.1,0.5
			c-0.1,0.5,0.2,0.9,0.8,0.9c0.9,0.1,1.8,0,2.7,0c0.2,0,0.5,0,0.5,0.1c0.4,0.8,0.7,1.5,1.1,2.3c0.2,0.5,0.5,1.1,0.7,1.6
			c-5.9,1.7-11.5,4.1-16.6,7.5l-0.3-0.7c-0.2-0.5-0.5-1.1-0.7-1.6c1.7-1.2,3.5-2.4,5.3-3.4c1-0.6,2-1.1,3-1.6c1-0.5,2-0.9,3.1-1.2
			c-1.1,0.2-2.2,0.6-3.2,0.9c-1.1,0.4-2.1,0.8-3.1,1.3c-1.9,0.9-3.7,1.9-5.6,2.9C9,11.1,8.5,9.9,8,8.8C7.8,8.4,7.5,8.2,7.1,8.4
			C6.7,8.5,6.5,9,6.7,9.4c0.1,0.4,0.3,0.7,0.5,1.1c-0.2,0.1-0.4,0.1-0.5,0.2c-1.9,0.2-3.4-0.4-4.5-1.9C1.1,7.2,1.1,5.5,2.1,3.9
			c1.6-2.7,5.3-2.9,7.4-0.4c0.3,0.4,0.7,0.6,1.1,0.3C11,3.5,11,3,10.6,2.6c-0.4-0.4-0.8-0.9-1.4-1.2C8.4,0.9,7.5,0.5,6.5,0.1
			c0.1-0.3,0.2-0.8,0.4-1.2C9-6.3,15.7-8.3,20.6-5.2c0.9,0.6,1.7,1.4,2.4,2.3c0.3,0.5,0.7,0.6,1.1,0.3c0.4-0.2,0.4-0.7,0.1-1.1
			c-0.1-0.2-0.2-0.4-0.4-0.6c-0.5-0.6-1-1.1-1.6-1.7C24.6-7.3,27.9-5.6,28.4-2.8z"/>
	</g>
</g>
<path class="st7" d="M69.2,3.5c4.8,0,8.7,20.3,8.7,45.3h7c0-26.9-7-48.8-15.7-48.8C64.3,0,59.9,6.6,57,16.8C54.1,6.6,49.7,0,44.8,0
	c-8.7,0-15.7,21.8-15.7,48.8h7c0-25,3.9-45.3,8.7-45.3c4.8,0,8.7,18.7,8.7,41.8h7C60.5,22.2,64.4,3.5,69.2,3.5"/>
</svg>
