<?xml version="1.0" encoding="utf-8"?>
<!-- Generator: Adobe Illustrator 27.0.0, SVG Export Plug-In . SVG Version: 6.00 Build 0)  -->
<svg version="1.1" id="Layer_1" xmlns="http://www.w3.org/2000/svg" xmlns:xlink="http://www.w3.org/1999/xlink" x="0px" y="0px"
	 viewBox="0 0 153 79" style="enable-background:new 0 0 153 79;" xml:space="preserve">
<style type="text/css">
	.st0{display:none;}
	.st1{display:inline;}
	.st2{display:inline;clip-path:url(#SVGID_00000029045031295798048820000014711448465941607064_);}
	.st3{fill:#C8C8C8;}
	.st4{fill:#C0C0C0;}
</style>
<g class="st0">
	<defs>
		<rect id="SVGID_1_" width="153" height="78.7"/>
	</defs>
	<clipPath id="SVGID_00000114786871667091583570000012519969964581879724_" class="st1">
		<use xlink:href="#SVGID_1_"  style="overflow:visible;"/>
	</clipPath>
	<g style="display:inline;clip-path:url(#SVGID_00000114786871667091583570000012519969964581879724_);">
		<path class="st3" d="M39.3,63.9h-1.5v-0.8h4v0.8h-1.5v4.5h-1V63.9z"/>
		<path class="st3" d="M44.4,66.9L44,68.4h-1l1.7-5.4h1.2l1.7,5.4h-1l-0.5-1.5H44.4z M46,66.1l-0.4-1.3c-0.1-0.3-0.2-0.7-0.3-1h0
			c-0.1,0.3-0.2,0.7-0.3,1l-0.4,1.3H46z"/>
		<path class="st3" d="M54,68.2c-0.3,0.1-1,0.3-1.7,0.3c-0.9,0-1.6-0.2-2.1-0.7c-0.5-0.4-0.8-1.2-0.7-2c0-1.7,1.2-2.8,3-2.8
			c0.7,0,1.2,0.1,1.4,0.3L53.7,64c-0.3-0.1-0.7-0.2-1.2-0.2c-1.1,0-1.9,0.7-1.9,1.9c0,1.2,0.7,1.9,1.9,1.9c0.3,0,0.6,0,0.7-0.1v-1.3
			h-1v-0.8H54L54,68.2L54,68.2z"/>
		<path class="st3" d="M56.5,63.1h1v4.5h2.2v0.8h-3.2V63.1z"/>
		<path class="st3" d="M62.9,63.1v5.4h-1v-5.4H62.9z"/>
		<path class="st3" d="M65.5,68.4v-5.4h1.1l1.4,2.3c0.4,0.6,0.7,1.2,0.9,1.8h0c-0.1-0.7-0.1-1.4-0.1-2.2v-1.9h0.9v5.4h-1l-1.4-2.3
			c-0.3-0.6-0.7-1.2-1-1.8l0,0c0,0.7,0,1.4,0,2.3v1.9L65.5,68.4L65.5,68.4z"/>
		<path class="st3" d="M75.4,66h-2v1.6h2.2v0.8h-3.2V63h3.1v0.8h-2.1v1.4h2V66z"/>
		<path class="st3" d="M85.4,68.2c-0.3,0.1-1,0.3-1.7,0.3c-0.9,0-1.6-0.2-2.1-0.7c-0.5-0.4-0.8-1.2-0.7-2c0-1.7,1.2-2.8,3-2.8
			c0.7,0,1.2,0.1,1.4,0.3L85.1,64c-0.3-0.1-0.7-0.2-1.2-0.2c-1.1,0-1.9,0.7-1.9,1.9c0,1.2,0.7,1.9,1.9,1.9c0.3,0,0.6,0,0.7-0.1v-1.3
			h-1v-0.8h1.9L85.4,68.2L85.4,68.2z"/>
		<path class="st3" d="M92.7,65.7c0,1.8-1.1,2.8-2.6,2.8c-1.5,0-2.5-1.1-2.5-2.7c0-1.6,1-2.8,2.5-2.8C91.8,63,92.7,64.1,92.7,65.7z
			 M88.7,65.8c0,1.1,0.5,2,1.5,2c1,0,1.5-0.9,1.5-2c0-1-0.5-2-1.5-2C89.2,63.8,88.7,64.6,88.7,65.8z"/>
		<path class="st3" d="M98,66h-2v1.6h2.2v0.8H95V63h3.1v0.8H96v1.4h2V66z"/>
		<path class="st3" d="M100.6,67.3c0.3,0.2,0.8,0.3,1.3,0.3c0.6,0,1-0.3,1-0.7c0-0.4-0.3-0.6-1-0.9c-0.9-0.3-1.4-0.8-1.4-1.6
			c0-0.9,0.7-1.5,1.9-1.5c0.6,0,1,0.1,1.3,0.3l-0.2,0.8c-0.2-0.1-0.6-0.3-1.1-0.3c-0.6,0-0.9,0.3-0.9,0.6c0,0.4,0.3,0.6,1,0.9
			c0.9,0.3,1.4,0.8,1.4,1.6c0,0.9-0.7,1.6-2,1.6c-0.6,0-1.1-0.2-1.4-0.3L100.6,67.3z"/>
		<path class="st3" d="M110.4,63.1v2.1h2.3v-2.1h1v5.4h-1V66h-2.3v2.4h-1v-5.4H110.4z"/>
		<path class="st3" d="M119.2,66h-2v1.6h2.2v0.8h-3.2V63h3.1v0.8h-2.1v1.4h2V66z"/>
		<path class="st3" d="M121.8,63.1c0.4-0.1,0.9-0.1,1.5-0.1c0.8,0,1.3,0.1,1.6,0.4c0.3,0.3,0.5,0.6,0.5,1.1c0,0.7-0.5,1.2-1,1.3v0
			c0.4,0.1,0.6,0.5,0.7,1c0.2,0.7,0.3,1.3,0.4,1.5h-1c-0.1-0.2-0.2-0.6-0.4-1.3c-0.2-0.7-0.4-0.9-1-0.9h-0.5v2.2h-1V63.1z
			 M122.8,65.5h0.6c0.7,0,1.1-0.3,1.1-0.9c0-0.6-0.4-0.9-1-0.9c-0.3,0-0.5,0-0.6,0V65.5z"/>
		<path class="st3" d="M130.9,66h-2v1.6h2.2v0.8h-3.2V63h3.1v0.8h-2.1v1.4h2V66z"/>
		<path class="st3" d="M114.1,35.5c0.8,1,0.2,2.1,0.2,2.1c-0.6,1.7-1.7,3.9-2.7,5.8c0,0,0.1,0,0.1,0c1-1.9,2.1-4.1,2.7-5.8
			C114.4,37.5,114.9,36.4,114.1,35.5c0.4-0.8,4.7-11,8-11.7l-5.2,12.4c-0.2,0.1-1,0.5-2.2,3c0,0-1,2.4-1.9,4.8c0,0,0.1,0,0.1,0.1
			c0.9-2.5,1.9-4.8,1.9-4.8c1.3-2.9,2.1-3,2.1-3l5.3-12.5C118.7,24,114.1,35.5,114.1,35.5z"/>
		<path class="st3" d="M114.9,38.3c-0.1,0.2-0.2,0.3-0.3,0.6c-0.1,0.1-0.1,0.2-0.2,0.3c-0.1,0.1-0.1,0.3-0.2,0.4
			c-0.1,0.1-0.1,0.3-0.2,0.4c0,0.1-0.1,0.2-0.1,0.2c0,0.1-0.1,0.2-0.1,0.2c-0.1,0.3-0.3,0.7-0.4,1c-0.1,0.3-0.3,0.7-0.4,1.1
			c-0.1,0.2-0.2,0.4-0.2,0.6c-0.1,0.2-0.1,0.4-0.2,0.6c0,0,0,0.1,0,0.1c0,0,0,0,0.1,0c0,0,0-0.1,0-0.1c0.1-0.2,0.1-0.4,0.2-0.6
			c0.1-0.2,0.1-0.4,0.2-0.6c0.1-0.4,0.3-0.7,0.4-1.1c0.1-0.3,0.3-0.7,0.4-1l0.1-0.2c0-0.1,0.1-0.2,0.1-0.2c0.1-0.2,0.1-0.3,0.2-0.4
			c0.1-0.1,0.1-0.3,0.2-0.4c0.1-0.1,0.1-0.2,0.2-0.3C114.7,38.6,114.8,38.4,114.9,38.3z"/>
		<path class="st3" d="M55,36.9c0.2,0.3,1.2,2,3.4,6.5c0,0,0.1,0,0.1,0C56.2,38.8,55.2,37.1,55,36.9l0-0.1c-0.5-0.9-1.1-1.2-2-1.5
			c-0.4-0.1-0.8-0.3-1.1-0.7c-0.5-0.4-0.8-0.8-1-1.2c0-0.1-3.3-7.6-3.3-7.6c0,0,0-0.1,0-0.1c0,0,0.1,0,0.2,0.1l3.9,7.2
			c0.2,0.3,0.4,0.3,0.5,0.2h0c0.2-0.1,0.2-0.4,0.2-0.5L48.7,25c0,0,0-0.1,0-0.1c0.1,0,0.1,0,0.1,0l4,7.3c0,0.1,0.1,0.2,0.2,0.2
			c0.1,0.1,0.3,0,0.3,0c0.1-0.1,0.2-0.1,0.2-0.2c0-0.1,0-0.3,0-0.3l-3.9-7.4c0,0,0-0.1,0-0.1c0,0,0.1,0,0.1,0.1l4.3,7.1
			c0.1,0.1,0.3,0.2,0.5,0.1h0c0.1-0.1,0.3-0.3,0.1-0.5l-3.9-7.2c-0.1-0.1,0-0.2,0-0.2c0,0,0.1,0.1,0.1,0.1l4.5,7
			c0.3,0.5,0.5,1.1,0.5,1.5c0.1,0.4,0.1,0.8,0,1.2c0,0.1-0.1,0.2-0.1,0.3c-0.1,0.3-0.2,0.5-0.2,0.8c0,0.5,0.1,1,0.4,1.5l0,0.1
			c0.2,0.4,1.1,2.2,3.7,6.6c0,0,0.1,0,0.1,0c-3-5.1-3.8-6.7-3.8-6.7c-0.2-0.4-0.4-1-0.4-1.5c0-0.4,0.2-0.8,0.3-1.1
			c0.1-0.4,0.1-0.8,0-1.3c-0.1-0.5-0.2-1.1-0.5-1.6l-4.5-7c0,0-0.1-0.2-0.2-0.1c0,0-0.2,0.1,0,0.3l3.9,7.2c0.1,0.3-0.1,0.4-0.1,0.4
			c-0.2,0.1-0.4-0.1-0.4-0.1l-4.3-7.1c-0.1-0.2-0.2-0.1-0.2-0.1h0c-0.1,0.1-0.1,0.2-0.1,0.2l3.9,7.4c0,0,0.1,0.2-0.1,0.4
			c0,0-0.3,0.1-0.4-0.1l-4-7.3c0,0-0.1-0.1-0.2-0.1c0,0,0,0,0,0c0,0-0.1,0.1-0.1,0.3l3.5,7.5c0,0,0.1,0.2-0.1,0.4
			c0,0-0.2,0.1-0.4-0.2l-3.9-7.2c-0.1-0.2-0.3-0.1-0.3-0.1c-0.1,0.1,0,0.3,0,0.3l3.3,7.6c0.2,0.5,0.6,0.9,1,1.3
			c0.3,0.3,0.7,0.6,1.2,0.7C53.9,35.6,54.5,35.9,55,36.9z"/>
		<path class="st3" d="M57.2,40.2c0.4,0.9,0.9,1.8,1.4,2.7c0,0.1,0.1,0.2,0.1,0.3c0,0,0.1,0,0.1,0c-0.1-0.1-0.1-0.2-0.2-0.3
			C58.2,42,57.7,41,57.2,40.2c-0.4-0.9-0.8-1.7-1.2-2.3c-0.4-0.7-0.7-1.2-0.9-1.6l0,0c0.2,0.4,0.5,1,0.9,1.6
			C56.3,38.6,56.8,39.4,57.2,40.2z"/>
		<path class="st3" d="M103.5,26.4c-2.3-2.3-5-4.2-8-5.5c-3-1.3-6.3-2-9.6-2c-3.3,0-6.6,0.6-9.7,1.9c-3.1,1.3-5.9,3.1-8.2,5.5
			c-2.3,2.3-4.2,5.1-5.5,8.2c-1.1,2.6-1.7,5.4-1.8,8.1c0.4-0.2,0.9-0.3,1.5-0.3c0.2-2.5,0.8-5,1.7-7.3c1.2-2.9,3-5.5,5.2-7.7
			c4.4-4.4,10.5-7,16.8-7c3.1,0,6.3,0.5,9.2,1.7c2.9,1.2,5.6,2.9,7.9,5.1s4.1,4.8,5.4,7.7c1.2,2.7,1.9,5.7,2.1,8.7c0,0,0,0,0,0
			C110.4,37.2,107.9,31,103.5,26.4z"/>
		<path class="st3" d="M86.5,21.9c-2.6,0.3-5.2,0.9-7.5,2c-2.3,1.1-4.5,2.6-6.3,4.4c-0.4,0.5-0.9,0.9-1.3,1.4
			c-0.4,0.5-0.8,1-1.2,1.5c-0.4,0.5-0.8,1-1.1,1.6c-0.3,0.6-0.7,1.1-1,1.7c-1.2,2.3-2.2,4.7-2.9,7.3c0.2-2.6,0.9-5.3,2-7.7
			c0.3-0.6,0.6-1.2,0.9-1.8c0.3-0.6,0.7-1.1,1.1-1.7c0.4-0.5,0.8-1.1,1.2-1.6c0.4-0.5,0.9-1,1.4-1.5c0.5-0.5,1-0.9,1.5-1.3
			c0.5-0.4,1.1-0.8,1.6-1.2c0.6-0.3,1.2-0.7,1.8-1c0.6-0.3,1.2-0.6,1.9-0.8C81.1,22,83.8,21.6,86.5,21.9z"/>
		<path class="st3" d="M85.5,22.1c-1.6,0.4-3.1,0.9-4.6,1.6c-1.5,0.7-2.9,1.5-4.1,2.5c-2.6,2-4.6,4.5-6.3,7.4c1.3-3,3.4-5.7,6-7.8
			c1.3-1,2.8-1.9,4.3-2.5C82.2,22.6,83.8,22.2,85.5,22.1z"/>
		<path class="st3" d="M88.4,18.6c-0.4,0.4-1,0.7-1.6,0.8c-0.6,0.1-1.3-0.1-1.9-0.5c-0.6-0.4-1-1.1-1.1-1.9
			c-0.1-0.8,0.2-1.6,0.8-2.2c0.6-0.6,1.4-0.9,2.2-0.8c0.8,0.1,1.5,0.5,1.9,1.1c0.4,0.6,0.6,1.3,0.5,1.9S88.9,18.1,88.4,18.6z
			 M88.4,18.6c0.4-0.4,0.6-1,0.6-1.6c-0.1-0.6-0.4-1.1-0.8-1.4c-0.4-0.3-0.9-0.3-1.4-0.3c-0.4,0.1-0.8,0.3-1.1,0.5
			c-0.3,0.3-0.5,0.7-0.6,1.1c-0.1,0.4,0,0.9,0.3,1.4c0.3,0.4,0.8,0.8,1.4,0.8C87.4,19.2,88,19,88.4,18.6z"/>
		<path class="st3" d="M98.4,0c-0.5,0.7-0.9,1.6-1,2.4c-0.1,0.9,0.1,1.8,0.5,2.6c0.7,1.6,1.9,3,2.8,4.6c0.4,0.8,0.7,1.7,0.7,2.6
			c0,0.9-0.4,1.8-0.9,2.6c-1,1.5-2.2,2.9-3.3,4.2c-0.6,0.7-1.1,1.4-1.6,2.1c-0.5,0.7-0.9,1.5-1,2.4c-0.1,0.4,0,0.8,0.1,1.2
			c0.1,0.4,0.3,0.8,0.5,1.1c0.5,0.7,1.2,1.3,1.9,1.8c0.7,0.5,1.5,1.1,2.1,1.8c0.6,0.7,1.1,1.6,1.2,2.5c0.2,1-0.1,1.9-0.5,2.8
			c-0.4,0.8-1,1.6-1.7,2.2l-0.2-0.4c1.6-0.5,3.1-1.2,4.5-2.2c0.7-0.5,1.3-1,1.8-1.6c0.5-0.6,0.8-1.4,0.6-2.2
			c-0.1-0.4-0.2-0.8-0.4-1.1c-0.1-0.2-0.2-0.3-0.3-0.5c-0.1-0.2-0.2-0.4-0.3-0.6c-0.1-0.2-0.2-0.4-0.2-0.7c0-0.2,0.1-0.5,0.2-0.7
			c0.3-0.4,0.7-0.6,1.1-0.8c0.8-0.3,1.6-0.6,2.4-0.9c0.8-0.3,1.5-0.6,2.2-1.1c1.4-0.8,2.6-2.1,3.4-3.5c0.8-1.5,1.4-3.1,1.5-4.7
			c0.1-0.8,0-1.7-0.2-2.5c-0.2-0.8-0.5-1.6-0.4-2.5c0-0.4,0.2-0.9,0.4-1.2c0.2-0.3,0.5-0.7,0.9-0.9c0.6-0.5,1.4-1,2.1-1.4
			c-0.7,0.4-1.4,0.9-2.1,1.5c-0.3,0.3-0.6,0.6-0.8,0.9c-0.2,0.3-0.4,0.7-0.4,1.2c0,0.8,0.3,1.6,0.4,2.5c0.2,0.8,0.3,1.7,0.2,2.5
			c0,0.9-0.2,1.7-0.5,2.5c-0.3,0.8-0.6,1.6-1,2.4c-0.8,1.5-2,2.8-3.5,3.7c-0.7,0.4-1.5,0.8-2.3,1.1c-0.8,0.3-1.6,0.6-2.3,0.9
			c-0.4,0.2-0.7,0.4-0.9,0.7c-0.2,0.3-0.1,0.7,0,1c0.1,0.2,0.2,0.4,0.3,0.5c0.1,0.2,0.2,0.3,0.3,0.5c0.2,0.4,0.4,0.8,0.5,1.3
			c0.2,0.9-0.2,1.8-0.7,2.5c-0.5,0.7-1.2,1.3-1.9,1.8c-1.4,1-3,1.7-4.6,2.2l-1.3,0.4l1-0.9c0.6-0.5,1.2-1.2,1.6-2
			c0.4-0.8,0.6-1.6,0.4-2.4c-0.1-0.8-0.5-1.6-1.1-2.3c-0.6-0.7-1.2-1.2-2-1.7c-0.7-0.5-1.4-1.2-2-1.9c-0.3-0.4-0.5-0.8-0.6-1.3
			c-0.1-0.5-0.2-1-0.1-1.4c0.1-1,0.6-1.8,1-2.6c0.5-0.8,1.1-1.5,1.6-2.2c1.1-1.4,2.3-2.7,3.4-4.2c0.5-0.7,0.9-1.5,0.9-2.4
			c0-0.9-0.2-1.7-0.6-2.5c-0.8-1.6-1.9-3-2.6-4.7c-0.4-0.8-0.6-1.7-0.4-2.6C97.5,1.5,97.9,0.7,98.4,0z"/>
		<path class="st3" d="M106.8,5.7c0.1,0.1,0.2,0.3,0.3,0.4l0.3,0.5c0.2,0.3,0.4,0.6,0.7,0.8c0.3,0.2,0.5,0.4,0.8,0.6l0.9,0.5
			l0.3,0.2l-0.3,0.2l-0.9,0.5c-0.3,0.2-0.5,0.4-0.8,0.6c-0.2,0.2-0.4,0.5-0.6,0.8l-0.5,0.9l-0.2,0.4l-0.2-0.4l-0.5-0.9
			c-0.2-0.3-0.4-0.6-0.6-0.8c-0.2-0.2-0.5-0.4-0.8-0.6l-0.9-0.5l-0.3-0.2l0.3-0.2l0.9-0.5c0.3-0.2,0.6-0.4,0.8-0.6
			c0.3-0.2,0.5-0.5,0.7-0.8l0.3-0.5C106.6,6,106.7,5.8,106.8,5.7z M106.8,5.7c-0.2,0.3-0.3,0.7-0.4,1c-0.2,0.3-0.4,0.6-0.6,0.9
			c-0.3,0.3-0.5,0.5-0.8,0.7c-0.3,0.2-0.6,0.4-0.9,0.5V8.4c0.3,0.2,0.6,0.3,1,0.5c0.3,0.2,0.6,0.4,0.9,0.7c0.3,0.3,0.5,0.6,0.7,0.9
			l0.5,0.9h-0.4l0.5-0.9c0.2-0.3,0.4-0.6,0.7-0.9c0.3-0.3,0.6-0.5,0.9-0.7c0.3-0.2,0.6-0.3,1-0.5v0.3c-0.3-0.2-0.6-0.3-0.9-0.5
			c-0.3-0.2-0.6-0.4-0.8-0.7c-0.2-0.3-0.4-0.6-0.6-0.9C107.1,6.3,107,6,106.8,5.7z"/>
		<path class="st3" d="M108.4,15.8c0.1,0.1,0.2,0.3,0.3,0.4c0.1,0.1,0.2,0.3,0.4,0.4c0.1,0.1,0.3,0.2,0.4,0.3l0.5,0.2l0.3,0.2
			l-0.3,0.2l-0.5,0.3c-0.1,0.1-0.3,0.2-0.4,0.3c-0.1,0.1-0.2,0.3-0.3,0.4l-0.3,0.5l-0.2,0.4l-0.2-0.4l-0.3-0.5
			c-0.1-0.1-0.2-0.3-0.3-0.4c-0.1-0.1-0.2-0.2-0.4-0.3l-0.5-0.3l-0.3-0.2l0.3-0.2l0.5-0.2c0.2-0.1,0.3-0.2,0.4-0.3
			c0.1-0.1,0.3-0.2,0.4-0.4C108.2,16.1,108.3,15.9,108.4,15.8z M108.4,15.8c-0.1,0.2-0.1,0.3-0.2,0.5c-0.1,0.2-0.2,0.3-0.3,0.5
			s-0.3,0.3-0.4,0.4c-0.2,0.1-0.3,0.2-0.5,0.3v-0.3c0.2,0.1,0.3,0.2,0.5,0.3c0.2,0.1,0.3,0.2,0.5,0.4c0.2,0.1,0.3,0.3,0.4,0.5
			l0.3,0.5h-0.4l0.3-0.5c0.1-0.2,0.2-0.3,0.4-0.5c0.2-0.1,0.3-0.3,0.5-0.4c0.2-0.1,0.3-0.2,0.5-0.3v0.3c-0.2-0.1-0.3-0.2-0.5-0.3
			c-0.2-0.1-0.3-0.3-0.4-0.4c-0.1-0.2-0.2-0.3-0.3-0.5C108.6,16.1,108.5,16,108.4,15.8z"/>
		<path class="st3" d="M116.1,45.4c-1.3-0.5-2.7-0.9-4.1-1.4c-0.2-0.1-0.5-0.1-0.7-0.2c-1.9-0.5-3.9-1-6-1.4
			c-1.1-0.2-2.2-0.4-3.3-0.6c-0.8-0.1-1.6-0.3-2.5-0.4c-4.7-0.7-9.8-1-15.1-1c-5.3,0-10.3,0.4-15.1,1c-0.8,0.1-1.6,0.3-2.5,0.4
			c-1.1,0.2-2.2,0.4-3.3,0.6c-1.9,0.4-3.7,0.8-5.5,1.3c-0.2,0.1-0.5,0.1-0.7,0.2c-1.6,0.5-3.2,1-4.6,1.5c1.4-0.8,2.9-1.5,4.7-2.1
			c0.2-0.1,0.4-0.2,0.7-0.3c1.7-0.6,3.6-1.2,5.7-1.6c1.1-0.3,2.2-0.5,3.4-0.7c0.8-0.2,1.7-0.3,2.6-0.4c4.5-0.7,9.5-1.1,14.7-1.1
			c5.2,0,10.2,0.4,14.7,1.1c0.9,0.1,1.7,0.3,2.6,0.4c1.2,0.2,2.3,0.5,3.4,0.7c2.2,0.5,4.3,1.2,6.2,1.8c0.2,0.1,0.4,0.2,0.7,0.3
			C113.5,44.1,114.9,44.7,116.1,45.4z"/>
		<path class="st3" d="M40.1,36.3c0.5-0.3,1.2-0.7,1.8-0.9c2.8-1.2,5.9-0.8,7.4,1.6c0.5,0.8,0.7,2.1-0.9,2.6c0-2.7-2.2-5.4-5.3-4
			c-0.7,0.3-1.3,0.7-1.8,1.2c4.8,1.9,7.7,5.8,3.9,9.1c-1.1,0.9-3.5,1.7-6.4,2c6.3,1.7,7.1,7.3,3.8,10.6c-4.1,4.1-11.2,5-17.5,1.6
			c-2.6,2.3-5.7,4.1-8.9,5.2c-0.9,0.3-1.8,0.5-2.7,0.8c3.9,6.3,12.1,6.5,16.2,2c0.5-0.6,0.7-0.3,0.3,0.2c-4.3,5-13.2,4.9-18.1-1.8
			C7.4,66.9,3.1,66.2,0.5,63c-0.7-0.8-1-2.2,0.6-2.8c1.3,4.9,5.8,6,10.2,5.3c-0.9-1.4-1.7-3.1-2.2-5c-5.9-0.3-7.5-6-6.2-10.9
			C5.6,40.2,14.6,35,24.5,34.2C29.7,33.9,35.2,34.6,40.1,36.3z M13.1,65.2c0.9-0.2,1.8-0.5,2.7-0.8c7.1-2.8,10.2-8.2,14.4-15.6
			l1.8-3.1c1.9-3.2,4.2-6.8,7.4-9c-4.6-1.6-9.9-2.2-14.8-1.7c-9,0.9-17.1,7.6-18.6,15.8c-0.7,3.5-0.3,7.6,3,8.7
			c-0.2-0.8-0.3-1.6-0.3-2.5c-0.2-3.5,1.5-9.5,5.5-13.6c7.8-7.8,15.3-4.7,11.4,4.9c-1.8,4.6-5.8,9.6-11.2,11.3c-1,0.3-2,0.6-2.9,0.7
			C11.8,62.3,12.3,63.9,13.1,65.2z M11.4,59.8c0.5,0,1.1-0.1,1.7-0.3c6.4-1.6,10.1-7.1,11.8-11.1c3.2-7.5-1-11.7-7.7-4.5
			C13,48.2,10.8,54.9,11.4,59.8z M34,47.9l-1.8,3.3c-1.7,3-4,5.9-6.6,8.3c5.5,2.9,12.1,2.1,14.9-3C42.5,52.7,41.1,47.8,34,47.9z
			 M40.6,37.2c-1.7,1.6-2.9,3.9-4.1,6.1l-2,3.8c4.3,0.4,7.3-1,8.6-2.3C45.3,42,44.6,38.8,40.6,37.2z"/>
		<path class="st3" d="M57.5,49.6c1.3-2,2.5-2.3,4.5-2.3l-5.8,10.6c-1.4,2.5,0.6,1.5,2.3,0.3c1.5-1.1,3.4-3.3,4.7-5.5
			c0.2-0.3,0.5-0.1,0.3,0.2c-2.7,4.5-6.4,7.6-8.8,7.6c-1,0-1.8-0.9-1.3-2.9c-1.5,1.8-3.2,2.9-4.7,2.9c-2.9-0.1-2.7-3.6-1-6.7
			c1.5-2.8,5.2-7.3,8.5-6.7C57.3,47.3,57.7,48.2,57.5,49.6z M50.9,53.7c-1.9,3.4-2.5,5.8-1,5.8c1.1,0,3.4-2.5,5.3-5.8
			s2.3-5.7,1.1-5.7C55.3,48.1,52.8,50.3,50.9,53.7z"/>
		<path class="st3" d="M77.3,52.8c-2.7,4.5-6.4,7.6-8.8,7.6c-1.3,0-2.4-1.5-0.5-5l3.2-5.8c1.3-2.3-0.4-1.8-2.4-0.2
			c-1,0.8-2.1,2-3,3.3l-4.1,7.4c-1.2,0-2.7-0.8-1.4-3.3l5.3-9.6c1.2,0,2.6,0.8,1.5,3c1.7-1.7,3.9-3.2,5.5-3.2c1.2,0,2.4,1.5,0.5,5
			l-3.2,5.8c-1.4,2.5,0.6,1.5,2.3,0.3c1.5-1.1,3.5-3.3,4.7-5.5C77.2,52.3,77.5,52.5,77.3,52.8z"/>
		<path class="st3" d="M71.3,75.1l9.5-17.1c-1.6,1.7-2.9,2.5-4.2,2.4c-2.9-0.3-2.7-3.6-1-6.7c1.5-2.8,5.2-7.3,8.5-6.7
			c1.1,0.2,1.5,1.1,1.3,2.5c1.3-2,2.5-2.3,4.5-2.3L73.8,76.6c3-3,7.5-7.3,11.3-10.8c0.3-0.3,0.5,0,0.3,0.3c-5,4.9-8.9,8.5-12.6,12.6
			C71.6,78.1,69.9,77.6,71.3,75.1z M78.8,53.7c-1.9,3.4-2.5,5.8-1,5.8c1.1,0,3.4-2.5,5.3-5.8c1.9-3.4,2.3-5.7,1.1-5.7
			C83.2,48.1,80.7,50.3,78.8,53.7z"/>
		<path class="st3" d="M89,60.4c-1.2,0-2.4-1.5-0.5-5l4.5-8.1c1.2,0,2.7,0.8,1.3,3.2l-4.1,7.3c-1.3,2.4,0.6,1.6,2.6,0
			c1-0.8,2.2-1.9,3.1-3.2l2.5-4.5c1.3-2.4,2.5-2.7,4.6-2.7l-5.8,10.6c-1.4,2.5,0.6,1.5,2.3,0.3c1.5-1.1,3.5-3.3,4.7-5.5
			c0.2-0.3,0.5-0.1,0.3,0.2c-2.7,4.5-6.4,7.6-8.8,7.6c-1,0-2-1.1-1-3.6C93.1,58.6,90.5,60.4,89,60.4z"/>
		<path class="st3" d="M111.7,47.1c2.2,0,3.9,1.4,2.3,3.8c-1.4,2.2-5.5,3.5-9,4.1c-0.8,1.8-0.8,3.5,0.3,4.2c1.8,1.1,4.5,0.2,6.7-1.4
			c1.7-1.4,3.2-3,4.5-5.1c0.2-0.3,0.5-0.1,0.3,0.2c-1.2,2-2.6,3.9-4.6,5.4c-2.2,1.7-4.8,2.8-7.7,2c-2.1-0.5-3.6-3-2-6.6
			C104.2,50.1,107.7,47.1,111.7,47.1z M106.4,52.6c-0.4,0.7-0.8,1.3-1.1,2c2.5-0.5,4.6-1.9,6-4.1c1-1.6,1-2.8,0.1-2.8
			C110.3,47.6,108.1,49.7,106.4,52.6z"/>
		<path class="st3" d="M119.4,47.3c4.5-8,10.8-16.6,18.8-19.5c5.7-2,10.8-2.2,14.2,2c0.7,0.8,1,2.3-0.6,2.8
			c-1.7-6.6-7.9-6.4-13.3-4.3c-6.7,2.6-11.9,11.8-15.9,19h3.2c0.5,0,0.3,0.6-0.3,0.6h-3.3l-4.4,8c-1,1.8-1.4,3.1-0.7,3.3
			c0.7,0.3,1.5,0,2.5-0.5c2.5-1.2,4.8-3.7,6.3-6.2c0.2-0.3,0.5-0.1,0.3,0.2c-1.6,2.7-3.6,5-6.3,6.6c-4.2,2.5-7.6,0.7-4.1-5.6
			l3.2-5.8h-2c-0.5,0-0.4-0.6,0.2-0.6L119.4,47.3L119.4,47.3z"/>
	</g>
</g>
<path class="st4" d="M101.3,33.1c5.7-2,9.5,3.7,13.9,2.4c-4.4-3.8-7.2-9.4-7.3-15.7v0c0,0,0,0,0-0.1c0-0.2-0.2-0.4-0.4-0.4
	c-0.1,0-0.2,0-0.2,0.1l0,0c-2.2,1.6-3.7,4-4.2,6.8l0,0.1c-1.6-1.1-3.6-1.7-5.7-1.7c-1.4,0-2.7,0.3-3.8,0.7l0.1,0
	c3,2.1,5.6,4.7,7.6,7.7L101.3,33.1L101.3,33.1z M94.9,15.5c-2.9,0.2-5.5,1.2-7.5,2.9l0,0c0.9-2.6,2.1-4.8,3.4-6.8l-0.1,0.1
	c-3.6,0.3-6.7,1.8-9.1,4.1l0,0l-1.8-4.7l3.9-3.5l-5.3-0.4l-2.1-4.9l-2.1,4.9l-5.3,0.4l3.9,3.5l-1.8,4.7c-2.4-2.3-5.5-3.8-9-4.1l0,0
	c1.3,1.9,2.5,4.2,3.3,6.5l0.1,0.2c-2-1.7-4.6-2.7-7.5-2.9l0,0c1.7,2.1,3.2,4.5,4.4,7l0.1,0.2c0.1,0.2,0.2,0.3,0.5,0.3
	c0.1,0,0.2,0,0.3-0.1h0c3.9-2,8.4-3.1,13.3-3.1c4.8,0,9.4,1.1,13.4,3.2L89.8,23c0.1,0,0.2,0.1,0.3,0.1c0.2,0,0.4-0.1,0.4-0.3v0
	C91.8,20,93.2,17.6,94.9,15.5L94.9,15.5L94.9,15.5z M69.5,29.5c0.6-0.4,1.4-0.6,2.2-0.6c0.7,0,1.4,0.2,2,0.5l0,0
	c0.1-0.8-1.4-1.8-2.9-1.8c-1.1,0-1.6,0.4-1.6,0.9C69,28.9,69.2,29.3,69.5,29.5L69.5,29.5z M82.4,27.6c0,0-0.1,0-0.1,0
	c-1,0-1.8,0.4-2.4,1l0,0c0,0.1,0,0.2,0,0.3c0,0.1,0,0.3,0.1,0.4l0,0c1.6-0.6,3-0.6,3.7,0.2c0.3-0.2,0.5-0.6,0.5-1l0,0
	C84,28,83.5,27.6,82.4,27.6z M76.5,21.7c-0.1,0-0.3,0-0.5,0c-3.2,0-6,2-7.1,4.8l0,0.1c-0.1,0.2,0,0.3,0.3,0.2
	c0.6-0.3,1.4-0.4,2.2-0.4c0,0,0.1,0,0.1,0h0c0.1,0,0.1,0,0.2,0c1.4,0,2.6,0.6,3.4,1.5l0,0c0.2,0.6,0.3,1.2,0.3,1.8
	c0,0.7-0.1,1.3-0.3,1.9l0,0c-0.6-0.1-0.8-0.6-1.5-0.6c-0.6,0-1.1,0.4-2.1,0.4c-1,0-1.1-0.5-1.8-0.5c-0.8,0-0.9,0.8-0.9,1.7
	c0,4.1,3.8,9.8,7.8,9.8c4,0,7.8-5.7,7.8-9.8c0-0.9-0.2-1.7-1-1.8c-0.4,0.4-1,0.6-1.6,0.6c-0.1,0-0.1,0-0.2,0h0c-1,0-1.3-0.4-1.9-0.4
	c-0.7,0-0.7,1.5-1.5,1.6c-0.3-0.8-0.5-1.6-0.5-2.6c0-0.8,0.1-1.5,0.4-2.3l0,0.1c0.8-0.9,2.1-1.5,3.4-1.5c0.1,0,0.1,0,0.2,0h0
	c0,0,0.1,0,0.1,0c0.8,0,1.5,0.2,2.2,0.5l0,0c0.2,0.1,0.3,0,0.3-0.2c-1.2-2.8-3.9-4.8-7.1-4.8C76.8,21.7,76.6,21.7,76.5,21.7
	L76.5,21.7L76.5,21.7z M59.4,25.3c-1.1-0.4-2.4-0.7-3.8-0.7c-2.1,0-4.1,0.6-5.8,1.8l0,0c-0.4-2.8-2-5.2-4.1-6.8l0,0
	c-0.1-0.1-0.1-0.1-0.2-0.1c-0.2,0-0.4,0.2-0.4,0.4c0,0,0,0,0,0.1v0c-0.1,6.3-2.9,11.8-7.3,15.7l0,0c4.4,1.3,8.2-4.4,13.9-2.4
	C53.8,30,56.4,27.4,59.4,25.3L59.4,25.3L59.4,25.3z M116.3,42c0,0.9-0.1,1.9-0.3,2.8c-4.5,0.7-6.1-3.3-10.7-3.1
	c0.2,0.8,0.5,1.8,0.6,2.8l0,0.2c3.8,0,5.3,3.6,9.6,3c-0.2,1.1-0.5,2.2-0.8,3.2c-3.3,0.3-4.5-3-8.4-2.9c0,0.6,0,1.1,0,1.7l0,0.9
	l7.5,2.9c-0.4,1.1-0.8,2.1-1.3,3.1c-2.3-0.1-3-3-6.5-2.8c-0.1,0.7-0.2,1.5-0.4,2.2c3-0.2,3.6,2.5,5.8,2.8c-0.5,1-1.1,2-1.8,2.9
	c-1.3-0.7-2.4-2.7-4.8-2.9c0.2-0.8,0.5-1.5,0.6-2.3c-2.6-0.1-4.9-1.1-6.6-2.7l0,0c0.7-3.8-5.2-7.6-5.2-10.4c0-3,1.5-4.7,1.5-8.7
	c-0.1-3.3-1.5-6.3-3.7-8.5l0,0c-0.4-0.4-0.8-0.8-1.3-1.1l0,0c2.1,2.4,3.4,5.5,3.6,8.9v0c0,3.8-1.8,5.8-1.8,9.3s5.2,6.6,5.2,10.2
	c-0.2,2.1-0.9,4-2,5.6l0,0c1.9,2,4.4,3.3,7.2,3.6l0.1,0c0,0,0.1,0,0.2,0c0.5,0,0.9-0.3,1-0.7l0,0c0.2-0.4,0.4-0.9,0.6-1.3
	c2.1,0.1,3.1,2,4.2,2.7c-0.6,0.9-1.3,1.7-2,2.5c-0.8-1.2-2-2.1-3.3-2.7l-0.1,0c-0.3,0.5-0.6,1.1-0.9,1.6c1.2,0.6,2.2,1.4,2.9,2.5
	l0,0c-0.8,0.8-1.5,1.5-2.3,2.2c-0.6-0.9-1.3-1.7-2.2-2.3l0,0c-0.3,0.4-0.7,0.9-1,1.3c0.8,0.6,1.4,1.3,1.8,2.1l0,0
	c-0.9,0.8-1.9,1.5-2.9,2.1c-0.5-4-6-6.8-4.5-11.5c-0.6,0.9-1,1.9-1.1,3.1v0c0,3.4,3.6,6.1,3.9,9.5c-0.7,0.4-1.5,0.9-2.3,1.3
	c-0.1-3.7-4-7.8-4-10.8c0-3.4,4.5-6.8,4.5-10.8c0-4-5.1-6.8-5.1-10.3s2.2-5.5,2.2-10.1c-0.1-3.5-1.6-6.6-4-8.8l0,0
	c-0.4-0.4-0.8-0.7-1.3-0.9l0,0c2.2,2.3,3.6,5.5,3.6,9c0,0,0,0,0,0l0,0c0,4.2-2.5,6.6-2.5,10.8s5,6.5,5,10.3s-4.7,7.1-4.7,11.1
	c0,3.6,4.1,7.2,4.2,11.5c-0.9,0.4-1.8,0.8-2.8,1.1c0.5-4.3-4.1-8.8-4.1-12.4c0-3.9,4.9-7.2,4.9-11.4c0-4.2-4.9-6.1-4.9-10.4
	c0-4.3,3-6.7,3-11.4c0-3.7-1.8-6.9-4.5-9l0,0l-0.2-0.1c-0.2-0.2-0.5,0-0.3,0.3c1.8,2.1,2.9,4.9,2.9,7.9c0,0.1,0,0.3,0,0.4v0
	c0,4.3-3.5,7.9-3.5,12c0,5,4.7,6.4,4.7,10.4s-5,7.3-5,11.6c0,4,4.8,8.4,3.9,13.1c-1,0.2-1.9,0.5-2.9,0.6c0.9-5.7-3.8-9.9-3.8-13.6
	c0-4.1,5.2-7.7,5.2-11.7c0-3.8-3.7-5-4.2-8.8c0-0.5-0.4-0.8-0.9-0.8c-0.1,0-0.1,0-0.2,0h0c-1,0.3-2.1,0.6-3.2,0.6l0,0
	c-1.2-0.1-2.3-0.3-3.3-0.7l0.1,0c-0.1,0-0.1,0-0.2,0c-0.5,0-0.9,0.4-0.9,0.8v0c-0.5,3.8-4.2,5.1-4.2,8.8c0,4,5.2,7.6,5.2,11.7
	c0,3.8-4.7,7.9-3.8,13.6c-1-0.2-1.9-0.4-2.9-0.6c-0.8-4.6,3.9-9.1,3.9-13.1c0-4.3-5-7.6-5-11.6s4.7-5.5,4.7-10.4
	c0-4.2-3.5-7.7-3.5-12c0-0.1,0-0.2,0-0.4c0-3,1.1-5.8,2.9-7.9l0,0c0.2-0.2,0-0.4-0.3-0.3L69,22.8c-2.7,2.1-4.5,5.4-4.5,9.1v0
	c0,4.7,3,7.1,3,11.4s-4.9,6.2-4.9,10.4c0,4.2,4.9,7.5,4.9,11.4c0,3.5-4.7,8-4.1,12.4c-0.9-0.3-1.9-0.7-2.8-1.1
	c0.1-4.3,4.2-7.9,4.2-11.5c0-4-4.7-7.2-4.7-11.1s5-6.2,5-10.3c0-4.2-2.5-6.5-2.5-10.8c0,0,0,0,0,0c0-3.5,1.4-6.7,3.6-9l0,0
	c-0.5,0.3-1,0.6-1.4,0.9l0,0c-2.4,2.2-3.9,5.3-4,8.8v0c0,4.5,2.2,6.5,2.2,10.1c0,3.5-5.1,6.3-5.1,10.3c0,4,4.5,7.4,4.5,10.8
	c0,3-3.8,7.1-4,10.8c-0.8-0.4-1.5-0.8-2.3-1.3c0.3-3.4,3.9-6.1,3.9-9.5c-0.1-1.2-0.5-2.2-1.1-3.1l0,0c1.5,4.7-4,7.5-4.5,11.5
	c-1-0.7-2-1.4-2.9-2.1c0.5-0.9,1.1-1.6,1.8-2.2l0,0c-0.4-0.4-0.7-0.9-1-1.3c-0.9,0.6-1.6,1.4-2.2,2.3l0,0c-0.8-0.7-1.6-1.5-2.3-2.2
	c0.7-1.1,1.7-2,2.9-2.5l0,0c-0.3-0.5-0.6-1-0.9-1.6c-1.4,0.6-2.5,1.5-3.3,2.7l0,0c-0.7-0.8-1.4-1.6-2-2.5c1.2-0.8,2.1-2.7,4.2-2.7
	c0.2,0.4,0.4,0.9,0.6,1.3c0.2,0.4,0.6,0.7,1,0.7c0.1,0,0.1,0,0.2,0h0c2.9-0.3,5.4-1.6,7.3-3.6l0,0c-1.1-1.6-1.8-3.5-2-5.5l0,0
	C55.8,50,61,47,61,43.5c0-3.5-1.8-5.5-1.8-9.3c0.1-3.4,1.5-6.5,3.6-8.9l0,0c-0.5,0.3-1,0.7-1.4,1.1l0,0c-2.2,2.2-3.5,5.2-3.7,8.5v0
	c0,4.1,1.5,5.7,1.5,8.7c0,2.8-5.9,6.6-5.2,10.4c-1.7,1.6-4.1,2.6-6.6,2.7h0c0.2,0.8,0.4,1.6,0.6,2.3c-2.4,0.1-3.5,2.2-4.8,2.9
	c-0.6-0.9-1.2-1.9-1.8-2.9c2.1-0.2,2.8-3,5.8-2.8c-0.2-0.7-0.3-1.5-0.4-2.2c-3.4-0.2-4.2,2.7-6.5,2.8c-0.5-1-0.9-2.1-1.3-3.1
	l7.5-2.9l0-0.9c0-0.6,0-1.1,0-1.7c-3.9-0.1-5.1,3.2-8.4,2.9c-0.3-1.1-0.6-2.1-0.8-3.2c4.2,0.5,5.8-3,9.6-3c0.2-1.2,0.4-2.2,0.7-3.2
	l-0.1,0.2c-4.6-0.2-6.2,3.8-10.7,3.1c-0.1-0.9-0.2-1.9-0.3-2.8c5.2,0.6,7.2-3.7,12-3.2c0.5-1.3,1-2.4,1.6-3.4l-0.1,0.1
	c-6-1.1-8,3.9-13.6,3.2C37.3,17.2,54.9,0,76.5,0s39.2,17.2,39.8,38.6v0.1c-5.6,0.8-7.6-4.2-13.6-3.2c0.5,0.9,1,2,1.5,3.1l0.1,0.2
	C109.1,38.3,111,42.6,116.3,42L116.3,42z M76.5,34.5c-0.5,0-0.6-0.2-0.9-0.2c-0.4,0-0.8,0.2-1.1,0.5l0,0c0,0.1,0.1,0.2,0.1,0.3l0,0
	c0.7,0.1,1,0.5,1.8,0.5s1.1-0.4,1.8-0.5c0.1-0.1,0.1-0.2,0.1-0.3v0c-0.3-0.3-0.6-0.5-1.1-0.5h0C77.1,34.3,77,34.5,76.5,34.5
	L76.5,34.5z M73.6,36.9c-0.1,0-0.2,0.1-0.3,0.3v0c0.8,0.6,1.4,2.1,3.2,2.1s2.3-1.5,3.2-2.1c0-0.1-0.1-0.2-0.3-0.3h0
	c-0.8,0.2-1.7,0.3-2.7,0.3c-0.1,0-0.2,0-0.2,0h0c-0.1,0-0.1,0-0.2,0C75.3,37.2,74.4,37.1,73.6,36.9L73.6,36.9L73.6,36.9z M80.5,17.2
	c-1.2-0.2-2.6-0.3-4-0.3s-2.8,0.1-4.1,0.4l0.1,0c-0.2,0-0.3-0.2-0.1-0.3c0.1-0.1,4.1-3.1,4.1-3.1l4.1,3.1
	C80.8,17.1,80.7,17.3,80.5,17.2z"/>
</svg>
