<?xml version="1.0" encoding="utf-8"?>
<!-- Generator: Adobe Illustrator 27.0.0, SVG Export Plug-In . SVG Version: 6.00 Build 0)  -->
<svg version="1.1" id="Layer_1" xmlns="http://www.w3.org/2000/svg" xmlns:xlink="http://www.w3.org/1999/xlink" x="0px" y="0px"
	 viewBox="0 0 119 36" style="enable-background:new 0 0 119 36;" xml:space="preserve">
<style type="text/css">
	.st0{display:none;}
	.st1{display:inline;fill:#C8C8C8;}
	.st2{display:inline;fill:#4D4D4D;}
	.st3{display:inline;fill:#9C8F8F;}
	.st4{fill:#C0C0C0;}
</style>
<g class="st0">
	<path class="st1" d="M15.6,2.2v16.8c0,5-3,8.1-7.8,8.1C3,27,0,24,0,18.9V2.2c0-5,3-8.1,7.8-8.1C12.6-5.9,15.6-2.9,15.6,2.2z
		 M4.8,2.2v16.7c0,2.4,1.1,3.7,3,3.7c1.9,0,3-1.3,3-3.7V2.2c0-2.4-1.1-3.7-3-3.7C5.9-1.5,4.8-0.2,4.8,2.2z"/>
	<path class="st1" d="M32.3,26.6L28.5,13h-2.2v13.5h-4.8v-32h7c5.2,0,8,2.9,8,8.1v2.3c0,3.4-1.2,5.8-3.4,7l4.5,14.6L32.3,26.6
		L32.3,26.6z M26.3-1v9.5h2c2.3,0,3.4-1.2,3.4-3.9V2.9c0-2.7-1.1-3.9-3.4-3.9H26.3z"/>
	<path class="st1" d="M57.6,26.6h-4.9l-1.1-7.3h-5.3l-1.1,7.3h-4.8l5.5-32h6.2L57.6,26.6z M48.9,1.4l-2,13.5H51L48.9,1.4L48.9,1.4z"
		/>
	<path class="st1" d="M78.1,26.6h-4.7L67,5.3h-0.1v21.2h-4.6v-32h5.4l5.7,19.1h0.1V-5.5h4.6V26.6z"/>
	<path class="st1" d="M99.1,1.8v2.2l-4.7,0.2V2.2c0-2.6-1-3.7-2.9-3.7c-1.9,0-2.9,1.2-2.9,3.2v17.5c0,2.1,0.9,3.2,2.8,3.2
		c1.9,0,2.8-1.2,2.8-3.7v-5.5h-2.8V8.8h7.5v10.5c0,4.8-2.8,7.7-7.7,7.7c-4.8,0-7.6-2.9-7.6-7.7V1.7c0-4.8,2.8-7.7,7.6-7.7
		C96.3-5.9,99.1-3.1,99.1,1.8z"/>
	<path class="st1" d="M118.5-1h-8.8V8h7.1v4.5h-7.1V22h8.8v4.5h-13.6v-32h13.6V-1z"/>
	<path class="st2" d="M16.6,35v0.8l-1.2,0v-0.7c0-0.7-0.2-1-0.7-1S14,34.5,14,35.1v4.6c0,0.5,0.2,0.9,0.7,0.9s0.7-0.3,0.7-1v-0.9
		l1.2,0v1c0,1.3-0.7,2-2,2s-2-0.7-2-2v-4.7c0-1.3,0.7-2,2-2C15.9,33,16.6,33.8,16.6,35z"/>
	<path class="st2" d="M24.2,41.6h-1.3l-0.3-1.9h-1.4L21,41.6h-1.3l1.5-8.4h1.6L24.2,41.6z M22,34.9l-0.5,3.6h1.1L22,34.9z"/>
	<path class="st2" d="M31.1,34.3h-2.3v2.4h1.8v1.2h-1.8v3.7h-1.3V33h3.5V34.3z"/>
	<path class="st2" d="M37.9,34.3h-2.3v2.4h1.9v1.2h-1.9v2.5h2.3v1.2h-3.6V33h3.6V34.3z"/>
	<path class="st2" d="M49.7,34.8L49.7,34.8c0,0.8-0.3,1.4-1.3,2.4l0.9,1.4v-1.3l1.1,0v1.4c0,0.5,0,0.9-0.2,1.3l1,1.6h-1.5l-0.2-0.4
		c-0.3,0.3-0.8,0.5-1.5,0.5c-1.3,0-2.1-0.7-2.1-2.1v-0.3c0-0.8,0.2-1.4,0.9-2.2c-0.6-1-0.8-1.5-0.8-2.2v0c0-1.2,0.6-1.9,1.8-1.9
		S49.7,33.7,49.7,34.8z M47.5,38.2c-0.2,0.4-0.3,0.8-0.3,1.1v0.2c0,0.7,0.3,1,0.9,1c0.3,0,0.5-0.1,0.7-0.3L47.5,38.2z M47.3,34.9
		L47.3,34.9c0,0.4,0.1,0.7,0.4,1.3c0.5-0.6,0.7-0.9,0.7-1.3v0c0-0.4-0.2-0.7-0.6-0.7C47.5,34.2,47.3,34.4,47.3,34.9z"/>
	<path class="st2" d="M61.7,36.5l1.8,5.1h-1.4l-1.3-3.7L60.4,39v2.6h-1.3v-8.4h1.3v3.5l1.8-3.5h1.4L61.7,36.5z"/>
	<path class="st2" d="M68,41.6h-1.3v-8.4H68V41.6z"/>
	<path class="st2" d="M75.2,34.4h-1.4v7.2h-1.3v-7.2h-1.4v-1.2h4V34.4z"/>
	<path class="st2" d="M82.2,35v0.8l-1.2,0v-0.7c0-0.7-0.2-1-0.7-1c-0.5,0-0.7,0.3-0.7,0.9v4.6c0,0.5,0.2,0.9,0.7,0.9
		c0.5,0,0.7-0.3,0.7-1v-0.9l1.2,0v1c0,1.3-0.7,2-2,2s-2-0.7-2-2v-4.7c0-1.3,0.7-2,2-2C81.5,33,82.2,33.8,82.2,35z"/>
	<path class="st2" d="M89.8,41.6h-1.3v-3.7H87v3.7h-1.3v-8.4H87v3.6h1.5v-3.6h1.3L89.8,41.6L89.8,41.6z"/>
	<path class="st2" d="M97.2,34.3h-2.3v2.4h1.9v1.2h-1.9v2.5h2.3v1.2h-3.6V33h3.6V34.3z"/>
	<path class="st2" d="M104.9,41.6h-1.3l-1.7-5.6v5.6h-1.2v-8.4h1.4l1.5,5v-5h1.2L104.9,41.6L104.9,41.6z"/>
	<path class="st3" d="M9.9,40.4v-6.2H3.8l1.8,3.1l-1.8,3.1H9.9z"/>
	<path class="st3" d="M108.5,34.3v6.2h6.1l-1.8-3.1l1.8-3.1H108.5z"/>
</g>
<path class="st4" d="M96.3,4c-15.6,0-19.5,8.8-20.2,14.8C75.4,25.4,80.1,32,91.5,32c4.8,0,8-0.8,9.1-1.2c0.3-0.1,0.5-0.3,0.5-0.6
	l0.6-3.4c0.1-0.4-0.2-0.7-0.5-0.8c-0.1,0-0.2,0-0.3,0c-1.2,0.4-3.5,0.9-6.3,0.9c-5.5,0-9.4-3.3-8.9-8.9c0.5-5.5,4.2-9.6,9.2-9.6
	c3,0,4.4,1.6,4.3,3.7v0.1c0,0.4,0.3,0.7,0.6,0.7c0,0,0,0,0,0h2.1c0.3,0,0.6-0.2,0.7-0.5l1.5-6.5c0.1-0.4-0.1-0.8-0.6-0.9
	C101.2,4.3,98.7,4,96.3,4L96.3,4z M21.3,4.4c-0.3,0-0.6,0.2-0.7,0.6l-0.4,1.8c-0.1,0.4,0.1,0.7,0.5,0.9l0.1,0c0.8,0.3,1.7,1,1.3,2.8
	l-2.9,13.5c-0.8,3.7-2,4.4-3.2,4.6h0c-0.3,0-0.6,0.3-0.7,0.6l-0.4,1.7c-0.1,0.4,0.2,0.8,0.5,0.9c0,0,0.1,0,0.2,0h13
	c0.3,0,0.6-0.2,0.7-0.5l0.4-2c0.1-0.3-0.1-0.7-0.4-0.8l-0.1,0c-0.7-0.3-1.6-0.8-1.3-1.9l1.5-6.9c5.2,9.4,6.9,12.1,13.1,12.1H48
	c0.3,0,0.6-0.2,0.7-0.5l0.4-1.7c0.1-0.4-0.2-0.8-0.5-0.9c0,0-0.1,0-0.1,0c-1.4,0-2.1-0.3-3.5-2.1l-7.2-9.7L47,8.9
	c1.3-1,2.8-1.3,3.6-1.4l0.1,0c0.3,0,0.5-0.2,0.6-0.5l0.4-1.7c0.1-0.4-0.2-0.7-0.5-0.8c0,0-0.1,0-0.1,0H39.8c-0.3,0-0.6,0.2-0.7,0.6
	l-0.4,1.7c-0.1,0.4,0.1,0.8,0.5,0.9c0.7,0.3,0.8,0.9,0.2,1.4l-9.6,8l1.6-7.5c0.2-0.9,0.9-1.6,1.8-1.8l0.1,0c0.3-0.1,0.4-0.3,0.5-0.5
	l0.4-1.8c0.1-0.4-0.1-0.7-0.5-0.8c0,0-0.1,0-0.1,0L21.3,4.4z M54.4,4.4c-0.3,0-0.6,0.2-0.7,0.6l-0.4,1.8c-0.1,0.3,0.1,0.7,0.5,0.8
	l0.1,0c0.8,0.3,1.8,1,1.4,2.8l-4.5,20.4c-0.1,0.4,0.1,0.7,0.5,0.8c0,0,0.1,0,0.2,0h10.3c0.3,0,0.6-0.2,0.7-0.5l0.4-2
	c0.1-0.3-0.1-0.6-0.4-0.7c0,0-0.1,0-0.1,0c-0.7-0.3-1.6-1.1-1.3-2.5c0-0.2,1-4.6,1-4.6h8.8c0.3,0,0.6-0.2,0.7-0.5l0.8-3.7
	c0.1-0.4-0.1-0.7-0.5-0.8c-0.1,0-0.1,0-0.2,0h-8.5l1.6-7.2l5.9,0c1.9,0,2.5,1,2.4,2.7l0,0.1c0,0.4,0.2,0.7,0.6,0.8c0,0,0.1,0,0.1,0
	h2.2c0.3,0,0.6-0.2,0.7-0.5L78,5.2c0.1-0.4-0.2-0.7-0.5-0.8c0,0-0.1,0-0.1,0H54.4z"/>
</svg>
