<?xml version="1.0" encoding="utf-8"?>
<!-- Generator: Adobe Illustrator 27.0.0, SVG Export Plug-In . SVG Version: 6.00 Build 0)  -->
<svg version="1.1" id="Layer_1" xmlns="http://www.w3.org/2000/svg" xmlns:xlink="http://www.w3.org/1999/xlink" x="0px" y="0px"
	 viewBox="0 0 125 54.8" style="enable-background:new 0 0 125 54.8;" xml:space="preserve">
<style type="text/css">
	.st0{display:none;}
	.st1{display:inline;}
	.st2{display:inline;clip-path:url(#SVGID_00000112631558216957434390000013078954497078591895_);}
	.st3{fill:#9F9C9C;}
	.st4{fill:#C0C0C0;}
</style>
<g class="st0">
	<defs>
		<rect id="SVGID_1_" y="-9.1" width="125" height="72.2"/>
	</defs>
	<clipPath id="SVGID_00000130614661809126436780000009923092431342351020_" class="st1">
		<use xlink:href="#SVGID_1_"  style="overflow:visible;"/>
	</clipPath>
	<g style="display:inline;clip-path:url(#SVGID_00000130614661809126436780000009923092431342351020_);">
		<path class="st3" d="M25.3,49.4c0.1,0,0.2,0,0.2,0.1c0,0.1,0,0.2,0,0.3c-0.1,0.1-0.3,0.3-0.5,0.6c-0.2,0.2-0.5,0.5-0.9,0.7
			c-0.4,0.2-0.8,0.4-1.2,0.6c-0.5,0.2-1,0.3-1.5,0.4c-1,0.1-2-0.1-2.9-0.9s-1.8-1.7-2.6-2.8c-0.8-1.1-1.5-2.3-2.2-3.5
			c-0.7-1.2-1.2-2.3-1.7-3.1c-0.3,0.9-0.7,1.8-1,2.7c-0.3,0.9-0.6,1.7-0.8,2.5c-0.2,0.8-0.4,1.5-0.6,2.2c-0.1,0.7-0.2,1.3-0.2,1.8
			c0,0.1-0.1,0.2-0.2,0.3c-0.1,0.1-0.3,0.1-0.5,0.1c-0.2,0-0.5-0.1-0.9-0.2c-0.3-0.1-0.6-0.3-1-0.6c-0.3-0.2-0.6-0.5-0.8-0.8
			C6.1,49.5,6,49.3,6,49c0-0.4,0.2-1.2,0.6-2.3C7,45.6,7.5,44.4,8.1,43c0.6-1.4,1.3-2.9,2-4.4c0.7-1.5,1.4-3,2-4.5
			c0.6-1.4,1.1-2.7,1.5-3.9c0.4-1.1,0.6-2,0.6-2.6c0-0.2,0-0.3,0.1-0.4c0.1,0,0.2-0.1,0.3-0.1c0.2,0,0.4,0.1,0.6,0.2
			c0.2,0.1,0.5,0.3,0.7,0.5s0.4,0.4,0.6,0.6c0.2,0.2,0.2,0.4,0.2,0.5c0,0.3-0.1,0.8-0.3,1.5c-0.2,0.7-0.5,1.4-0.8,2.3
			c-0.3,0.9-0.7,1.8-1.1,2.9c-0.4,1-0.9,2.1-1.3,3.3c0.3,0.2,0.5,0.3,0.7,0.3c0.6,0,1.4-0.4,2.3-1.2s1.9-1.8,2.9-3
			c0.9-1.2,1.7-2.6,2.4-4c0.7-1.4,1-2.9,1-4.2c0-0.3-0.1-0.7-0.2-1c-0.2-0.3-0.4-0.6-0.6-0.8c-0.2-0.2-0.5-0.4-0.8-0.5
			c-0.3-0.1-0.6-0.2-0.8-0.2c-1.2,0-2.4,0.2-3.7,0.7s-2.6,1.1-3.9,1.9c-1.3,0.8-2.5,1.7-3.7,2.6s-2.2,2-3.1,2.9
			c-0.9,1-1.6,1.9-2.1,2.8s-0.8,1.7-0.8,2.3c0,0.2,0.1,0.3,0.3,0.4c0.2,0.1,0.4,0.1,0.6,0.1c0.3,0,0.6,0,1-0.1
			c0.3-0.1,0.6-0.2,0.9-0.3c0.3-0.1,0.5-0.2,0.7-0.3c0.2-0.1,0.3-0.1,0.3-0.1c0.1,0.1,0,0.3-0.3,0.5c-0.2,0.3-0.6,0.5-0.9,0.8
			c-0.4,0.3-0.8,0.5-1.2,0.7c-0.4,0.2-0.9,0.3-1.2,0.3c-0.3,0-0.6-0.1-0.9-0.5c-0.3-0.3-0.6-0.7-0.9-1.1c-0.3-0.4-0.5-0.9-0.7-1.4
			c-0.2-0.5-0.3-1-0.3-1.4c0-0.6,0.3-1.4,1-2.3c0.6-0.9,1.5-1.9,2.5-2.9c1-1,2.2-2,3.6-3c1.3-1,2.8-1.9,4.2-2.7
			c1.5-0.8,2.9-1.4,4.4-1.9c1.4-0.5,2.8-0.7,4-0.7c0.6,0,1.3,0.1,2.1,0.4c0.7,0.3,1.4,0.7,2.1,1.2c0.6,0.5,1.2,1.1,1.6,1.9
			c0.4,0.7,0.6,1.5,0.6,2.4c0,1-0.2,2-0.6,3.1c-0.4,1-0.9,2.1-1.6,3c-0.6,1-1.4,1.9-2.2,2.8c-0.8,0.9-1.7,1.7-2.5,2.3
			c-0.9,0.7-1.7,1.2-2.5,1.6c-0.8,0.4-1.5,0.6-2.1,0.6c0.5,1.1,1.2,2.2,2,3.3c0.8,1.1,1.7,2,2.6,2.8c0.9,0.8,1.9,1.4,3,1.8
			C23.1,49.6,24.2,49.7,25.3,49.4z"/>
		<path class="st3" d="M35.7,39.9c0.3,0,0.5,0.1,0.5,0.4c0,0.2,0,0.6-0.1,1.1c-0.1,0.3-0.3,0.8-0.7,1.6c-0.4,0.7-0.9,1.4-1.5,2.2
			c-0.7,0.7-1.5,1.4-2.4,1.9c-1,0.6-2,0.8-3.3,0.8c-0.8,0-1.5-0.1-2.1-0.4c-0.6-0.3-1.1-0.7-1.5-1.1c-0.4-0.5-0.7-1-1-1.7
			c-0.2-0.6-0.3-1.3-0.3-2c0-1,0.2-2,0.6-3.1c0.4-1.1,1-2,1.7-2.9c0.7-0.9,1.5-1.6,2.4-2.2c0.9-0.6,1.8-0.9,2.8-0.9
			c0.4,0,0.9,0.1,1.3,0.2c0.4,0.2,0.8,0.4,1.1,0.7c0.3,0.3,0.6,0.7,0.7,1.1c0.2,0.4,0.3,0.9,0.3,1.5c0,0.7-0.2,1.3-0.6,2
			c-0.4,0.6-0.8,1.2-1.5,1.7c-0.6,0.5-1.4,0.8-2.2,1c-0.9,0.2-1.9,0.2-3-0.1c-0.1,0.5-0.1,1-0.1,1.4c0,0.4,0.1,0.8,0.3,1.1
			c0.2,0.3,0.4,0.6,0.8,0.8c0.3,0.2,0.8,0.3,1.3,0.3c0.9,0,1.7-0.2,2.4-0.6c0.7-0.4,1.3-0.9,1.8-1.5c0.5-0.6,0.9-1.1,1.2-1.7
			c0.3-0.6,0.5-1,0.6-1.3C35.5,40,35.6,39.9,35.7,39.9z M31.5,35.1c-0.3,0-0.7,0.1-1.1,0.4c-0.4,0.3-0.7,0.7-1.1,1.1
			c-0.4,0.5-0.7,1-1,1.6c-0.3,0.6-0.6,1.2-0.8,1.8c0.5,0.1,1,0,1.4-0.2s0.9-0.5,1.2-0.9c0.4-0.4,0.7-0.8,1-1.2
			c0.3-0.4,0.5-0.9,0.6-1.3c0.1-0.4,0.2-0.7,0.1-1C31.8,35.2,31.7,35.1,31.5,35.1z"/>
		<path class="st3" d="M41.2,35.4c0,0.3-0.1,0.4-0.2,0.4c-0.1,0-0.3,0.1-0.4,0.3c-0.3,0.6-0.6,1.2-0.7,1.7c-0.1,0.5-0.2,1-0.2,1.5
			c0,0.6,0.1,1.1,0.2,1.6c0.1,0.5,0.3,1,0.5,1.5c0.2,0.5,0.3,1,0.5,1.5c0.1,0.5,0.2,1,0.2,1.6c0,1-0.2,1.9-0.6,2.7
			c-0.4,0.8-0.9,1.4-1.4,2c-0.6,0.5-1.2,0.9-1.8,1.2c-0.7,0.3-1.3,0.4-1.9,0.4c-0.5,0-1-0.1-1.5-0.3c-0.5-0.2-0.9-0.4-1.2-0.8
			c-0.4-0.3-0.6-0.7-0.8-1.2c-0.2-0.4-0.3-0.9-0.3-1.4c0-0.6,0.2-1.1,0.6-1.6c0.4-0.5,0.8-0.7,1.3-0.7c0.4,0,0.8,0.1,1.1,0.3
			c0.3,0.2,0.5,0.4,0.5,0.5c0,0,0,0.1-0.1,0.1c-0.5,0.1-0.8,0.3-1.1,0.7c-0.3,0.4-0.4,0.8-0.4,1.2c0,0.4,0.1,0.8,0.3,1.1
			c0.2,0.3,0.6,0.4,1.2,0.4c0.3,0,0.6-0.1,0.9-0.3c0.3-0.2,0.6-0.5,0.8-0.9c0.2-0.4,0.4-0.9,0.6-1.5c0.2-0.6,0.2-1.3,0.2-2.1
			c0-0.7-0.1-1.5-0.3-2.2c-0.2-0.7-0.4-1.6-0.6-2.6c-0.2,0.7-0.5,1.3-0.7,1.7c-0.2,0.4-0.4,0.7-0.5,0.9c-0.1,0.2-0.3,0.3-0.3,0.3
			c-0.1,0-0.1,0.1-0.2,0.1c-0.2,0-0.3-0.1-0.4-0.3c-0.1-0.2-0.2-0.4-0.2-0.6c0.3-0.7,0.6-1.4,0.8-2.1c0.2-0.6,0.5-1.2,0.7-1.9
			c0.2-0.7,0.4-1.2,0.6-1.7c0.2-0.8,0.4-1.4,0.6-1.9c0.2-0.5,0.4-0.8,0.6-1c0.2-0.2,0.4-0.4,0.5-0.4c0.1-0.1,0.2-0.1,0.3-0.1
			c0.2,0,0.5,0.1,0.8,0.2c0.3,0.1,0.6,0.3,0.9,0.4c0.3,0.2,0.5,0.4,0.7,0.6C41.1,35,41.2,35.2,41.2,35.4z"/>
		<path class="st3" d="M50.5,32.6c0.2,0.2,0.3,0.4,0.4,0.7c0.1,0.2,0.2,0.5,0.2,0.7c0,0.2,0,0.3-0.2,0.3c0,0-0.1,0-0.2,0
			c-0.1,0-0.2,0-0.4,0c-0.2,0-0.4,0-0.8,0c-0.3,0-0.8,0-1.3,0c-0.9,2-1.6,4-2.2,5.7c-0.6,1.8-0.9,3.3-0.9,4.7c0,0.5,0.2,0.7,0.5,0.7
			c0.2,0,0.4-0.2,0.8-0.5c0.4-0.3,0.7-0.8,1.1-1.3c0.4-0.5,0.8-1.1,1.1-1.7c0.4-0.6,0.6-1.2,0.8-1.7c0,0,0,0,0-0.1
			c0,0,0.1-0.1,0.1-0.1c0.3,0,0.4,0.1,0.5,0.3c0,0.2,0.1,0.4,0,0.7c0,0.3-0.1,0.6-0.2,1c-0.1,0.2-0.3,0.6-0.6,1.3
			c-0.3,0.6-0.7,1.3-1.2,2c-0.5,0.7-1,1.3-1.6,1.8c-0.6,0.5-1.2,0.8-1.8,0.8c-0.9,0-1.6-0.3-2.1-0.8c-0.6-0.6-0.8-1.4-0.8-2.6
			c0-0.5,0.1-1,0.2-1.7c0.1-0.7,0.3-1.5,0.6-2.4c0.3-0.9,0.6-1.8,0.9-2.9c0.4-1,0.8-2.1,1.2-3.3h-2c-0.2,0-0.5-0.1-0.6-0.3
			c-0.2-0.2-0.3-0.5-0.4-0.8c-0.1-0.3-0.2-0.5-0.2-0.7c0-0.2,0-0.3,0.1-0.3c0.4,0.1,0.7,0.2,1,0.2c0.3,0,0.6,0.1,0.9,0.1
			s0.6,0.1,1,0.1c0.3,0,0.7,0,1.1,0c0.2-0.5,0.4-1,0.7-1.6c0.3-0.6,0.5-1.2,0.8-1.8c0.3-0.6,0.5-1.1,0.7-1.5
			c0.2-0.4,0.4-0.7,0.5-0.8c0.2-0.2,0.5-0.2,0.9-0.2c0.4,0.1,0.8,0.2,1.2,0.3c0.4,0.2,0.7,0.4,0.9,0.6c0.2,0.2,0.3,0.4,0.1,0.6
			c-0.1,0.1-0.2,0.3-0.4,0.6c-0.2,0.4-0.4,0.8-0.6,1.2s-0.4,0.9-0.6,1.3c-0.2,0.4-0.4,0.8-0.5,1.1h0.9
			C50.2,32.3,50.4,32.4,50.5,32.6z"/>
		<path class="st3" d="M64.3,39.9c0.3,0,0.4,0.1,0.5,0.3c0.1,0.2,0.1,0.5,0,0.7c0,0.3-0.1,0.6-0.3,1c-0.1,0.2-0.3,0.6-0.6,1.3
			c-0.3,0.6-0.7,1.3-1.2,1.9c-0.5,0.7-1,1.3-1.6,1.8c-0.6,0.5-1.2,0.8-1.8,0.8c-1,0-1.7-0.3-2.2-0.8c-0.5-0.6-0.8-1.5-0.8-2.9
			c-0.3,0.5-0.6,0.9-0.9,1.3c-0.3,0.4-0.7,0.8-1,1.2c-0.3,0.4-0.7,0.6-1,0.9c-0.3,0.2-0.6,0.3-0.9,0.3c-0.6,0-1.1-0.1-1.6-0.3
			s-0.9-0.5-1.3-0.9c-0.4-0.4-0.7-0.9-0.9-1.4c-0.2-0.5-0.3-1.1-0.3-1.7c0-0.9,0.2-1.9,0.6-3c0.4-1.1,0.9-2.2,1.6-3.3
			s1.5-1.9,2.4-2.6c0.9-0.7,1.8-1.1,2.8-1.1c0.4,0,0.8,0.1,1.2,0.3c0.4,0.2,0.7,0.4,1,0.6c0.3,0.2,0.5,0.4,0.7,0.7
			c0.2,0.2,0.3,0.4,0.3,0.4c0.2-0.5,0.4-0.8,0.6-1.1c0.2-0.3,0.3-0.4,0.4-0.4c0.3,0,0.6,0.1,1,0.2c0.4,0.1,0.7,0.3,1,0.4
			c0.3,0.2,0.6,0.4,0.7,0.6c0.2,0.2,0.2,0.4,0,0.6c-0.3,0.4-0.6,0.9-1,1.6c-0.3,0.7-0.6,1.4-0.9,2.3c-0.3,0.8-0.5,1.7-0.7,2.5
			c-0.2,0.9-0.3,1.7-0.3,2.4c0,0.2,0,0.4,0.1,0.5c0.1,0.1,0.2,0.2,0.3,0.2c0.2,0,0.4-0.2,0.8-0.5c0.4-0.3,0.7-0.8,1.1-1.3
			c0.4-0.5,0.7-1.1,1.1-1.7c0.4-0.6,0.6-1.2,0.8-1.7C64.2,40.1,64.2,40.1,64.3,39.9C64.3,40,64.3,39.9,64.3,39.9z M52.8,45.1
			c0.1,0,0.4-0.1,0.7-0.4c0.3-0.3,0.7-0.7,1-1.1c0.4-0.5,0.8-1,1.2-1.6c0.4-0.6,0.8-1.2,1.1-1.8c0.4-0.6,0.7-1.1,0.9-1.7
			s0.4-1,0.5-1.3c0-0.3-0.1-0.6-0.3-0.8c-0.3-0.2-0.6-0.3-1.1-0.3c-0.4,0-0.9,0.3-1.4,0.8c-0.5,0.5-1,1.2-1.5,2
			c-0.5,0.8-0.9,1.7-1.2,2.7c-0.3,1-0.5,1.9-0.5,2.8c0,0.2,0,0.4,0.1,0.6C52.5,45.1,52.6,45.1,52.8,45.1z"/>
		<path class="st3" d="M77.5,40c0.3,0,0.4,0.1,0.5,0.3c0.1,0.2,0.1,0.4,0,0.7c0,0.3-0.1,0.6-0.3,1c-0.1,0.2-0.3,0.6-0.6,1.3
			c-0.3,0.6-0.7,1.3-1.2,2c-0.5,0.7-1,1.3-1.6,1.8c-0.6,0.5-1.2,0.8-1.8,0.8c-0.9,0-1.5-0.2-2-0.7c-0.5-0.4-0.8-1.2-0.9-2.3
			c-0.5,0.9-1.1,1.6-1.7,2.1c-0.7,0.6-1.4,0.8-2.2,0.8c-0.9,0-1.6-0.3-2.1-0.8c-0.6-0.6-0.8-1.4-0.8-2.6c0-0.3,0.1-0.8,0.3-1.3
			c0.2-0.6,0.4-1.2,0.6-2c0.2-0.7,0.5-1.5,0.8-2.2c0.3-0.8,0.6-1.5,0.8-2.1c0.2-0.7,0.4-1.2,0.6-1.7s0.3-0.8,0.3-1
			c0-0.2,0-0.3,0.1-0.4c0.1,0,0.2-0.1,0.2-0.1c0.3,0,0.6,0.1,0.9,0.2c0.3,0.1,0.6,0.3,0.9,0.4c0.3,0.2,0.5,0.4,0.7,0.6
			c0.2,0.2,0.3,0.4,0.3,0.6c0,0.4-0.2,1-0.5,1.7c-0.3,0.7-0.7,1.5-1,2.4c-0.4,0.9-0.7,1.7-1,2.6c-0.3,0.9-0.5,1.7-0.5,2.5
			c0,0.2,0,0.4,0.1,0.5c0.1,0.1,0.2,0.2,0.3,0.2c0.3,0,0.7-0.2,1.1-0.6c0.4-0.4,0.7-0.9,1.1-1.5c0.4-0.6,0.7-1.3,1.1-2
			c0.3-0.7,0.6-1.4,0.9-2.1c0.2-0.7,0.5-1.3,0.7-1.9c0.3-0.6,0.5-1.1,0.7-1.6c0.2-0.5,0.4-0.8,0.6-1.1c0.2-0.3,0.3-0.4,0.4-0.4
			c0.3,0,0.6,0.1,1,0.2c0.4,0.1,0.7,0.3,1,0.4c0.3,0.2,0.5,0.4,0.7,0.6c0.2,0.2,0.2,0.4,0,0.6c-0.3,0.4-0.6,0.9-1,1.6
			c-0.3,0.7-0.6,1.4-0.9,2.2s-0.5,1.7-0.7,2.5c-0.2,0.9-0.3,1.7-0.3,2.4c0,0.2,0,0.4,0.1,0.5c0.1,0.1,0.2,0.2,0.3,0.2
			c0.2,0,0.4-0.2,0.8-0.5c0.4-0.3,0.7-0.8,1.1-1.3c0.4-0.5,0.7-1.1,1.1-1.7c0.4-0.6,0.6-1.2,0.8-1.7C77.4,40.1,77.4,40.1,77.5,40
			C77.5,40,77.5,40,77.5,40z"/>
		<path class="st3" d="M88.5,40c0.2,0,0.4,0.1,0.5,0.3c0.1,0.2,0.1,0.4,0.1,0.6c0,0.1,0,0.3,0,0.4c0,0.1,0,0.3-0.1,0.4
			c0,0.1,0,0.2-0.1,0.4c-0.1,0.2-0.3,0.6-0.6,1.3c-0.3,0.6-0.8,1.3-1.3,2c-0.5,0.7-1.1,1.3-1.7,1.8c-0.6,0.5-1.2,0.8-1.8,0.8
			c-0.9,0-1.6-0.3-2.1-0.8c-0.5-0.6-0.8-1.4-0.8-2.6c0-0.4,0.1-1.1,0.4-1.8c0.3-0.8,0.6-1.6,0.9-2.4c0.3-0.8,0.7-1.5,1-2.2
			c0.3-0.7,0.5-1.1,0.6-1.2c0,0,0,0,0,0c0,0,0-0.1-0.1-0.1c0,0-0.3,0-0.6,0.1c-0.4,0.1-0.8,0.1-1.2,0.1c-0.3,0-0.5,0-0.8-0.1
			c-0.8,1.7-1.5,3.2-2.1,4.4c-0.6,1.2-1.2,2.1-1.7,2.7C76.8,44,76.7,44,76.7,44c-0.1-0.1-0.2-0.2-0.3-0.3c-0.1-0.1-0.1-0.3-0.2-0.5
			c0-0.2,0-0.4,0.1-0.6c0.4-0.8,0.7-1.4,1-2c0.3-0.6,0.6-1.2,0.9-2c0.3-0.7,0.6-1.4,0.9-2.1c-0.9-0.3-1.4-0.7-1.7-1.3
			c-0.3-0.6-0.4-1.1-0.4-1.7c0-0.4,0.1-0.9,0.4-1.5c0.2-0.5,0.6-1,0.9-1.5c0.4-0.4,0.8-0.8,1.2-1.1c0.4-0.3,0.9-0.5,1.3-0.5
			c0.1,0,0.3,0,0.5,0.1s0.4,0.2,0.6,0.3c0.2,0.1,0.4,0.3,0.5,0.5c0.1,0.2,0.2,0.5,0.2,0.8c0,0.4-0.1,1-0.3,1.7
			c-0.2,0.7-0.5,1.6-0.9,2.7c0.1,0,0.2,0.1,0.5,0.1c0.4,0,0.8,0,1.2-0.1c0.5-0.1,0.9-0.1,1.2-0.1c0.2,0,0.5,0.1,0.7,0.2
			c0.2,0.1,0.5,0.3,0.7,0.5c0.2,0.2,0.4,0.4,0.5,0.6c0.1,0.2,0.2,0.4,0.2,0.6c0,0.2,0,0.3-0.1,0.4c-0.2,0.4-0.5,0.9-0.8,1.5
			c-0.3,0.6-0.6,1.3-0.8,2c-0.3,0.7-0.5,1.4-0.7,2.1c-0.2,0.7-0.3,1.3-0.3,1.9c0,0.2,0,0.4,0.1,0.5c0.1,0.1,0.2,0.2,0.3,0.2
			c0.2,0,0.4-0.2,0.8-0.5c0.4-0.3,0.8-0.8,1.2-1.3c0.4-0.5,0.8-1.1,1.2-1.7c0.4-0.6,0.6-1.2,0.8-1.7c0,0,0,0,0-0.1
			C88.4,40,88.4,40,88.5,40z M80.8,31c-0.1,0-0.3,0.1-0.4,0.3c-0.1,0.2-0.3,0.4-0.4,0.6c-0.1,0.2-0.3,0.5-0.4,0.8
			c-0.1,0.3-0.1,0.5-0.1,0.7c0,0.3,0,0.5,0.1,0.6c0.1,0.2,0.2,0.3,0.5,0.5c0.3-0.8,0.6-1.4,0.7-1.9c0.1-0.4,0.2-0.8,0.2-1
			C80.9,31.2,80.9,31,80.8,31z"/>
		<path class="st3" d="M103,39.9c0.3,0,0.4,0.1,0.5,0.3c0.1,0.2,0.1,0.5,0,0.7c0,0.3-0.1,0.6-0.3,1c-0.1,0.2-0.3,0.6-0.6,1.3
			c-0.3,0.6-0.7,1.3-1.2,1.9c-0.5,0.7-1,1.3-1.6,1.8c-0.6,0.5-1.2,0.8-1.8,0.8c-1,0-1.7-0.3-2.2-0.8c-0.5-0.6-0.8-1.5-0.8-2.9
			c-0.3,0.5-0.6,0.9-0.9,1.3c-0.3,0.4-0.7,0.8-1,1.2c-0.3,0.4-0.7,0.6-1,0.9c-0.3,0.2-0.6,0.3-0.9,0.3c-0.6,0-1.1-0.1-1.6-0.3
			s-0.9-0.5-1.3-0.9c-0.4-0.4-0.7-0.9-0.9-1.4c-0.2-0.5-0.3-1.1-0.3-1.7c0-0.9,0.2-1.9,0.6-3c0.4-1.1,0.9-2.2,1.6-3.3
			c0.7-1,1.5-1.9,2.4-2.6c0.9-0.7,1.8-1.1,2.8-1.1c0.4,0,0.8,0.1,1.2,0.3c0.4,0.2,0.7,0.4,1,0.6c0.3,0.2,0.5,0.4,0.7,0.7
			c0.2,0.2,0.3,0.4,0.3,0.4c0.2-0.5,0.4-0.8,0.6-1.1c0.2-0.3,0.3-0.4,0.4-0.4c0.3,0,0.6,0.1,1,0.2c0.4,0.1,0.7,0.3,1,0.4
			c0.3,0.2,0.6,0.4,0.7,0.6c0.2,0.2,0.2,0.4,0,0.6c-0.3,0.4-0.6,0.9-1,1.6c-0.3,0.7-0.6,1.4-0.9,2.3c-0.3,0.8-0.5,1.7-0.7,2.5
			c-0.2,0.9-0.3,1.7-0.3,2.4c0,0.2,0,0.4,0.1,0.5c0.1,0.1,0.2,0.2,0.3,0.2c0.2,0,0.4-0.2,0.8-0.5c0.4-0.3,0.7-0.8,1.1-1.3
			c0.4-0.5,0.7-1.1,1.1-1.7c0.4-0.6,0.6-1.2,0.8-1.7C102.9,40.1,102.9,40.1,103,39.9C103,40,103,39.9,103,39.9z M91.5,45.1
			c0.1,0,0.4-0.1,0.7-0.4c0.3-0.3,0.7-0.7,1-1.1c0.4-0.5,0.8-1,1.2-1.6c0.4-0.6,0.8-1.2,1.1-1.8c0.4-0.6,0.7-1.1,0.9-1.7
			s0.4-1,0.5-1.3c0-0.3-0.1-0.6-0.3-0.8c-0.3-0.2-0.6-0.3-1.1-0.3c-0.4,0-0.9,0.3-1.4,0.8c-0.5,0.5-1,1.2-1.5,2
			c-0.5,0.8-0.9,1.7-1.2,2.7c-0.3,1-0.5,1.9-0.5,2.8c0,0.2,0,0.4,0.1,0.6C91.2,45.1,91.3,45.1,91.5,45.1z"/>
		<path class="st3" d="M116.5,40c0.3,0,0.4,0.1,0.5,0.3c0.1,0.2,0.1,0.4,0.1,0.7c0,0.3-0.1,0.6-0.2,1c-0.1,0.2-0.3,0.6-0.6,1.3
			c-0.4,0.6-0.8,1.3-1.3,2c-0.5,0.7-1.1,1.3-1.7,1.8c-0.6,0.5-1.2,0.8-1.8,0.8c-0.9,0-1.6-0.3-2.1-0.8c-0.6-0.6-0.8-1.4-0.8-2.6
			c0-0.5,0.1-1.1,0.4-1.8c0.3-0.8,0.6-1.5,0.9-2.3c0.3-0.8,0.6-1.4,0.9-2.1c0.3-0.6,0.4-1.1,0.4-1.3c0-0.2,0-0.3-0.2-0.3
			c-0.1,0-0.3,0.2-0.7,0.5c-0.4,0.3-0.8,0.8-1.3,1.3c-0.5,0.6-1,1.2-1.5,1.9c-0.5,0.7-1,1.5-1.5,2.3c-0.4,0.8-0.8,1.6-1.1,2.4
			c-0.3,0.8-0.4,1.6-0.4,2.3c0,0.1-0.1,0.1-0.2,0.2c-0.1,0.1-0.3,0.1-0.4,0.1c-0.2,0-0.4-0.1-0.7-0.2c-0.3-0.1-0.6-0.3-0.8-0.6
			c-0.3-0.2-0.5-0.5-0.7-0.8c-0.2-0.3-0.3-0.7-0.3-1c0-0.3,0.1-0.8,0.3-1.4c0.2-0.6,0.4-1.3,0.7-2.1c0.3-0.8,0.6-1.6,0.9-2.4
			c0.3-0.8,0.6-1.6,0.9-2.3c0.3-0.7,0.5-1.3,0.7-1.8c0.2-0.5,0.3-0.9,0.3-1c0-0.1,0-0.2,0.1-0.3c0-0.1,0.2-0.2,0.4-0.2
			c0.2,0,0.5,0,0.8,0.1c0.3,0.1,0.6,0.2,0.9,0.4c0.3,0.2,0.5,0.4,0.7,0.6c0.2,0.2,0.3,0.4,0.3,0.7c0,0.2-0.1,0.4-0.2,0.7
			c-0.1,0.3-0.2,0.6-0.4,1c-0.1,0.4-0.3,0.7-0.5,1.1c-0.2,0.4-0.3,0.7-0.4,1c0.4-0.7,0.9-1.4,1.5-2.1c0.5-0.6,1.1-1.2,1.6-1.7
			c0.5-0.5,1-0.9,1.5-1.1c0.5-0.3,0.9-0.4,1.2-0.4c0.8,0,1.4,0.2,1.9,0.7c0.4,0.4,0.7,1.1,0.7,2c0,0.5-0.2,1-0.5,1.7
			s-0.7,1.4-1.1,2.2c-0.4,0.8-0.7,1.5-1.1,2.3s-0.5,1.4-0.5,2c0,0.2,0,0.4,0.1,0.5c0.1,0.1,0.2,0.2,0.3,0.2c0.2,0,0.4-0.2,0.8-0.5
			c0.4-0.3,0.8-0.8,1.2-1.3c0.4-0.5,0.8-1.1,1.2-1.7c0.4-0.6,0.6-1.2,0.8-1.7c0,0,0,0,0-0.1C116.5,40,116.5,40,116.5,40z"/>
		<path class="st3" d="M124.1,32.6c0.2,0.2,0.3,0.4,0.4,0.7c0.1,0.2,0.2,0.5,0.2,0.7c0,0.2,0,0.3-0.2,0.3c0,0-0.1,0-0.2,0
			c-0.1,0-0.2,0-0.4,0s-0.4,0-0.8,0c-0.3,0-0.8,0-1.3,0c-0.9,2-1.6,4-2.2,5.7c-0.6,1.8-0.9,3.3-0.9,4.7c0,0.5,0.2,0.7,0.5,0.7
			c0.2,0,0.4-0.2,0.8-0.5c0.4-0.3,0.7-0.8,1.1-1.3c0.4-0.5,0.8-1.1,1.1-1.7c0.4-0.6,0.6-1.2,0.8-1.7c0,0,0,0,0-0.1
			c0,0,0.1-0.1,0.1-0.1c0.3,0,0.4,0.1,0.5,0.3c0,0.2,0.1,0.4,0,0.7c0,0.3-0.1,0.6-0.2,1c-0.1,0.2-0.3,0.6-0.6,1.3
			c-0.3,0.6-0.7,1.3-1.2,2c-0.5,0.7-1,1.3-1.6,1.8c-0.6,0.5-1.2,0.8-1.8,0.8c-0.9,0-1.6-0.3-2.1-0.8c-0.6-0.6-0.8-1.4-0.8-2.6
			c0-0.5,0.1-1,0.2-1.7c0.1-0.7,0.3-1.5,0.6-2.4c0.3-0.9,0.6-1.8,0.9-2.9c0.4-1,0.8-2.1,1.2-3.3h-2c-0.2,0-0.5-0.1-0.6-0.3
			s-0.3-0.5-0.4-0.8c-0.1-0.3-0.2-0.5-0.2-0.7c0-0.2,0-0.3,0.1-0.3c0.4,0.1,0.7,0.2,1,0.2c0.3,0,0.6,0.1,0.9,0.1
			c0.3,0,0.6,0.1,1,0.1c0.3,0,0.7,0,1.1,0c0.2-0.5,0.4-1,0.7-1.6c0.3-0.6,0.5-1.2,0.8-1.8c0.3-0.6,0.5-1.1,0.7-1.5
			c0.2-0.4,0.4-0.7,0.5-0.8c0.2-0.2,0.5-0.2,0.9-0.2c0.4,0.1,0.8,0.2,1.2,0.3c0.4,0.2,0.7,0.4,0.9,0.6c0.2,0.2,0.3,0.4,0.2,0.6
			c-0.1,0.1-0.2,0.3-0.4,0.6c-0.2,0.4-0.4,0.8-0.6,1.2c-0.2,0.4-0.4,0.9-0.6,1.3c-0.2,0.4-0.4,0.8-0.5,1.1h0.9
			C123.8,32.3,123.9,32.4,124.1,32.6z"/>
		<path class="st3" d="M85.6,19c-0.1-0.7-0.3-1.4-0.6-2.1c-0.3-0.7-0.8-1.3-1.3-1.8c-0.1-0.1-0.3-0.3-0.4-0.4
			c-0.1-0.1-0.3-0.2-0.4-0.3c-0.3-0.2-0.6-0.4-1-0.5c-0.3-0.1-0.7-0.3-1.1-0.3c-0.1,0-0.2,0-0.3-0.1l-0.1,0l-0.1,0
			c-0.1,0-0.2,0-0.3,0c-0.1,0-0.2,0-0.3,0h-0.1h0h0h0h0h0h0c-0.1,0-0.2,0-0.3,0c-0.2,0-0.3,0.1-0.5,0.1c-0.3,0.1-0.6,0.1-0.9,0.2
			c0,0-0.1-0.1-0.1-0.1c-0.1-0.2-0.3-0.3-0.4-0.5c-0.3-0.3-0.6-0.6-0.9-0.9c-0.3-0.3-0.7-0.5-1-0.8c-0.4-0.2-0.7-0.5-1.1-0.6
			c-0.2-0.1-0.4-0.2-0.6-0.3c-0.2-0.1-0.4-0.2-0.6-0.2c-0.4-0.1-0.8-0.3-1.2-0.3c-0.8-0.2-1.7-0.3-2.5-0.3c-0.2,0-0.4,0-0.6,0
			l-0.2,0c-0.1,0-0.1,0-0.2,0c-0.1,0-0.2,0-0.3,0C67.4,9.8,67,9.9,66.6,10c-0.8,0.2-1.5,0.6-2.3,1c-0.7,0.4-1.4,0.9-2,1.4
			c-0.6,0.5-1,1.1-1.4,1.7c-0.1,0-0.1,0-0.2-0.1c-0.2-0.1-0.4-0.1-0.6-0.2c-0.1,0-0.2-0.1-0.3-0.1l-0.3-0.1c-0.2,0-0.4-0.1-0.7-0.1
			l-0.2,0l-0.2,0c-0.1,0-0.2,0-0.4,0c-0.1,0-0.1,0-0.2,0c0,0-0.1,0-0.1,0h-0.1h0h0h0l-0.1,0c-0.1,0-0.1,0-0.2,0
			c-0.5,0-1,0.1-1.4,0.3c-0.2,0.1-0.5,0.2-0.7,0.3s-0.4,0.2-0.6,0.4c-0.2,0.1-0.4,0.3-0.6,0.4c-0.2,0.1-0.4,0.3-0.5,0.5
			c-0.7,0.7-1.2,1.5-1.5,2.4c-0.1,0.2-0.1,0.5-0.2,0.7l-0.1,0.3c0,0.1,0,0.2,0,0.3c-0.1,0.5-0.1,0.9,0,1.4c0,0.1,0,0.2,0,0.3l0,0.2
			l0,0.2c0,0.2,0.1,0.5,0.2,0.7c0.1,0.4,0.3,0.9,0.5,1.3c0.2,0.4,0.5,0.8,0.8,1.1c0.3,0.3,0.7,0.7,1,0.9c0.4,0.3,0.8,0.5,1.2,0.7
			c0.4,0.2,0.9,0.3,1.3,0.3c0.9,0.1,1.8,0,2.6-0.3c0.8-0.3,1.6-0.7,2.2-1.2c-0.4,0.2-0.8,0.3-1.1,0.4c-0.4,0.1-0.8,0.2-1.2,0.3
			c-0.8,0.1-1.6,0.1-2.3-0.1c-0.7-0.2-1.4-0.6-1.9-1.1c-0.3-0.3-0.5-0.5-0.7-0.8c-0.2-0.3-0.4-0.6-0.5-0.9c-0.3-0.7-0.4-1.4-0.5-2.1
			c0-0.4,0-0.7,0.1-1.1c0-0.1,0-0.2,0-0.3l0.1-0.3c0.1-0.2,0.1-0.3,0.2-0.5c0.1-0.3,0.3-0.6,0.5-0.9c0.2-0.3,0.4-0.6,0.7-0.8
			c0.5-0.5,1.1-0.9,1.7-1.1c0.3-0.1,0.7-0.2,1-0.2l0.2,0h0c0,0,0,0,0.1,0c0,0,0.1,0,0.1,0c0.1,0,0.2,0,0.3,0l0.1,0l0.1,0
			c0.2,0,0.4,0.1,0.6,0.1l0.3,0.1c0.1,0,0.2,0,0.3,0.1c0.2,0,0.4,0.1,0.6,0.1c0.2,0.1,0.4,0.1,0.6,0.2l0.3,0.1l0.1,0l0.1,0l0.6,0.2
			c0.4,0.1,0.7,0.3,1.1,0.5c0.2,0.1,0.4,0.2,0.6,0.2l0.5,0.3c0.2,0.1,0.4,0.2,0.5,0.3l0.5,0.3c0.1,0,0.2,0.1,0.3,0.1l0.3,0.1
			l0.3,0.1c0.1,0,0.2,0.1,0.3,0.1l0.6,0.2c0.1,0,0.2,0.1,0.3,0.1l0.3,0.1c0.8,0.3,1.7,0.4,2.6,0.5c0.9,0.1,1.7,0,2.6-0.2L73,19
			c0.1,0,0.2-0.1,0.3-0.1c0.1,0,0.2-0.1,0.3-0.1l0.3-0.1c0.4-0.2,0.7-0.4,1.1-0.7c-0.4,0.2-0.8,0.3-1.2,0.4c-0.2,0-0.4,0.1-0.6,0.1
			l-0.3,0l-0.3,0c-0.8,0.1-1.6,0-2.4-0.1l-0.3-0.1l-0.3-0.1l-0.3-0.1c0,0-0.1,0-0.1,0l-0.1,0c-0.2-0.1-0.4-0.1-0.6-0.2
			c-0.2-0.1-0.4-0.2-0.5-0.2l-0.3-0.1c-0.1,0-0.2-0.1-0.3-0.1l-0.5-0.3c-0.1,0-0.2-0.1-0.3-0.1l-0.3-0.1l-0.5-0.3l-0.5-0.3
			c-0.2-0.1-0.4-0.2-0.6-0.3l-0.6-0.3c-0.2-0.1-0.4-0.2-0.6-0.3c-0.4-0.2-0.8-0.4-1.2-0.6c-0.4-0.2-0.8-0.3-1.2-0.5
			c-0.1-0.1-0.3-0.1-0.4-0.1c0.5-0.6,1-1.1,1.6-1.6c0.6-0.5,1.3-0.9,2-1.2c0.7-0.3,1.5-0.5,2.2-0.7c0.4-0.1,0.8-0.1,1.1-0.2
			c0.1,0,0.2,0,0.3,0c0,0,0.1,0,0.1,0l0.1,0c0.2,0,0.4,0,0.6,0c0.8,0.1,1.5,0.2,2.2,0.4c0.4,0.1,0.7,0.3,1,0.4
			c0.2,0.1,0.3,0.2,0.5,0.3c0.2,0.1,0.3,0.2,0.5,0.3c0.3,0.2,0.6,0.4,0.9,0.6c0.3,0.2,0.6,0.5,0.8,0.7c0.3,0.3,0.5,0.5,0.7,0.8
			c0,0.1,0.1,0.1,0.1,0.2c-0.1,0-0.1,0.1-0.2,0.1c-0.6,0.3-1.2,0.6-1.7,0.8c-0.6,0.3-1.1,0.5-1.7,0.7c-0.6,0.1-1.2,0.2-1.9,0.2
			c0.6,0.2,1.3,0.3,2,0.3c0.3,0,0.7,0,1-0.1c0.3-0.1,0.7-0.1,1-0.2c0.6-0.2,1.3-0.4,1.9-0.6c0.1,0,0.3-0.1,0.4-0.1
			c0.1,0,0.3-0.1,0.4-0.1c0.3-0.1,0.6-0.1,0.9-0.2C78,15,78.3,15,78.6,15c0.1,0,0.3,0,0.4,0c0.1,0,0.1,0,0.2,0h0h0h0c0,0,0,0,0,0h0
			l0.1,0c0.1,0,0.1,0,0.2,0c0.1,0,0.1,0,0.2,0s0.1,0,0.2,0c0.1,0,0.1,0,0.2,0c0.3,0.1,0.5,0.2,0.7,0.3c0.2,0.1,0.5,0.3,0.7,0.4
			c0.1,0.1,0.2,0.2,0.3,0.3c0.1,0.1,0.2,0.2,0.3,0.3c0.4,0.4,0.7,0.8,0.9,1.3c0.2,0.5,0.4,1,0.5,1.6c0.1,0.5,0.1,1.1,0,1.6
			c-0.1,0.6-0.2,1.1-0.5,1.6c-0.1,0.3-0.3,0.5-0.4,0.7c-0.2,0.2-0.3,0.4-0.5,0.6c-0.4,0.4-0.8,0.8-1.4,1c-0.1,0.1-0.3,0.1-0.4,0.2
			c-0.1,0-0.3,0.1-0.4,0.1c-0.3,0.1-0.6,0.1-0.9,0.2c-0.3,0-0.6,0-0.8,0l0,0l0,0c-0.3,0-0.6,0-0.9-0.1c-0.6-0.1-1.2-0.3-1.8-0.5
			c0.2,0.2,0.5,0.4,0.8,0.6c0.3,0.2,0.6,0.3,0.9,0.4c0.2,0.1,0.4,0.2,0.6,0.2l0,0c-0.1,0.1-0.1,0.2-0.2,0.3l-0.2,0.3
			c-0.3,0.5-0.5,0.9-0.8,1.4c-0.1,0.2-0.1,0.3-0.2,0.5c-0.1,0-0.2,0-0.2-0.1L76,28.3c-0.2,0-0.3-0.1-0.5-0.1c-0.3-0.1-0.6-0.1-1-0.2
			c-0.6-0.1-1.3-0.2-1.9-0.2c-1.3-0.1-2.6-0.1-3.9,0c-0.6,0-1.3,0.1-1.9,0.2c-0.2,0-0.3,0-0.5,0.1c-0.2,0-0.3,0-0.5,0.1l-0.5,0.1
			l-0.5,0.1c-0.2,0-0.3,0.1-0.5,0.1c-0.2,0-0.3,0.1-0.5,0.1c-0.3,0.1-0.6,0.2-0.9,0.3c-0.6,0.2-1.2,0.4-1.8,0.6
			c0.6-0.2,1.2-0.3,1.9-0.5c0.3-0.1,0.6-0.1,0.9-0.2c0.2,0,0.3,0,0.5-0.1c0.2,0,0.3,0,0.5-0.1l0.5-0.1l0.5,0c0.2,0,0.3,0,0.5,0
			c0.2,0,0.3,0,0.5,0c0.6,0,1.3,0,1.9,0c1.3,0,2.5,0.2,3.7,0.4c0.6,0.1,1.2,0.2,1.8,0.4c0.3,0.1,0.6,0.1,0.9,0.2
			c0.1,0,0.3,0.1,0.4,0.1l0.2,0.1c0.1,0,0.1,0,0.2,0.1l0,0.1c0,0.1-0.1,0.3-0.1,0.4l0,0.2l0,0.1c-0.1,0-0.3-0.1-0.4-0.1
			c-0.3-0.1-0.6-0.1-1-0.2c-0.6-0.1-1.3-0.2-1.9-0.2C71.3,30,70,29.9,68.7,30c-0.6,0-1.3,0.1-1.9,0.2c-0.2,0-0.3,0-0.5,0.1
			c-0.2,0-0.3,0-0.5,0.1l-0.5,0.1l-0.5,0.1c-0.2,0-0.3,0.1-0.5,0.1c-0.2,0-0.3,0.1-0.5,0.1c-0.3,0.1-0.6,0.2-0.9,0.3
			c-0.6,0.2-1.2,0.4-1.8,0.6c0.6-0.2,1.2-0.4,1.9-0.5c0.3-0.1,0.6-0.1,0.9-0.2c0.2,0,0.3,0,0.5-0.1c0.2,0,0.3,0,0.5-0.1l0.5-0.1
			l0.5,0c0.2,0,0.3,0,0.5,0c0.2,0,0.3,0,0.5,0c0.6,0,1.3,0,1.9,0c1.3,0,2.5,0.1,3.8,0.3c0.6,0.1,1.2,0.2,1.9,0.4
			c0.3,0.1,0.6,0.1,0.9,0.2c0.1,0,0.3,0.1,0.4,0.1c0.1,0,0.3,0.1,0.4,0.1l0.5,0.2l0.1-0.6l0.1-0.4l0-0.2l0-0.2
			c0-0.1,0.1-0.2,0.1-0.3l0.1-0.3c0.2-0.5,0.4-0.9,0.6-1.3c0.2-0.4,0.5-0.9,0.8-1.3l0.2-0.3c0.1-0.1,0.1-0.2,0.2-0.3
			c0.1-0.1,0.1-0.2,0.2-0.3c0,0,0.1-0.1,0.1-0.1l0.1-0.1l0.1-0.1l0,0c0.3,0,0.6,0,0.9,0c0.4,0,0.7-0.1,1-0.2c0.1,0,0.2-0.1,0.3-0.1
			c0.1,0,0.2-0.1,0.3-0.1c0.2-0.1,0.3-0.1,0.5-0.3c0.1,0,0.2-0.1,0.2-0.1l0.2-0.1c0.1,0,0.1-0.1,0.2-0.2c0.1-0.1,0.1-0.1,0.2-0.2
			c0.6-0.5,1-1,1.4-1.7c0.4-0.6,0.6-1.3,0.8-2.1C85.6,20.5,85.7,19.7,85.6,19z"/>
		<path class="st3" d="M63.5,22.7c0.5,0.4,1,0.8,1.6,1.1c1.1,0.6,2.4,1,3.8,1c0.7,0,1.3-0.1,2-0.2l0.5-0.1c0.2,0,0.3-0.1,0.5-0.2
			c0.1,0,0.1-0.1,0.2-0.1l0.2-0.1c0.1-0.1,0.3-0.1,0.4-0.2c0.3-0.2,0.6-0.3,0.8-0.5l0.2-0.1c0.1,0,0.1-0.1,0.2-0.1l0.3-0.3l0.2-0.2
			c0.1-0.1,0.1-0.1,0.2-0.2c0.1-0.1,0.2-0.2,0.3-0.4c0.1-0.1,0.2-0.3,0.3-0.4c0.1-0.1,0.2-0.3,0.3-0.4c-0.3,0.1-0.6,0.3-0.8,0.4
			c-0.1,0.1-0.3,0.1-0.4,0.2c-0.1,0-0.1,0.1-0.2,0.1L73.7,22l-0.4,0.2c-0.1,0.1-0.3,0.1-0.4,0.2c-0.1,0.1-0.3,0.1-0.4,0.2
			c-0.1,0-0.3,0.1-0.4,0.1c-0.5,0.2-1.1,0.3-1.6,0.4c-0.5,0.1-1.1,0.1-1.6,0.1c-1.1,0-2.2-0.2-3.3-0.6c-0.6-0.2-1.1-0.4-1.7-0.6
			c-0.6-0.2-1.1-0.5-1.7-0.7c0.2,0.3,0.4,0.5,0.6,0.7C63,22.3,63.2,22.5,63.5,22.7z"/>
		<path class="st3" d="M47,11.8c-0.3,3.3-0.6,6.7-1.1,8.2c-0.5,1.4-1.4,1.7-1.9,2.3c-0.4,0.6-0.6,0.4-0.9,1.8
			c-0.2,0.9-0.8,4-1.3,6.6c0,0-0.1,0.1-0.1,0.1c-0.5,0-0.9,0-1.3,0c0.6-2.7,1.2-6,1.4-7c0.2-1.4,0-1.3-0.1-2c-0.2-0.7-1-1.4-0.9-2.9
			c0.1-1.5,1.1-4.8,2.1-8c0.9-3.2,0.8-2.6,0.7-2.1c-0.1,0.5-1.7,8.5-1.7,8.9c0,0.4,0.6,0.5,0.7,0.1c0.1-0.3,0.2-0.6,0.6-2.3
			c0.4-1.7,1.6-6.9,1.6-6.9c0.1,0-1.5,8.9-1.6,9.4c-0.1,0.4,0.2,0.4,0.3,0.4h0c0.1,0,0.3,0.1,0.4-0.3c0.1-0.4,2-9.3,2-9.3
			c0.1,0-0.8,5.2-1.1,7c-0.2,1.8-0.3,2-0.3,2.4c0,0.3,0.6,0.6,0.7,0.1C45.5,18,47,10,47.1,9.6C47.2,9.1,47.3,8.5,47,11.8z"/>
		<path class="st3" d="M98.1,18.2c-0.2,3.7-2.3,5.1-3.8,5.7c-1.5,0.6-1.5,2.9-1.8,4.7c-0.2,1-0.5,3.3-0.9,5.5
			c-0.6-0.1-1.2-0.2-1.8-0.3c0.5-2.2,1-4.5,1.3-5.5c0.4-1.8,1.3-3.9,0.1-5c-1.2-1.1-2.6-3.2-1.4-6.7c1.2-3.5,3.3-4.7,4-5.2
			c0.6-0.4,1.1-0.3,1.3-0.2c0.2,0,0.7,0.1,1.1,0.7C96.8,12.6,98.3,14.6,98.1,18.2z"/>
		<path class="st3" d="M107.2,29.2c0,0.2,0.3,0.1,0.4,0.1C107.5,29,107.1,29.2,107.2,29.2z"/>
		<path class="st3" d="M106.2,26.3l0.2,0L106,26L106.2,26.3z"/>
		<path class="st3" d="M105.9,23.6c-0.3,0.2-0.2,0.4-0.1,0.7c0.1,0.3,0.3,0.5,0.2,0.8l-0.1,0.1l0.5,0.2
			C106.2,24.8,105.8,24.1,105.9,23.6z"/>
		<path class="st3" d="M107,22c-0.2,0.1-0.3-0.3,0,0.4c0,0,0,0,0-0.1C107.1,22.2,107,22.1,107,22z"/>
		<path class="st3" d="M107.1,22.2C107.1,22.5,107.2,22,107.1,22.2L107.1,22.2z"/>
		<path class="st3" d="M106.7,20.9l0.3,0.3c0.1-0.1,0.1-0.5,0.2-0.4C107,20.6,106.8,20.7,106.7,20.9z"/>
		<path class="st3" d="M106.1,20.7l0.1,0.2C106.3,20.8,106.3,20.8,106.1,20.7z"/>
		<path class="st3" d="M106.5,21.2l-0.3-0.4c-0.1,0.1-0.3,0.1,0.1,0.2C106.2,21.1,106.4,21.1,106.5,21.2z"/>
		<path class="st3" d="M106.5,21.5c-0.1,0.2-0.1,0.5-0.4,0.2C106.3,22.4,106.7,22.2,106.5,21.5z"/>
		<path class="st3" d="M105.3,23.6c0,0.1-0.1,0.2-0.1,0.3l0.2,0.2C105.2,24,105.5,23.6,105.3,23.6z"/>
		<path class="st3" d="M106.4,18.5c-0.1,0-0.3,0.2-0.5,0.3l0.2,0.2C106.2,18.9,106.2,18.6,106.4,18.5z"/>
		<path class="st3" d="M105.9,18.8l-0.3-0.3C105.7,18.9,105.8,18.9,105.9,18.8z"/>
		<path class="st3" d="M105.4,20.8l0.6,0.6c-0.2-0.2-0.4-0.5-0.7-0.7L105.4,20.8z"/>
		<path class="st3" d="M105.9,17l0.4,0.1l-0.6-0.3L105.9,17z"/>
		<path class="st3" d="M105.5,15.9c0.2,0,0.2-0.1,0.3-0.1c0.1-0.1,0.1-0.2,0.2-0.1c-0.1-0.3-0.5-0.4-0.7-0.6
			C105.5,15.3,105.6,15.6,105.5,15.9z"/>
		<path class="st3" d="M104.9,14.9c0.1,0.1,0.3,0.2,0.4,0.3C105.2,15,105.1,14.9,104.9,14.9z"/>
		<path class="st3" d="M105.4,17.8c0.1-0.1,0.3-0.2,0.3-0.4l-0.3,0.3C105.4,17.7,105.4,17.7,105.4,17.8z"/>
		<path class="st3" d="M105.4,17.6c0-0.2-0.1-0.3-0.1-0.4C105.3,17.3,105.3,17.4,105.4,17.6z"/>
		<path class="st3" d="M105.5,17.8C105.5,17.8,105.4,17.8,105.5,17.8C105.4,17.8,105.4,17.8,105.5,17.8z"/>
		<path class="st3" d="M105.5,19.6c-0.3-0.2-0.6-0.6-0.8-0.1C105,19.7,105.1,19.4,105.5,19.6z"/>
		<path class="st3" d="M105.1,18.2l0,0.4c0.1,0,0.2-0.2,0.3-0.1L105.1,18.2z"/>
		<path class="st3" d="M104.9,18c0.1,0.1,0.1,0.1,0.2,0.2c0-0.1,0-0.1,0-0.2H104.9z"/>
		<path class="st3" d="M104.9,15.7c-0.2-0.1-0.3-0.3-0.4-0.5c0,0.3,0.1,0.5,0.2,0.8C104.7,15.9,105,16,104.9,15.7z"/>
		<path class="st3" d="M105.1,16.7C105.1,16.7,105.1,16.6,105.1,16.7C105,16.7,105,16.7,105.1,16.7z"/>
		<path class="st3" d="M103.5,13c0,0-0.1,0.1-0.1,0.1C103.5,13.1,103.5,13.1,103.5,13L103.5,13z"/>
		<path class="st3" d="M104.6,16c0,0.2,0.1,0.3,0.3,0.3c0-0.1-0.1-0.1-0.1-0.2C104.7,16.1,104.7,16,104.6,16
			C104.6,16,104.5,16,104.6,16z"/>
		<path class="st3" d="M104.5,14.3c0,0.1-0.1,0.3-0.1,0.4C104.5,14.6,104.6,14.3,104.5,14.3z"/>
		<path class="st3" d="M105.1,16.5C105.2,16.6,105.2,16.6,105.1,16.5C105.3,16.5,105.2,16.5,105.1,16.5z"/>
		<path class="st3" d="M105.1,16.5c-0.1-0.1-0.2-0.1-0.3-0.2c0.1,0.1,0.1,0.2,0.2,0.3C105.1,16.6,105.1,16.6,105.1,16.5z"/>
		<path class="st3" d="M101,13.5c0.2-0.1,0.4,0,0.5,0.1c0.1,0.1,0.2,0.3,0.1,0.6c0.4,0.3,1.4-0.5,1.8-1.1c-0.2,0.1-0.3,0.1-0.6-0.2
			c-0.1,0.2,0,1.1-0.4,0.9c-0.4-0.4-0.1-0.5,0-0.8c-0.1,0.2-0.4,0.1-0.6,0c-0.3-0.1-0.5-0.2-0.8,0l0.4,0.3
			C101.3,13.4,101,13.3,101,13.5z"/>
		<path class="st3" d="M103.8,13.9l0.1,0.1c0-0.2,0-0.4,0.2-0.8c-0.3-0.2-0.4-0.2-0.5-0.2L103.8,13.9L103.8,13.9z"/>
		<path class="st3" d="M104.2,14.8c-0.4,0-0.7-0.3-1,0.1c0.2,0.5,0.4,0.2,0.7,0.4C103.5,14.5,104.2,15.5,104.2,14.8
			c0.1,0.2,0.2,0.3,0.2,0.4c0-0.2,0-0.3,0-0.5c0,0,0,0,0,0s0,0,0,0c0,0.1-0.1,0.1,0,0l0,0C104.3,14.8,104.3,14.8,104.2,14.8
			c0-0.3,0.1-0.1,0.1,0c0,0,0,0,0.1,0l-0.3-0.4l-0.3-0.4C103.9,14.2,104,14.4,104.2,14.8z"/>
		<path class="st3" d="M103.8,19.4c0,0,0.1,0,0.1-0.1C103.8,19.3,103.7,19.3,103.8,19.4z"/>
		<path class="st3" d="M103.9,19c0.1,0,0.2,0,0.2,0.3c-0.1,0.2-0.2,0-0.3,0.1c0.1,0.1,0.4,0.3,0.5-0.1l-0.1,0c0-0.4,0.4-0.9,0.4-0.9
			C104.4,18.5,104.2,18.7,103.9,19z"/>
		<path class="st3" d="M104,16.9c-0.1-0.2-0.3-0.4-0.4-0.6c-0.1,0.1-0.1,0.3-0.2,0.4l0.2-0.1C103.7,17.1,103.9,16.9,104,16.9z"/>
		<path class="st3" d="M103.7,12.9l0.4-0.1c-0.2,0-0.5-0.1-0.7-0.1L103.7,12.9z"/>
		<path class="st3" d="M103.2,12l0.3-0.1l-0.3-0.1L103.2,12z"/>
		<path class="st3" d="M59.7-3.6l-0.1,0.1C59.6-3.5,59.7-3.6,59.7-3.6z"/>
		<path class="st3" d="M61-3.9l0-0.2C61-4,61-3.9,61-3.9z"/>
		<path class="st3" d="M87.5-4.3c-0.1-0.2-0.1-0.5-0.1-0.7c0-0.2-0.1-0.2-0.2,0l-0.1,0.4C87.3-4.6,87.4-4.4,87.5-4.3z"/>
		<path class="st3" d="M72.3-6.7c0,0,0,0.1,0.1,0.1c0.1-0.1,0.2-0.2,0.2-0.3C72.5-6.8,72.4-6.8,72.3-6.7z"/>
		<path class="st3" d="M72-5.1l-0.3-0.3C71.7-5.3,71.8-5.2,72-5.1z"/>
		<path class="st3" d="M53-0.5l0,0.4C53.3-0.3,53.1-0.4,53-0.5z"/>
		<path class="st3" d="M97.8,4.2c-0.1-0.3-0.1-0.5-0.3-0.7C97.5,3.9,97.5,4.3,97.8,4.2z"/>
		<path class="st3" d="M59.2-7.7c-0.1,0.1-0.1,0.2-0.1,0.3C59.2-7.6,59.3-7.7,59.2-7.7z"/>
		<path class="st3" d="M97,3c0,0.1,0,0.1,0,0.2c0.2,0.1,0.4,0.2,0.5,0.4C97.5,3.2,97.4,3,97,3z"/>
		<path class="st3" d="M36.2,19.4C36.1,19.4,36.1,19.4,36.2,19.4C36.2,19.5,36.2,19.4,36.2,19.4z"/>
		<path class="st3" d="M30.9,26.8c0-0.1,0-0.2,0-0.4C30.8,26.5,30.8,26.6,30.9,26.8z"/>
		<path class="st3" d="M101.5,8.7C101.6,8.7,101.7,8.9,101.5,8.7L101.5,8.7z"/>
		<path class="st3" d="M93.9,3.3L93.9,3.3C93.9,3.4,93.9,3.4,93.9,3.3z"/>
		<path class="st3" d="M101.5,9c0-0.1,0-0.2,0-0.3C101.5,8.8,101.5,8.9,101.5,9z"/>
		<path class="st3" d="M101.6,8.9c0,0.1,0,0.1,0.1,0.2C101.8,9,101.8,9,101.6,8.9z"/>
		<path class="st3" d="M101.3,8.5c0.1,0.1,0.1,0.2,0.1,0.3c0,0,0-0.1,0-0.1C101.4,8.6,101.4,8.6,101.3,8.5z"/>
		<path class="st3" d="M42.3,6.2C42.3,6.2,42.3,6.2,42.3,6.2C42.3,6.4,42.3,6.4,42.3,6.2z"/>
		<path class="st3" d="M81.3-2.8C81.4-2.8,81.4-2.8,81.3-2.8C81.4-2.8,81.4-2.8,81.3-2.8L81.3-2.8z"/>
		<path class="st3" d="M80.7-2.7c0.4-0.4,0.6-0.2,0.7-0.1c0.1-0.4,0.1-0.7,0.2-1.1C81.2-3.5,80.9-3.1,80.7-2.7z"/>
		<path class="st3" d="M56.7-2.5c0.2,0.1,0.4,0.1,0.5,0.2c-0.3,0.7-0.7,0.7-0.2,1c-0.2-0.6,0.2-0.8,0.6-0.9c0.4-0.2,0.8-0.3,0.6-0.9
			l0.4,0.1c-0.1,0-0.1,0.1-0.2,0.1c0.4,0.2,0.4,0,0.4-0.3C58.9-3.6,59-4,59.4-4c0.3,0,0.5,0.1,0.4,0.3c0.2-0.1,0.3-0.3,0.5-0.4
			c0.2,0,0.2,0.2,0,0.2L61-4.2v0c0.1-0.2,0.3-0.6,0.4-0.7c0.3,0.1-0.1,0.1,0,0.3c0.1-0.1,0.3-0.3,0.4-0.4c0.1,0.1,0.1,0.3,0,0.4
			c-0.1,0.1-0.3,0.2-0.4,0.3c0.2,0.3,0.3,0.4,0.4,0.4c0.1,0,0.1,0,0.2-0.1c0.1-0.2,0.3-0.4,0.9-0.1l-0.4,0.2
			c0.4,0.6,0.7,0.3,1.3,0.7c-0.1-0.1-0.4-0.3-0.6-0.6C62.9-4,62.8-4.3,63-4.5c0.1,0,0.2,0,0.3,0c0.1,0,0.2-0.1,0.3-0.2
			c0.1,0.4,0.3,0.3,0.7,0.2l0,0.6c0.3-0.2,0.3-0.5,0.5-0.8c0.2,0,0.3,0.1,0.4,0.3c0.1,0.1,0.2,0.4,0.2,0.5c0.3,0,0.2-0.1,0.1-0.3
			c-0.1-0.2-0.2-0.4,0.2-0.5c0.3,0.1,0.5,0.1,0.8,0c0.2-0.1,0.5-0.3,0.8-0.4c0.4,0.2-0.1,0.3,0.1,0.5l0.3-0.5c0.1,0,0.1,0.1,0,0.2
			c0.3-0.2,0-0.6,0.5-0.7c0-0.2,0.1-0.2,0.2-0.1c0.1,0,0.1,0.1,0.2,0.1c0.1,0,0.1,0.1,0.2,0.2c0.3,0.2,0.6,0.4,0.9,0.1
			c0.1,0.2-0.1,0.3,0,0.6c0.4-0.2,0.6-0.3,0.7-0.4c0.2-0.1,0.3-0.2,0.6-0.5l0.5,0.4c-0.4-0.5,0.2-0.9,0.7-1.3
			c-0.1-0.2-0.2-0.4-0.3-0.5c0.3-0.1,0.5-0.2,0.8-0.2c0.1,0.1,0,0.3-0.2,0.5C72.7-7,72.7-7,72.8-7c0.2,0.2,0.1,0.6-0.2,0.9
			c-0.1-0.1-0.1-0.3-0.2-0.4c-0.2,0.3-0.4,0.7-0.4,1c0.1-0.1,0.1-0.1,0.3-0.1c-0.1,0.1-0.1,0.2-0.1,0.2c0,0.1,0.1-0.1,0.2-0.2
			L72.5-5l0.1-0.2l0.9,0.5C73.6-4.8,73.8-5,74-5.1c0.2-0.2,0.4-0.3,0.6-0.4c0.4-0.3,0.9-0.5,1.5-0.5c-0.4,0.4-0.2,0.7-0.3,1.3
			c-0.1-0.3-0.3-0.3-0.6-0.2C74.9-5,74.6-4.8,74.3-5c0.3,0.1,0.2,0.4,0.1,0.4c0.3-0.1,0.7-0.2,1.1-0.3c-0.1,0.2,0,0.3,0.1,0.4
			c0,0,0.1,0.1,0.1,0.1c0,0,0.1,0.1,0.2,0.1c0-0.9,0.8-0.4,1.3-0.6c0,0.3-0.2,0.6-0.7,0.4c0.2,0.4,0.4,0.2,0.7-0.1
			c0.1-0.1,0.2-0.2,0.4-0.3c0.1,0,0.2,0,0.3,0.2c-0.1,0-0.2-0.1-0.3,0c0.3-0.2,1,0.2,0.7,0.4l-0.1,0c0.4,0.2,1,0.3,1.5,0.4
			c0.5,0.1,1,0,1.2-0.3c0,0.1-0.4,0.8-0.5,1c0.2-0.2,0.4-0.3,0.6-0.5c0.2-0.2,0.4-0.3,0.6-0.5c0.4-0.3,0.8-0.6,1.2-0.9
			c-0.2,0.3-0.3,0.8-0.5,1.3c-0.2,0.5-0.4,0.9-0.8,1c0.1,0.2,0.3,0.3,0.8,0.3c-0.1-0.1,0.1-1,0.3-1c0.1,0.4,0.1,0.6,0.2,0.7
			c0.1,0.1,0.1,0.2,0.3,0.6c-0.1-0.2,0.5-1.1,0.8-0.9c-0.1,0.1-0.4,0.9-0.5,1c0.4-0.2,0.7-0.4,1.1-0.6c-0.3,0.1-0.4,0.7-0.4,1.1
			c0-0.2,0.6,0.3,0.8,0.3l-0.2-0.4c0.3,0.3,0.7,0,1.1-0.2C85.9-2,86.2-2.2,86.6-2c-0.2,0.1-0.9,1-0.5,1.3c0.2-0.2,0.7-0.6,1.3-1
			C87.7-1.8,88-2,88.2-2.1c0.3-0.1,0.6-0.2,0.8-0.1l0,0.3l0.7,0.1c-0.4,0.2-1,0.5-1.7,0.8c-0.6,0.3-1.3,0.6-1.7,0.7
			c0.1,0.2,0.1,0.3,0.1,0.3c0,0.1,0,0.1,0.3,0.2c0,0.2-0.1,0.2-0.2,0.2c-0.1,0-0.1,0-0.2,0c-0.1,0-0.1,0-0.1,0l0.1,0.1l0.1,0.1
			l0.2,0.2L87,1.1c0.1-0.3,0.4-0.3,0.7-0.3c0.1,0,0.3,0,0.4,0c0.1,0,0.2-0.1,0.3-0.2c-0.1,0-0.2,0-0.3,0l-0.3,0l-0.7-0.1
			c0.1-0.3,0.5-0.5,0.9-0.7C88.2-0.3,88.7-0.3,89,0c0,0.3-0.7,0.8-0.8,1C88.4,0.8,89,1,89,1.2l-0.5,0.1c0.1,0.2,0.4,0.2,0.6,0.1
			c0.1,0,0.2,0,0.3,0c0.1,0.1,0.2,0.2,0.2,0.4c0.1,0.1,0,0.9,0.2,0.7c0.2-0.7,1.4-2.4,1.9-2.7c0,0,0.1,0.3,0.2,0.7
			c0,0.2,0.1,0.3,0.1,0.5c0,0.2,0,0.3,0,0.4c-0.1,0.3-0.3,0.5-0.6,0.6c-0.3,0.2-0.6,0.3-0.6,0.6c0.1-0.1,0.4-0.2,0.5-0.2
			c0.1,0.2-0.4,0.3,0,0.6c0.4-0.4,0.6,0.6,0.5-0.3C92,2.8,92.1,2.9,92.1,3c0,0.1,0.1,0.1,0.1,0.2c0,0.1,0.1,0.1,0.2,0.2
			c0.1-0.2,0.4-0.4,0.7-0.5c0.3-0.1,0.7-0.1,0.9,0C94,3,93.9,3.2,93.9,3.3c0.1,0.2,0.3,0.3,0.4,0.5s0.2,0.3,0.3,0.4
			c0.2,0.3,0.3,0.6,0.6,0.9c0,0.1,0,0.2,0,0.3c0,0.1-0.1,0.2-0.2,0.3c0.1,0,0.4,0,0.6,0.1c-0.1,0.7-0.4-0.4-0.7,0.3
			c0.3-0.2,0.8,0.2,1.2,0.3c0.3-0.4-0.5-0.7-0.9-0.8c0.3-0.3,0.7-0.4,1.1-0.4c0.4,0,0.9,0.1,1.3,0.3c0.6,0.4-0.2,0.5,0,0.6
			c0.4,0.6,0.8,0.6,1.2,0.6c0.4,0,0.7,0.1,0.8,0.7c-0.1,0.6-0.8,0.6-1,0.9C98,7.9,98.3,7.3,98,7c0,0.2,0.1,0.3,0.1,0.5
			c-0.1,0-0.3-0.1-0.4-0.2c-0.1-0.1-0.2-0.2-0.2-0.3c0,0.1,0,0.3,0.1,0.5c0.1,0.1,0.1,0.2,0.2,0.3C97.9,8,98,8.1,98.1,8.3
			c0.2,0.3,0.4,0.5,0.5,0.8c0.1,0.3,0.3,0.6,0.3,0.8c0.2,0.1,0.5,0.2,0.6,0l-0.2-0.2c0.2-0.5,0.8,0.2,0.7-0.2
			c0.2,0.1,0.5,0.2,0.7,0.4c0.2,0.1,0.4,0.4,0.5,0.7l-0.4,0.4c0.1-0.1,0.1-0.5-0.1-0.6c0.2,0,0.1,0.3,0.1,0.6c0,0.3,0.1,0.5,0.4,0.4
			l0.1-0.6c0.2,0.1,0.5,0.2,0.8,0.4c0.3,0.1,0.5,0.4,0.5,0.6c0.4-0.5-0.1-0.1,0.3-0.7c-0.1,0.2-0.2,0.2-0.3,0.1c0,0-0.1-0.1-0.1-0.2
			c0-0.1-0.1-0.1-0.1-0.2c-0.2-0.3-0.3-0.5-0.5-0.1c0.2-0.4,0.2-0.5,0.2-0.7c0-0.2-0.1-0.4,0-0.8c-0.1,0.1-0.1,0.1-0.2,0.1
			c0,0-0.1,0-0.1,0c0,0-0.1-0.1-0.1-0.2c-0.1,0-0.1,0-0.2,0c0,0,0,0,0,0c0,0.1,0,0.3-0.1,0.3c-0.5,0-0.9-0.6-1.2-0.7
			c-0.1-0.3,0.2,0,0.3-0.3L100,8.4c0.1-0.1,0.1-0.2,0.2-0.3c0-0.1,0.1-0.2,0.1-0.3c0.1-0.2,0.2-0.2,0.4,0c-0.1-0.2-0.2-0.3-0.3-0.5
			c0-0.4-0.2-0.9-0.5-1c0-0.1-0.1-0.1-0.1-0.2c-0.1,0-0.1-0.1-0.2-0.1c-0.1,0-0.2,0,0,0l-0.8-0.6l0.1-0.1c-0.1-0.2-0.3-0.3-0.5-0.5
			c-0.2-0.1-0.4-0.3-0.6-0.4c-0.2-0.1-0.4-0.3-0.5-0.5c-0.1-0.1-0.1-0.2-0.2-0.3c0-0.1-0.1-0.3-0.1-0.4c-0.3-0.1-0.6-0.3-0.9-0.7
			l0.2-0.3C96.1,2,96,1.7,95.8,1.5c-0.1-0.2-0.3-0.4-0.5-0.3c0.2-0.5-0.1-0.9-0.6-1.2c-0.4-0.3-0.9-0.6-1.1-0.9l-0.3,0.3
			C93-0.8,92.5-1,91.9-1.2l-0.2,0.3c-0.1,0-0.3-0.1-0.4-0.2c-0.1-0.1-0.2-0.2-0.3-0.4c-0.2-0.3-0.5-0.6-0.8-0.9
			c0.1-0.1,0.3,0.1,0.3,0.2c-0.1-0.7-0.7-0.8-1.2-0.9c-0.3,0-0.5-0.1-0.7-0.2c-0.1,0-0.2-0.1-0.3-0.2c-0.1-0.1-0.2-0.2-0.2-0.3
			c-0.3,0-0.4-0.1-0.4-0.3c0,0,0,0,0.1,0c0,0,0,0-0.1,0c0-0.1-0.1-0.2-0.2-0.3c0,0.1,0.1,0.2,0.1,0.3c-0.1-0.1-0.4-0.2-0.7-0.2
			l0.1-0.4c0,0,0,0-0.1,0c-0.1-0.3-0.3,0.1-0.3,0.4c-0.1,0-0.3,0-0.4,0.1c0.1-0.4-0.1-0.4-0.3-0.4c-0.2,0-0.4-0.1-0.3-0.5
			c-0.1,0.1-0.5,0-0.8,0c-0.3,0-0.7,0-0.9,0.3c0-0.1,0-0.2,0.1-0.1C83.9-4.8,83.7-5,83.4-5l0.1-0.6C83.2-5.4,83-5.2,82.7-5
			c-0.2-0.4-0.3-0.7,0.2-0.9c-0.5,0.1-0.7,0.1-0.9,0.1c-0.2,0-0.3,0-0.8,0.2L81.4-6c-0.3-0.1-0.8,0.2-0.9-0.1
			c-0.1-0.2-0.3-0.4-0.6-0.5c-0.3-0.1-0.7-0.3-1.1-0.4c-0.2-0.1-0.4-0.1-0.6-0.2c-0.2-0.1-0.4-0.1-0.6-0.2c-0.4-0.1-0.8-0.3-1.2-0.6
			c0,0.5-0.1,0.4-0.3,0.2c-0.2-0.2-0.4-0.4-0.5,0c0-0.3-0.2-0.4,0.1-0.6c-0.4,0-0.7-0.1-0.9-0.2c-0.3-0.1-0.5-0.1-0.8,0.2
			c-0.1-0.3,0.2-0.3,0.2-0.5c-0.1,0-0.3,0.2-0.3,0C73.8-8.9,74-9,74.1-9.1c-0.8-0.1-1,0.7-1.1,1.4c-0.2-0.2-0.3-0.3-0.4-0.3
			c-0.1,0-0.3,0.1-0.4,0.4c-0.1-0.2-0.3-0.5,0.2-0.6c-0.1,0-0.5-0.1-0.9-0.2c-0.4,0-0.7,0-0.8,0.3c-0.1-0.1-0.4-0.1-0.4,0
			c-0.6,0-0.7-0.1-1.3-0.1L69-8c-0.2,0.7-0.5,0.1-1,0.2l0-0.1C67.5-8,67.4-8,67.3-7.9c-0.1,0-0.1,0-0.2,0c-0.1,0-0.1,0-0.2-0.1
			c-0.1,0-0.2-0.1-0.3-0.1l0.1,0.4c0,0.5-0.3,0.3-0.6,0.2s-0.7-0.4-1-0.2l0.3,0.2c-0.1,0.1-0.2,0-0.3,0c-0.1-0.1-0.3-0.2-0.4-0.4
			c-0.3-0.3-0.6-0.7-0.8-0.8c-0.1-0.1,0.1-0.1,0.2-0.2c-1-0.4,0,0.6-0.7,0.8c-0.2-0.3,0.1-0.8-0.4-0.8C62.6-9,62.3-8.7,62-8.4
			c-0.2,0.1-0.4,0.3-0.6,0.3c-0.2,0.1-0.4,0.1-0.6,0C61-8,61.1-8,61.1-7.8c0,0.1,0,0.2-0.1,0.3c-0.2,0.1-0.6,0-0.9-0.1
			c-0.3-0.1-0.7,0-0.8,0.4c-0.1,0-0.1-0.1-0.1-0.1c-0.3,0.3-1.1,0.6-1.2,1.1c-0.4-0.7-0.9-0.3-1.3,0c-0.2,0.2-0.4,0.4-0.6,0.4
			c-0.1,0-0.2,0-0.3,0c-0.1,0-0.1-0.1-0.2-0.3l-1,0.5l0-0.1c-0.2,0-0.3,0.1-0.4,0.2c-0.1,0.1-0.2,0.2-0.3,0.2
			c-0.1,0.2-0.2,0.4-0.2,0.6c-0.2,0-0.1-0.2-0.1-0.3c-0.5,0.1-0.8,0.2-1.1,0.3c-0.2,0.2-0.4,0.5-0.6,1l-0.3-0.3
			c0,0.1-0.1,0.1-0.3,0.2c-0.2,0-0.4,0.1-0.7,0.1c-0.5,0.1-1.1,0.3-1.4,0.8c0,0,0-0.1,0-0.2c-0.2,0.3-0.5,0.4-0.8,0.6
			c-0.3,0.1-0.7,0.2-1,0.3c-0.6,0.2-1.1,0.5-0.8,1.3l-0.2,0.4c-0.1,0.1-0.1,0.3-0.2,0.4c0.1-0.1,0.2-0.1,0.3-0.1c0.1,0,0.1,0,0.2,0
			c0.1,0,0.1,0.1,0.1,0.2c0,0.2,0,0.5,0.3,0.5c-0.2,0.3-1.1,0.2-0.8-0.1l0.1,0c-0.4-0.8-1.1,0.5-1.5,0.1c-0.4,0.3-0.8,0.6-1.1,0.9
			c-0.1,0.1-0.2,0.1-0.3,0.2c-0.1,0.1-0.2,0.1-0.3,0.2c-0.2,0.1-0.4,0.3-0.6,0.4c-0.2,0.1-0.4,0.3-0.6,0.4c-0.2,0.1-0.4,0.3-0.6,0.5
			c-0.2,0.2-0.4,0.3-0.5,0.5c-0.2,0.2-0.3,0.3-0.5,0.5l0.6,0.3l-0.4,0.5c-0.2,0-0.5-0.2-0.2-0.5C39.8,4.1,40,5,40.1,5.1
			c-0.4,0.3-0.5,0.1-0.5-0.2c0-0.2,0.1-0.5,0-0.4l-0.2,0.3l0.1,0c0,0.2,0,0.4,0.1,0.5c0,0.1,0,0.3-0.2,0.5c-0.3,0.2-0.4-0.1-0.5,0
			c0,0-0.1,0-0.1,0.2c-0.2,0.2-0.4,0.4-0.6,0.6c0.2,0,0.4,0,0.6,0c0,0.1,0,0.2-0.1,0.3c0,0.1-0.1,0.1-0.1,0.2c0,0.1,0,0.1,0.4,0.2
			c-0.5,0-1,0.5-1.4,1.1C37,9,36.7,9.7,36.5,9.7c0.1,0.6-0.2,1.1-0.5,1.6c0.2-0.1,0.7,0.1,0.4,0.5c-0.5-0.4-0.7-0.2-0.9,0
			c-0.2,0.2-0.4,0.6-0.9,0.6c0.2,0,0.2,0.1,0.2,0.2c0,0.1,0,0.1,0,0.2c0,0.1,0,0.2-0.1,0.3c-0.1,0.4-0.1,0.7,0.4,0.6
			c-0.3,0.4-0.4-0.2-0.8,0c0,0.3-0.1,0.6-0.2,0.8c-0.1,0.1-0.1,0.3-0.2,0.4c-0.1,0.1-0.1,0.3-0.2,0.4c-0.2,0.3-0.3,0.5-0.5,0.8
			c-0.1,0.1-0.1,0.3-0.2,0.4c-0.1,0.1-0.1,0.3-0.1,0.5c0.1,0.1,0.4-0.1,0.6,0.3c-0.3,0.1-0.6,0.3-1,0.4c0,0.3,0.8,0.5,0.1,0.8
			c0.1,0,0.4-0.1,0.4,0.1c-0.2,0.3-0.3,0.6-0.4,0.9c-0.1,0.1-0.1,0.3-0.2,0.5c0,0.2-0.1,0.3-0.1,0.5c-0.1,0.6-0.3,1.3-0.3,2
			c0,0.3-0.1,0.7-0.1,1l0,0.2c0,0.1,0,0.2,0,0.2c0,0.2-0.1,0.3-0.1,0.5c-0.1,0.3-0.2,0.6-0.3,1c-0.1,0.2-0.1,0.3-0.2,0.5
			c-0.1,0.2-0.2,0.3-0.3,0.5c0.3-0.3,0.3-0.1,0.3,0.2c0.1-0.2,0.4,0,0.6,0L31.1,27L31,27.3c-0.1,0.1-0.1,0.2-0.2,0.3
			c0.3,0.1,0.3,0.4,0.3,0.7s0,0.6,0.3,0.6l-0.1-0.3c0.3,0.2,0.7,0.1,1.1-0.1c0.4-0.2,0.8-0.4,1.3-0.4c-0.2-0.1-0.2-0.3-0.1-0.4
			c0.1-0.1,0.2-0.3,0.3-0.5c0.3-0.3,0.5-0.7,0-1.1c0.2-0.2,0.3,0.2,0.5,0.1c-0.4-0.2-0.4-0.5-0.2-0.9l0.1,0.1c0.1-1.3,0.5-1.7,1-3
			l-0.4,0c0.1-0.3,0.3-0.3,0.4-0.4c-0.6-0.5-0.2,0.8-0.9,0.4c0.5-0.1,0.6-0.6,0.7-1.1c0-0.1,0.1-0.2,0.1-0.4c0-0.1,0.1-0.2,0.2-0.3
			c0.1-0.2,0.3-0.3,0.6-0.3c0.1-0.4-0.5,0-0.4-0.4l0.3,0l-0.3-0.2c0.1-0.1,0.2-0.2,0.3-0.3c0.1,0,0.3,0,0.4,0c0,0.1,0,0.2,0,0.3
			c0,0,0.1-0.1,0.1-0.1s0.1-0.1,0.1-0.2c0-0.1,0.1-0.2,0.1-0.4c0-0.2,0-0.5,0.1-0.5l-0.3,0.4c0-0.3,0.1-0.6,0.2-1
			c0.1-0.3,0.2-0.6,0.4-1c0.1-0.2,0.1-0.3,0.2-0.5c0-0.1,0-0.2,0.1-0.2c0-0.1,0.1-0.2,0.1-0.2c0.1-0.3,0.1-0.6,0.2-1h-0.2
			c0-0.3,0-0.4,0.1-0.5c0.1-0.1,0.1-0.2,0.2-0.3c0.2-0.1,0.3-0.3,0.5-0.8l0,0.1c-0.1-0.3-0.1-0.6,0.1-0.8c0.1,0.3,0.6-0.2,0.7,0.2
			c0.1-0.5,0.1-0.7,0-0.8c-0.1-0.1-0.2-0.3-0.3-0.7c0.1,0,0.2,0,0.4,0c-0.1-0.3-0.3-0.4,0-0.9c0,0.3,0.2,0.3,0.3,0.3
			c0.2,0,0.3,0,0.4,0.3c0.3-0.1,0.5-0.3,0.6-0.5c0-0.1,0.1-0.2,0.1-0.3c0-0.1,0-0.2,0.1-0.3c0.1-0.3,0.1-0.6,0.7-0.5
			c-0.5-0.9-1,0.5-1,0.1c-0.4,0-0.3-0.7,0-1c0.1-0.1,0.4-0.1,0.8-0.1c0.4,0,0.8,0,1-0.4c-0.1,0.1,0,0.1-0.1,0.2
			c0.2-0.1,0.2-0.2,0.3-0.4c0.1-0.2,0.1-0.3,0.4-0.4C42,6.9,42.6,7,42.1,6.5l-0.2,0.4c-0.1,0.1-0.1,0.2-0.2,0.4c0-0.1,0-0.3,0-0.4
			c0-0.1,0-0.3,0-0.5c0-0.3,0.1-0.6,0.5-0.8c0.1,0.1,0.1,0.4,0,0.6c0.3,0,0.2-0.4,0.5-0.4c0.2,0.3,0.1,0.5-0.1,0.7
			c-0.2,0.2-0.4,0.5-0.4,0.8c0.4,0,0.2-1,0.6-0.3c-0.3-0.4-0.1-0.6,0.1-0.7c0.1-0.1,0.2-0.1,0.3-0.2c0.1-0.1,0.1-0.3,0.1-0.5
			l0.3,0.3c0-0.1,0-0.4,0.1-0.5L44.1,6c0-0.3,0.2-0.4,0.5-0.5c0.2-0.1,0.5-0.1,0.6-0.3c-0.3,0.3-0.5,0.3-0.6,0.1
			c-0.1-0.1-0.2-0.3-0.4-0.3c0-0.2,0.1-0.3,0.2-0.3c0.1-0.1,0.1-0.1,0.2-0.1c0.1,0,0.3,0,0.5,0.1c0.2,0.1,0.4,0.1,0.6,0.1
			c0.1,0,0.2,0,0.3-0.1c0.1-0.1,0.2-0.1,0.3-0.3c0,0-0.1,0.1-0.1,0.1c-0.1,0-0.1,0-0.2,0c-0.1,0-0.3-0.1-0.2-0.2
			c0.1,0,0.1-0.1,0.2-0.1c0.1,0,0.1,0,0.2-0.1c0.1,0,0.3,0,0.4,0c0.3-0.3,0.2-0.4,0-0.4c-0.2,0-0.4,0-0.3-0.3
			c0.6,0.2,0.2-0.4,0.4-0.8l0.3,0.3c0.9-0.4-0.4-0.9,0.5-1.1c0,0.2,0,0.5,0.1,0.7l0.3-0.4l0.2,0.4C48,2.2,48.1,2.1,48.2,2
			c0.1-0.1,0.3-0.1,0.5-0.2c-0.3-0.2-0.4-0.7-0.1-0.9c0.4,0,0.1,0.4,0.6,0c0,0.3,0.1,0.7-0.3,0.5C49,1.4,49,1.6,49,1.7
			c0.2,0,0.4-0.1,0.5-0.2c0.1-0.1,0.2-0.3,0.3-0.3c-0.1,0-0.2,0.1-0.3,0c0.1-0.2,0.1-0.3,0.2-0.5L50,0.3c0.2,0.1,0.2,0.2,0.2,0.4
			c0.1-0.1,0.1-0.4,0.3-0.5c0.1,0.3,0.3,0.6,0.1,1l0.5-0.8c0.1,0.1,0.6,0.1,0.6,0.3c0.3,0,0.4-0.3,0.6-0.6c0.1-0.1,0.2-0.3,0.3-0.4
			c0.1-0.1,0.3-0.2,0.4-0.2c0-0.1,0-0.2,0.1-0.3C53.4-0.9,53.7-1,54-1c0.1,0,0.3-0.1,0.4-0.2c0.1-0.1,0.2-0.2,0.4-0.4
			c0.2,0.1,0.4,0.3,0.6,0.4c0.2-0.2,0-0.3-0.1-0.5C55-1.8,54.9-2,55.2-2.3c0.1-0.1,0.2-0.1,0.3-0.1c0.1,0,0.1,0.1,0.1,0.2
			c0.1,0.2,0.1,0.4,0.3,0.4C56-2,56.1-2.3,56.3-2.5c0.1-0.1,0.2-0.2,0.3-0.2c0.1,0,0.3,0,0.5,0c-0.1,0.1-0.1,0.1-0.2,0.1
			C56.8-2.6,56.7-2.6,56.7-2.5z M63-4.5c-0.1,0.1-0.3,0.4-0.4,0.2C62.6-4.8,62.8-4.6,63-4.5z M73.2-5.7c-0.1,0.1-0.3,0-0.4-0.1
			C73-5.9,73.1-5.9,73.2-5.7z M100,7.1C100,7.1,100,7.1,100,7.1C99.9,6.7,99.9,6.8,100,7.1z M100.2,7.7c0.1,0,0.1,0,0.2-0.1
			c-0.1,0-0.2-0.1-0.3-0.3C100,7.5,100,7.6,100.2,7.7z M38.8,5.9l0.2,0C38.9,6.2,38.9,6,38.8,5.9z"/>
		<path class="st3" d="M72-5.3c0-0.1,0-0.2,0-0.2C71.9-5.5,71.9-5.4,72-5.3z"/>
		<path class="st3" d="M53-0.6C53-0.6,53-0.6,53-0.6c0,0,0,0.1,0,0.1V-0.6z"/>
		<path class="st3" d="M90.9,2.9c-0.1-0.1-0.1-0.2,0-0.3C90.8,2.6,90.8,2.7,90.9,2.9z"/>
		<path class="st3" d="M102.7,10.4l-0.3-0.3c0.1,0.2,0.1,0.3,0.1,0.4C102.5,10.4,102.6,10.2,102.7,10.4z"/>
		<path class="st3" d="M102,14.8c0.1,0,0.1,0.1,0.1,0.1l0.2-0.1C102.1,14.6,101.9,14.5,102,14.8z"/>
		<path class="st3" d="M101.7,11.4c-0.3,0.2-0.1,0.4,0.1,0.6c0,0,0,0,0,0C102.2,11.8,102,11.6,101.7,11.4z"/>
		<path class="st3" d="M101.8,12c0.1,0.1,0.1,0.1,0.1,0.2C102.1,12.2,101.9,12.2,101.8,12z"/>
		<path class="st3" d="M100.9,8.3c0,0.2,0.4-0.2,0.4,0c0.2-0.1,0-0.2-0.2-0.2C100.8,8,100.6,8,100.9,8.3z"/>
		<path class="st3" d="M100.7,12.2l0.3-0.3l-0.4,0C100.7,12,100.7,12.1,100.7,12.2z"/>
		<path class="st3" d="M99.9,10c0,0.1,0.1,0.3,0.1,0.4c0.1,0,0.1,0,0.2,0c0-0.1-0.1-0.1-0.1-0.2c0-0.1-0.1-0.1-0.1-0.2
			C100,10.1,99.9,10,99.9,10z"/>
		<path class="st3" d="M100.2,10.5c0.1,0.1,0.1,0.3,0.3,0.3C100.4,10.7,100.3,10.6,100.2,10.5z"/>
		<path class="st3" d="M100.3,11.7l0-0.2l-0.1-0.3L100.3,11.7z"/>
		<path class="st3" d="M97.1,6l-0.4-0.3c-0.1,0.1-0.1,0.2,0,0.3C96.8,6,97,6.2,97.1,6z"/>
		<path class="st3" d="M97,7.9c0-0.2,0.1-0.2,0.1-0.4l-0.4,0.3L97,7.9z"/>
		<path class="st3" d="M96.1,6.9c-0.1,0.1-0.8-0.2-0.4,0.2C95.8,7,96.2,7.3,96.1,6.9z"/>
		<path class="st3" d="M91.3,1.2l0.1,0.1L92,0.6L91.3,1.2z"/>
		<path class="st3" d="M84.9-0.5c0.4,0.5,0.4-0.4,0.7,0.1c0.2-0.1-0.2-0.4,0-0.5c-0.2,0-0.3,0-0.4,0C85-0.9,84.9-0.8,84.9-0.5z"/>
		<path class="st3" d="M85.5-0.9c0.1,0,0.1,0,0.2,0C85.6-0.9,85.5-0.9,85.5-0.9z"/>
		<path class="st3" d="M30.3,28.2l-0.2,0.4l0.3-0.3L30.3,28.2z"/>
		<path class="st3" d="M31,29l-0.6,0.1l0.5,0.2C30.9,29.2,30.8,29.1,31,29z"/>
		<path class="st3" d="M64.1-3.5l0-0.1c-0.1-0.1-0.2-0.1-0.3-0.1L64.1-3.5z"/>
		<path class="st3" d="M59.4-3L59.4-3l-0.2-0.5L59.4-3z"/>
		<path class="st3" d="M55.9-1c0.2,0,0.3-0.2,0.4-0.3C56.1-1.1,55.6-1.6,55.9-1z"/>
		<path class="st3" d="M5.1,62.8c2.3-0.8,4.7-1.5,7-2.1c1.2-0.3,2.4-0.6,3.6-0.9c0.6-0.2,1.2-0.3,1.8-0.4l1.8-0.4
			c4.8-1.1,9.6-2,14.4-2.9c9.6-1.6,19.4-2.8,29.1-3.4c9.7-0.7,19.5-0.9,29.3-0.7c0.6,0,1.2,0,1.8,0.1l1.8,0.1l1.8,0.1
			c0.3,0,0.6,0,0.9,0l0.9,0.1l1.8,0.1c0.6,0,1.2,0.1,1.8,0.1c0.6,0,1.2,0.1,1.8,0.1c0.6,0,1.2,0.1,1.8,0.1l1.8,0.2l0.9,0.1
			c0.3,0,0.6,0.1,0.9,0.1c1.2,0.1,2.4,0.3,3.6,0.4l0.9,0.1l0.5,0.1l0.5,0.1l1.8,0.3c1.2,0.2,2.4,0.4,3.6,0.6l0,0.3l-3.6-0.1
			c-1.2,0-2.4-0.1-3.6-0.1l-3.6-0.1l-0.9,0h-0.9l-1.8,0c-1.2,0-2.4,0-3.6,0l-3.6,0c-0.6,0-1.2,0-1.8,0l-1.8,0l-3.6,0.1l-3.6,0.1
			l-1.8,0l-1.8,0.1l-3.6,0.1l-3.6,0.2c-0.6,0-1.2,0-1.8,0.1l-1.8,0.1l-1.8,0.1c-0.6,0-1.2,0.1-1.8,0.1l-3.6,0.2
			c-0.6,0-1.2,0.1-1.8,0.1L63,56c-4.8,0.3-9.7,0.7-14.5,1.2c-1.2,0.1-2.4,0.2-3.6,0.4L43,57.7l-1.8,0.2l-1.8,0.2l-1.8,0.2
			c-1.2,0.1-2.4,0.3-3.6,0.4c-4.8,0.6-9.6,1.2-14.4,1.9c-2.4,0.4-4.8,0.7-7.2,1.1c-2.4,0.4-4.8,0.8-7.2,1.3L5.1,62.8z"/>
		<path class="st3" d="M49.1,11.5c2.5-3.1,5.8-5.7,9.4-7.4c1.8-0.9,3.8-1.6,5.7-2l0.4-0.1c0.1,0,0.3,0,0.4-0.1l0.7-0.1
			c0.5-0.1,1-0.2,1.5-0.2l0.4-0.1l0.2,0l0.2,0l0.8-0.1c0.3,0,0.5,0,0.8-0.1l0.8,0c4.1-0.1,8.2,0.6,11.9,2.2c3.7,1.6,7.2,3.9,9.8,6.9
			C89.1,7.8,85.7,5.7,82,4.4c-3.7-1.3-7.6-2-11.5-1.9C66.5,2.7,62.6,3.5,59,5C55.4,6.5,52.1,8.8,49.1,11.5z"/>
	</g>
</g>
<path class="st4" d="M104.1,42.6H20.9c-2.6,0-4.7-1.8-5.2-4.3c-0.5-2.5,0.9-5,3.3-5.9l21.3-7.9L48,13.7c0.7-0.9,1.7-1.5,2.9-1.5
	h23.4c1.1,0,2.2,0.6,2.9,1.5l7.5,10.8l21.3,7.9c2.4,0.9,3.8,3.3,3.3,5.9C108.8,40.8,106.7,42.6,104.1,42.6z M21.5,38.9L21.5,38.9
	L21.5,38.9C21.5,38.9,21.5,38.9,21.5,38.9z M20.3,35.7L20.3,35.7L20.3,35.7z M30.7,35.6h63.7l-13.2-4.9c-0.7-0.2-1.2-0.7-1.7-1.3
	l-7.1-10.2H52.6l-7.1,10.2c-0.4,0.6-1,1-1.7,1.3L30.7,35.6z"/>
</svg>
