<?xml version="1.0" encoding="utf-8"?>
<!-- Generator: Adobe Illustrator 27.0.0, SVG Export Plug-In . SVG Version: 6.00 Build 0)  -->
<svg version="1.1" id="Layer_1" xmlns="http://www.w3.org/2000/svg" xmlns:xlink="http://www.w3.org/1999/xlink" x="0px" y="0px"
	 viewBox="0 0 45 45" style="enable-background:new 0 0 45 45;" xml:space="preserve">
<style type="text/css">
	.st0{clip-path:url(#SVGID_00000068673644434828490600000011835886078227153339_);}
	.st1{fill:#D12525;}
	.st2{fill:#FFFFFF;}
	.st3{fill:#D12627;}
</style>
<g>
	<g>
		<defs>
			<rect id="SVGID_1_" width="45" height="45"/>
		</defs>
		<clipPath id="SVGID_00000075141762583510787140000015302779335612182955_">
			<use xlink:href="#SVGID_1_"  style="overflow:visible;"/>
		</clipPath>
		<g style="clip-path:url(#SVGID_00000075141762583510787140000015302779335612182955_);">
			<path class="st1" d="M45,22.5C45,28.8,39.9,34,33.5,34c-0.5,0-0.9,0-1.3-0.1H19.9c-0.9,0-1.6-0.7-1.6-1.6l0,0
				c0-0.9,0.7-1.6,1.6-1.6h1.5c0.9,0,1.6-0.7,1.6-1.6l0,0c0-0.9-0.7-1.6-1.6-1.6l-9.2,0.1c-0.9,0-1.6-0.7-1.6-1.6l0,0
				c0-0.9,0.7-1.6,1.6-1.6l5.3-0.1c0.9,0,1.6-0.7,1.6-1.6l0,0c0-0.9-0.7-1.6-1.6-1.6l-8.8,0.1c-0.9,0-1.6-0.7-1.6-1.6l0,0
				c0-0.9,0.7-1.6,1.6-1.6l12.7-0.1c0.9,0,1.6-0.7,1.6-1.6l0,0c0-0.9-0.7-1.6-1.6-1.6h-4.8c-0.9,0-1.6-0.7-1.6-1.6
				c0-0.9,0.7-1.6,1.6-1.6l17-0.1c0,0,0,0,0.1,0l0,0H34l0,0C40,11.2,45,16.3,45,22.5z M8.8,25.8L8.8,25.8c0,0.9-0.7,1.6-1.6,1.6H6.6
				c-0.9,0-1.6-0.7-1.6-1.6l0,0c0-0.9,0.7-1.6,1.6-1.6h0.6C8,24.2,8.8,24.9,8.8,25.8z M10.9,14.4H12c0.9,0,1.6-0.7,1.6-1.6
				c0-0.9-0.7-1.6-1.6-1.6h-1.1c-0.9,0-1.6,0.7-1.6,1.6C9.3,13.7,10,14.4,10.9,14.4z M15.1,30.7h-0.6c-0.9,0-1.6,0.7-1.6,1.6l0,0
				c0,0.9,0.7,1.6,1.6,1.6h0.6c0.9,0,1.6-0.7,1.6-1.6l0,0C16.8,31.4,16,30.7,15.1,30.7z M5.4,19.3L5.4,19.3c0-0.9-0.7-1.6-1.6-1.6
				H1.7c-0.9,0-1.6,0.7-1.6,1.6l0,0C0,20.3,0.7,21,1.6,21h2.1C4.7,21,5.4,20.2,5.4,19.3z"/>
			<path class="st2" d="M24.8,19.9c0,0.5,0.4,0.9,0.9,0.9h14.1c0.5,0,0.9-0.4,0.9-0.9l0,0c0-1.6-3.6-5.5-7.9-5.5l0,0
				C28.4,14.3,24.8,18,24.8,19.9L24.8,19.9z M27.2,21.7h-0.8c-0.8,0-1.6,0.6-1.6,1.5c-0.1,0.9,0.7,1.7,1.6,1.7h12.8
				c0.9,0,1.6-0.8,1.6-1.7c-0.1-0.8-0.8-1.5-1.6-1.5h-7l-2,2c-0.2,0.2-0.6,0.2-0.9,0L27.2,21.7z M29.5,22.8c0.1,0.1,0.2,0.1,0.3,0
				l1.1-1.1h-2.4L29.5,22.8z M40.7,26.1c0-0.2-0.2-0.3-0.3-0.3H25.2c-0.2,0-0.3,0.2-0.3,0.3v2.5c0,0.7,0.6,1.3,1.3,1.3h13.4
				c0.7,0,1.3-0.6,1.3-1.3v-2.5H40.7z"/>
			<path class="st3" d="M35.9,18.7c0-0.3,0.2-0.5,0.5-0.5s0.6,0.2,0.6,0.5s-0.2,0.5-0.5,0.5C36.1,19.2,35.9,18.9,35.9,18.7z
				 M38.2,17.7c0.2-0.2,0.1-0.5-0.1-0.8c-0.3-0.3-0.6-0.4-0.8-0.2c-0.2,0.2-0.1,0.5,0.1,0.8S38,17.9,38.2,17.7z M35.3,17.6
				c0.3-0.3,0.3-0.7,0.1-0.9c-0.2-0.2-0.6-0.2-0.9,0.1c-0.3,0.3-0.3,0.7-0.1,0.9S35,17.8,35.3,17.6z"/>
		</g>
	</g>
</g>
</svg>
