<?xml version="1.0" encoding="UTF-8"?>
<svg enable-background="new 0 0 181 45" version="1.1" viewBox="0 0 181 45" width="181" height="45" xml:space="preserve" xmlns="http://www.w3.org/2000/svg">
<style type="text/css">
	.st0{fill:#D12525;}
	.st1{fill:#FFFFFF;}
	.st2{fill:#D12627;}
	.st3{fill:#212121;}
</style>

	
		<path class="st0" d="m73.2 22.3c0 10.3-8.3 18.7-18.7 18.7-0.8 0-1.5 0-2.1-0.2h-20c-1.5 0-2.6-1.1-2.6-2.6s1.1-2.6 2.6-2.6h2.4c1.5 0 2.6-1.1 2.6-2.6s-1.1-2.6-2.6-2.6l-15 0.2c-1.5 0-2.6-1.1-2.6-2.6s1.1-2.6 2.6-2.6l8.6-0.2c1.5 0 2.6-1.1 2.6-2.6s-1.1-2.6-2.6-2.6l-14.4 0.2c-1.5 0-2.6-1.1-2.6-2.6s1.1-2.6 2.6-2.6l20.7-0.2c1.5 0 2.6-1.1 2.6-2.6s-1.1-2.6-2.6-2.6h-7.8c-1.5 0-2.6-1.1-2.6-2.6s1.1-2.6 2.6-2.6l27.7-0.2h0.2 0.5c9.8-0.3 17.9 8 17.9 18.1zm-59 5.4c0 1.5-1.1 2.6-2.6 2.6h-1c-1.5 0-2.6-1.1-2.6-2.6s1.1-2.6 2.6-2.6h1c1.3 0 2.6 1.1 2.6 2.6zm3.4-18.6h1.8c1.5 0 2.6-1.1 2.6-2.6s-1.1-2.6-2.6-2.6h-1.8c-1.5 0-2.6 1.1-2.6 2.6s1.2 2.6 2.6 2.6zm6.9 26.6h-1c-1.5 0-2.6 1.1-2.6 2.6s1.1 2.6 2.6 2.6h1c1.5 0 2.6-1.1 2.6-2.6 0.1-1.5-1.2-2.6-2.6-2.6zm-15.8-18.6c0-1.5-1.1-2.6-2.6-2.6h-3.5c-1.5 0-2.6 1.1-2.6 2.6-0.2 1.6 1 2.8 2.4 2.8h3.4c1.7 0 2.9-1.3 2.9-2.8z"/>
		<path class="st1" d="m40.3 18.1c0 0.8 0.7 1.5 1.5 1.5h23c0.8 0 1.5-0.7 1.5-1.5 0-2.6-5.9-9-12.9-9-7.3-0.1-13.1 5.9-13.1 9zm3.9 2.9h-1.3c-1.3 0-2.6 1-2.6 2.4-0.2 1.5 1.1 2.8 2.6 2.8h20.9c1.5 0 2.6-1.3 2.6-2.8-0.2-1.3-1.3-2.4-2.6-2.4h-11.5l-3.3 3.3c-0.3 0.3-1 0.3-1.5 0l-3.3-3.3zm3.7 1.8c0.2 0.2 0.3 0.2 0.5 0l1.8-1.8h-3.9l1.6 1.8zm18.3 5.4c0-0.3-0.3-0.5-0.5-0.5h-24.8c-0.3 0-0.5 0.3-0.5 0.5v4.1c0 1.1 1 2.1 2.1 2.1h21.8c1.1 0 2.1-1 2.1-2.1v-4.1h-0.2z"/>
		<path class="st2" d="m58.4 16.1c0-0.5 0.3-0.8 0.8-0.8s1 0.3 1 0.8-0.3 0.8-0.8 0.8c-0.7 0.1-1-0.4-1-0.8zm3.7-1.6c0.3-0.3 0.2-0.8-0.2-1.3-0.5-0.5-1-0.7-1.3-0.3-0.3 0.3-0.2 0.8 0.2 1.3 0.3 0.5 1 0.6 1.3 0.3zm-4.7-0.2c0.5-0.5 0.5-1.1 0.2-1.5-0.3-0.3-1-0.3-1.5 0.2s-0.5 1.1-0.2 1.5c0.4 0.3 1 0.2 1.5-0.2z"/>
	
	
		
			<path class="st3" d="m79.9 34.4c-1.4-1.4-2.1-3.2-2.1-5.4v-12.1c0-2.3 0.7-4.1 2.1-5.4 1.4-1.4 3.2-2 5.6-2 2.3 0 4.2 0.7 5.6 2 1.4 1.4 2.1 3.2 2.1 5.4v12.1c0 2.3-0.7 4.1-2.1 5.4-1.4 1.4-3.3 2-5.6 2s-4.2-0.6-5.6-2zm7.3-3.3c0.4-0.5 0.6-1.1 0.6-1.9v-12.6c0-0.8-0.2-1.5-0.6-1.9-0.4-0.5-1-0.7-1.7-0.7s-1.3 0.2-1.7 0.7-0.6 1.1-0.6 1.9v12.5c0 0.8 0.2 1.5 0.6 1.9 0.4 0.5 1 0.7 1.7 0.7 0.7 0.2 1.3-0.1 1.7-0.6z"/>
			<path class="st3" d="m108.7 18.1c0.9 1.1 1.3 2.7 1.3 4.8v12.8c0 0.1 0 0.2-0.1 0.3s-0.2 0.1-0.3 0.1h-4.4c-0.1 0-0.2 0-0.3-0.1s-0.1-0.2-0.1-0.3v-12.4c0-0.7-0.1-1.3-0.4-1.7s-0.7-0.6-1.3-0.6-1 0.2-1.3 0.6-0.5 1-0.5 1.8v12.3c0 0.1 0 0.2-0.1 0.3s-0.2 0.1-0.3 0.1h-4.4c-0.1 0-0.2 0-0.3-0.1s-0.1-0.2-0.1-0.3v-18.5c0-0.1 0-0.2 0.1-0.3s0.2-0.1 0.3-0.1h4.4c0.1 0 0.2 0 0.3 0.1s0.1 0.2 0.1 0.3v0.7c0 0.1 0 0.1 0.1 0.1s0.1-0.1 0.2-0.2c0.8-1 1.9-1.4 3.4-1.4 1.6 0 2.9 0.6 3.7 1.7z"/>
			<path class="st0" d="m124.7 10.7c1.1 0.7 1.9 1.6 2.5 2.9 0.6 1.2 0.9 2.6 0.9 4.2 0 2.3-0.6 4.2-1.9 5.6s-2.9 2.1-4.9 2.1h-2.8c-0.1 0-0.2 0.1-0.2 0.2v10c0 0.1 0 0.2-0.1 0.3s-0.2 0.1-0.3 0.1h-4.4c-0.1 0-0.2 0-0.3-0.1s-0.1-0.2-0.1-0.3v-25.6c0-0.1 0-0.2 0.1-0.3s0.2-0.1 0.3-0.1h7.6c1.3 0 2.5 0.3 3.6 1zm-2.6 9.7c0.5-0.6 0.7-1.5 0.7-2.6s-0.2-2-0.7-2.6-1.1-0.9-1.9-0.9h-1.7c-0.1 0-0.2 0.1-0.2 0.2v6.6c0 0.1 0.1 0.2 0.2 0.2h1.7c0.7 0 1.4-0.3 1.9-0.9z"/>
			<path class="st0" d="m132 34.7c-1.3-1.1-1.9-2.7-1.9-4.6v-7.3c0-1.9 0.6-3.4 1.9-4.6s3-1.7 5.3-1.7c2.2 0 4 0.6 5.3 1.7 1.3 1.2 1.9 2.7 1.9 4.6v7.3c0 2-0.6 3.5-1.9 4.6s-3 1.7-5.3 1.7-4.1-0.5-5.3-1.7zm6.6-3.5c0.4-0.4 0.5-0.9 0.5-1.5v-6.5c0-0.6-0.2-1.1-0.5-1.5-0.4-0.4-0.8-0.6-1.4-0.6s-1 0.2-1.3 0.6-0.5 0.9-0.5 1.5v6.5c0 0.6 0.2 1.1 0.5 1.5s0.8 0.6 1.3 0.6 1-0.2 1.4-0.6z"/>
			<path class="st0" d="m147.6 13.7c-0.6-0.6-0.8-1.3-0.8-2.1 0-0.9 0.3-1.6 0.8-2.2s1.3-0.8 2.2-0.8 1.6 0.3 2.1 0.8c0.5 0.6 0.8 1.3 0.8 2.2s-0.3 1.6-0.8 2.1c-0.6 0.6-1.3 0.8-2.1 0.8-1 0-1.7-0.3-2.2-0.8zm-0.4 22.3c-0.1-0.1-0.1-0.2-0.1-0.3v-18.5c0-0.1 0-0.2 0.1-0.3s0.2-0.1 0.3-0.1h4.4c0.1 0 0.2 0 0.3 0.1s0.1 0.2 0.1 0.3v18.5c0 0.1 0 0.2-0.1 0.3s-0.2 0.1-0.3 0.1h-4.4c-0.1 0-0.2 0-0.3-0.1z"/>
			<path class="st0" d="m168.2 18.1c0.9 1.1 1.3 2.7 1.3 4.8v12.8c0 0.1 0 0.2-0.1 0.3s-0.2 0.1-0.3 0.1h-4.4c-0.1 0-0.2 0-0.3-0.1s-0.1-0.2-0.1-0.3v-12.4c0-0.7-0.1-1.3-0.4-1.7s-0.7-0.6-1.3-0.6-1 0.2-1.3 0.6-0.5 1-0.5 1.8v12.3c0 0.1 0 0.2-0.1 0.3s-0.2 0.1-0.3 0.1h-4.4c-0.1 0-0.2 0-0.3-0.1s-0.1-0.2-0.1-0.3v-18.5c0-0.1 0-0.2 0.1-0.3s0.2-0.1 0.3-0.1h4.4c0.1 0 0.2 0 0.3 0.1s0.1 0.2 0.1 0.3v0.7c0 0.1 0 0.1 0.1 0.1s0.1-0.1 0.2-0.2c0.8-1 1.9-1.4 3.4-1.4s2.8 0.6 3.7 1.7z"/>
			<path class="st0" d="m180.9 20.3c-0.1 0.1-0.2 0.1-0.3 0.1h-2.1c-0.1 0-0.2 0.1-0.2 0.2v9c0 0.7 0.1 1.2 0.4 1.5s0.7 0.4 1.2 0.4h0.3c0.1 0 0.2 0 0.3 0.1s0.1 0.2 0.1 0.3v3.7c0 0.1 0 0.2-0.1 0.3s-0.2 0.1-0.3 0.1h-1.5c-1.8 0-3.2-0.3-4.2-0.9-0.9-0.6-1.4-1.8-1.4-3.5v-11c0-0.1-0.1-0.2-0.2-0.2h-1.2c-0.1 0-0.2 0-0.3-0.1s-0.1-0.2-0.1-0.3v-2.8c0-0.1 0-0.2 0.1-0.3s0.2-0.1 0.3-0.1h1.2c0.1 0 0.2-0.1 0.2-0.2v-4.2c0-0.1 0-0.2 0.1-0.3s0.2-0.1 0.3-0.1h4.2c0.1 0 0.2 0 0.3 0.1s0.1 0.2 0.1 0.3v4.2c0 0.1 0.1 0.2 0.2 0.2h2.1c0.1 0 0.2 0 0.3 0.1s0.1 0.2 0.1 0.3v2.8c0.2 0.1 0.2 0.2 0.1 0.3z"/>
		
	

</svg>
