<?xml version="1.0" encoding="UTF-8"?>
<svg id="Layer_1" data-name="Layer 1" xmlns="http://www.w3.org/2000/svg" version="1.1" xmlns:xlink="http://www.w3.org/1999/xlink" viewBox="0 0 126 72">
  <defs>
    <style>
      .cls-1 {
        fill: none;
      }

      .cls-1, .cls-2 {
        stroke-width: 0px;
      }

      .cls-3 {
        clip-path: url(#clippath);
      }

      .cls-2 {
        fill: #fff;
      }
    </style>
    <clipPath id="clippath">
      <rect class="cls-1" width="126" height="71.8"/>
    </clipPath>
  </defs>
  <g class="cls-3">
    <g>
      <path class="cls-2" d="M9.7,26.3l1.9.3c1.3.2,1.7,0,1.9-1.3l2.7-16.5c.2-1.3-.1-1.6-1.4-1.8l-1.9-.3,1-6,12.3,2.1-1,6-2-.3c-1.3-.2-1.7,0-1.9,1.3l-3,18,11.9,2,.9-5.6,4.9.8-1.9,11.5-25.5-4.2,1-5.8Z"/>
      <path class="cls-2" d="M42.1,31.6c-3.5-4.4-4.7-10.7.8-15.1,6-4.8,10.8-1.2,14.2,3.1l1.1,1.4-11.3,8.9c2.3,2,4.8,1.2,7.4-.9s3.9-3.9,5.1-5.7l3.4,4.2c-1.2,2.1-3.1,4.1-5.2,5.7-6,4.7-11.5,3.3-15.5-1.8ZM44.8,27.1l7.6-6.1c-1.6-1.6-3.5-2-6,0s-2.9,3.6-1.6,6.1Z"/>
      <path class="cls-2" d="M65.9,24.2l-1.2-7.1-2.7.4-1-5.9,2.7-.4-.7-4.6,4.9-.8.7,4.6,6.5-1,1,5.9-6.5,1,1,6.2c.4,2.3,1.3,3.6,3.9,3.2s2-.4,3.1-.8l.9,5.8c-1.1.5-2.5.8-3.9,1-6,1-8-2.7-8.8-7.4Z"/>
      <path class="cls-2" d="M81.4,9.5c1.3,0,3.7-.6,3.4-2.7-1.8,1.3-4.6,1-5.2-1.4s.3-4,3.1-4.7c2.9-.7,4.9,1.4,5.5,4,1.2,4.5-1,8.1-5.8,8.8l-1-3.9Z"/>
      <path class="cls-2" d="M82.5,30.2l2.1-6,4.1,1.4-.7,2c.7.7,2.5,1.6,4.2,2.3s4.1,1.1,4.7-.5-.6-2.2-4.7-3.9c-4.6-1.9-6.8-4.2-5.4-8.2,1.7-5,6.4-5.3,11-3.8s5,2.3,6.7,3.7l-2.2,6.3-4.1-1.4.7-1.9c-.8-.6-1.8-1.2-3.4-1.7s-3.9-.8-4.4.6.6,2.2,4.3,3.7c5.2,2.1,7.4,4.4,6,8.3s-6.3,5.3-11.3,3.6-5.8-2.7-7.5-4.4Z"/>
      <path class="cls-2" d="M.4,50.6c2-10.3,10.2-14.8,18.1-13.3s13.7,8.7,11.7,19-10.2,14.7-18,13.2S-1.6,60.9.4,50.6ZM25.1,55.5c1.3-6.7-2.5-10.8-7.9-11.9-5.4-1-10.5,1.4-11.8,8s2.6,10.8,7.9,11.8c5.4,1,10.5-1.3,11.8-8Z"/>
      <path class="cls-2" d="M34.5,56.2l1.7.2c.8.1,1.3-.1,1.4-1l1-7.5c.1-.8-.2-1.2-1.1-1.3l-1.7-.2.8-5.9,7.7,1-.6,4.5c.8-2.2,2.8-4.5,6.2-4s1.3.3,2,.5l-.8,6.1c-.7-.2-1.5-.3-2.2-.4-1.7-.2-3.5-.2-5.3.2l-1,7.7c-.1.8.2,1.2,1.1,1.3l2,.3-.7,5.7-11-1.4.7-5.7Z"/>
      <path class="cls-2" d="M50.6,62.1c-1.1-5.3.9-11.7,7-13,2.3-.5,4.7,0,6.6,1.8l-1.4-6.7c-.2-.8-.6-1-1.4-.9l-1.8.4-1.2-5.9,7.9-1.6,5.2,25.5c.2.8.6,1,1.4.9l1.4-.3,1.1,5.6-7.2,1.5-.7-3.6c-.6,3-3.1,4.8-5.9,5.4-6,1.2-9.9-3.5-11-9ZM66.6,62.8l-1.5-7.4c-1.6-.7-3.4-.9-5.1-.6-3.4.7-5.4,2.9-4.7,6.4s3.5,4.7,6.9,4,3.3-1.2,4.5-2.4Z"/>
      <path class="cls-2" d="M75.1,43.1c3.1-4.6,8.8-7.8,14.6-3.8,6.4,4.3,4.4,9.9,1.4,14.4l-1,1.5-11.9-8c-1.2,2.8.3,4.9,3.1,6.8s4.9,2.5,7,3.1l-3,4.5c-2.4-.5-4.9-1.7-7.1-3.2-6.3-4.2-6.6-10-3-15.3ZM80.2,44.4l8.1,5.4c1.1-2,.8-4-1.8-5.8s-4.3-1.7-6.3.3Z"/>
      <path class="cls-2" d="M97.4,54.4h1.7c.8,0,1.2-.3,1.2-1.1v-7.5c0-.8-.3-1.2-1.1-1.2h-1.7s0-6,0-6h7.7c0,0,0,4.6,0,4.6.6-2.3,2.2-4.8,5.7-4.7s1.3.1,2.1.3v6.2c-.8,0-1.6-.1-2.3-.2-1.8,0-3.5.2-5.2.9v7.7c0,.8.3,1.1,1.1,1.2h2s0,5.7,0,5.7h-11.1c0-.1,0-5.8,0-5.8Z"/>
      <path class="cls-2" d="M113.3,58.6c.4-1.9,1.9-3.3,4.4-2.9s3.5,2.3,3.2,4.2-1.9,3.3-4.4,2.8-3.5-2.2-3.1-4.2ZM118.7,30l7.4,1.4-5.8,22.4-4.1-.8,2.5-23Z"/>
    </g>
  </g>
</svg>